<?xml version="1.0" encoding="utf-8" standalone="no"?>
<!DOCTYPE svg PUBLIC "-//W3C//DTD SVG 1.1//EN"
  "http://www.w3.org/Graphics/SVG/1.1/DTD/svg11.dtd">
<svg xmlns:xlink="http://www.w3.org/1999/xlink" width="460.8pt" height="345.6pt" viewBox="0 0 460.8 345.6" xmlns="http://www.w3.org/2000/svg" version="1.1">
 <metadata>
  <rdf:RDF xmlns:dc="http://purl.org/dc/elements/1.1/" xmlns:cc="http://creativecommons.org/ns#" xmlns:rdf="http://www.w3.org/1999/02/22-rdf-syntax-ns#">
   <cc:Work>
    <dc:type rdf:resource="http://purl.org/dc/dcmitype/StillImage"/>
    <dc:date>2024-03-28T19:23:19.624775</dc:date>
    <dc:format>image/svg+xml</dc:format>
    <dc:creator>
     <cc:Agent>
      <dc:title>Matplotlib v3.8.2, https://matplotlib.org/</dc:title>
     </cc:Agent>
    </dc:creator>
   </cc:Work>
  </rdf:RDF>
 </metadata>
 <defs>
  <style type="text/css">*{stroke-linejoin: round; stroke-linecap: butt}</style>
 </defs>
 <g id="figure_1">
  <g id="patch_1">
   <path d="M 0 345.6 
L 460.8 345.6 
L 460.8 0 
L 0 0 
z
" style="fill: #ffffff"/>
  </g>
  <g id="axes_1">
   <g id="patch_2">
    <path d="M 47.63 303.64 
L 442.08 303.64 
L 442.08 26.88 
L 47.63 26.88 
z
" style="fill: #ffffff"/>
   </g>
   <g id="matplotlib.axis_1">
    <g id="xtick_1">
     <g id="line2d_1">
      <defs>
       <path id="mca9b4cfbec" d="M 0 0 
L 0 3.5 
" style="stroke: #000000; stroke-width: 0.8"/>
      </defs>
      <g>
       <use xlink:href="#mca9b4cfbec" x="66.413333" y="303.64" style="stroke: #000000; stroke-width: 0.8"/>
      </g>
     </g>
     <g id="text_1">
      <!-- 0.2 -->
      <g transform="translate(58.461771 318.238437) scale(0.1 -0.1)">
       <defs>
        <path id="DejaVuSans-30" d="M 2034 4250 
Q 1547 4250 1301 3770 
Q 1056 3291 1056 2328 
Q 1056 1369 1301 889 
Q 1547 409 2034 409 
Q 2525 409 2770 889 
Q 3016 1369 3016 2328 
Q 3016 3291 2770 3770 
Q 2525 4250 2034 4250 
z
M 2034 4750 
Q 2819 4750 3233 4129 
Q 3647 3509 3647 2328 
Q 3647 1150 3233 529 
Q 2819 -91 2034 -91 
Q 1250 -91 836 529 
Q 422 1150 422 2328 
Q 422 3509 836 4129 
Q 1250 4750 2034 4750 
z
" transform="scale(0.015625)"/>
        <path id="DejaVuSans-2e" d="M 684 794 
L 1344 794 
L 1344 0 
L 684 0 
L 684 794 
z
" transform="scale(0.015625)"/>
        <path id="DejaVuSans-32" d="M 1228 531 
L 3431 531 
L 3431 0 
L 469 0 
L 469 531 
Q 828 903 1448 1529 
Q 2069 2156 2228 2338 
Q 2531 2678 2651 2914 
Q 2772 3150 2772 3378 
Q 2772 3750 2511 3984 
Q 2250 4219 1831 4219 
Q 1534 4219 1204 4116 
Q 875 4013 500 3803 
L 500 4441 
Q 881 4594 1212 4672 
Q 1544 4750 1819 4750 
Q 2544 4750 2975 4387 
Q 3406 4025 3406 3419 
Q 3406 3131 3298 2873 
Q 3191 2616 2906 2266 
Q 2828 2175 2409 1742 
Q 1991 1309 1228 531 
z
" transform="scale(0.015625)"/>
       </defs>
       <use xlink:href="#DejaVuSans-30"/>
       <use xlink:href="#DejaVuSans-2e" x="63.623047"/>
       <use xlink:href="#DejaVuSans-32" x="95.410156"/>
      </g>
     </g>
    </g>
    <g id="xtick_2">
     <g id="line2d_2">
      <g>
       <use xlink:href="#mca9b4cfbec" x="129.024444" y="303.64" style="stroke: #000000; stroke-width: 0.8"/>
      </g>
     </g>
     <g id="text_2">
      <!-- 0.3 -->
      <g transform="translate(121.072882 318.238437) scale(0.1 -0.1)">
       <defs>
        <path id="DejaVuSans-33" d="M 2597 2516 
Q 3050 2419 3304 2112 
Q 3559 1806 3559 1356 
Q 3559 666 3084 287 
Q 2609 -91 1734 -91 
Q 1441 -91 1130 -33 
Q 819 25 488 141 
L 488 750 
Q 750 597 1062 519 
Q 1375 441 1716 441 
Q 2309 441 2620 675 
Q 2931 909 2931 1356 
Q 2931 1769 2642 2001 
Q 2353 2234 1838 2234 
L 1294 2234 
L 1294 2753 
L 1863 2753 
Q 2328 2753 2575 2939 
Q 2822 3125 2822 3475 
Q 2822 3834 2567 4026 
Q 2313 4219 1838 4219 
Q 1578 4219 1281 4162 
Q 984 4106 628 3988 
L 628 4550 
Q 988 4650 1302 4700 
Q 1616 4750 1894 4750 
Q 2613 4750 3031 4423 
Q 3450 4097 3450 3541 
Q 3450 3153 3228 2886 
Q 3006 2619 2597 2516 
z
" transform="scale(0.015625)"/>
       </defs>
       <use xlink:href="#DejaVuSans-30"/>
       <use xlink:href="#DejaVuSans-2e" x="63.623047"/>
       <use xlink:href="#DejaVuSans-33" x="95.410156"/>
      </g>
     </g>
    </g>
    <g id="xtick_3">
     <g id="line2d_3">
      <g>
       <use xlink:href="#mca9b4cfbec" x="191.635556" y="303.64" style="stroke: #000000; stroke-width: 0.8"/>
      </g>
     </g>
     <g id="text_3">
      <!-- 0.4 -->
      <g transform="translate(183.683993 318.238437) scale(0.1 -0.1)">
       <defs>
        <path id="DejaVuSans-34" d="M 2419 4116 
L 825 1625 
L 2419 1625 
L 2419 4116 
z
M 2253 4666 
L 3047 4666 
L 3047 1625 
L 3713 1625 
L 3713 1100 
L 3047 1100 
L 3047 0 
L 2419 0 
L 2419 1100 
L 313 1100 
L 313 1709 
L 2253 4666 
z
" transform="scale(0.015625)"/>
       </defs>
       <use xlink:href="#DejaVuSans-30"/>
       <use xlink:href="#DejaVuSans-2e" x="63.623047"/>
       <use xlink:href="#DejaVuSans-34" x="95.410156"/>
      </g>
     </g>
    </g>
    <g id="xtick_4">
     <g id="line2d_4">
      <g>
       <use xlink:href="#mca9b4cfbec" x="254.246667" y="303.64" style="stroke: #000000; stroke-width: 0.8"/>
      </g>
     </g>
     <g id="text_4">
      <!-- 0.5 -->
      <g transform="translate(246.295104 318.238437) scale(0.1 -0.1)">
       <defs>
        <path id="DejaVuSans-35" d="M 691 4666 
L 3169 4666 
L 3169 4134 
L 1269 4134 
L 1269 2991 
Q 1406 3038 1543 3061 
Q 1681 3084 1819 3084 
Q 2600 3084 3056 2656 
Q 3513 2228 3513 1497 
Q 3513 744 3044 326 
Q 2575 -91 1722 -91 
Q 1428 -91 1123 -41 
Q 819 9 494 109 
L 494 744 
Q 775 591 1075 516 
Q 1375 441 1709 441 
Q 2250 441 2565 725 
Q 2881 1009 2881 1497 
Q 2881 1984 2565 2268 
Q 2250 2553 1709 2553 
Q 1456 2553 1204 2497 
Q 953 2441 691 2322 
L 691 4666 
z
" transform="scale(0.015625)"/>
       </defs>
       <use xlink:href="#DejaVuSans-30"/>
       <use xlink:href="#DejaVuSans-2e" x="63.623047"/>
       <use xlink:href="#DejaVuSans-35" x="95.410156"/>
      </g>
     </g>
    </g>
    <g id="xtick_5">
     <g id="line2d_5">
      <g>
       <use xlink:href="#mca9b4cfbec" x="316.857778" y="303.64" style="stroke: #000000; stroke-width: 0.8"/>
      </g>
     </g>
     <g id="text_5">
      <!-- 0.6 -->
      <g transform="translate(308.906215 318.238437) scale(0.1 -0.1)">
       <defs>
        <path id="DejaVuSans-36" d="M 2113 2584 
Q 1688 2584 1439 2293 
Q 1191 2003 1191 1497 
Q 1191 994 1439 701 
Q 1688 409 2113 409 
Q 2538 409 2786 701 
Q 3034 994 3034 1497 
Q 3034 2003 2786 2293 
Q 2538 2584 2113 2584 
z
M 3366 4563 
L 3366 3988 
Q 3128 4100 2886 4159 
Q 2644 4219 2406 4219 
Q 1781 4219 1451 3797 
Q 1122 3375 1075 2522 
Q 1259 2794 1537 2939 
Q 1816 3084 2150 3084 
Q 2853 3084 3261 2657 
Q 3669 2231 3669 1497 
Q 3669 778 3244 343 
Q 2819 -91 2113 -91 
Q 1303 -91 875 529 
Q 447 1150 447 2328 
Q 447 3434 972 4092 
Q 1497 4750 2381 4750 
Q 2619 4750 2861 4703 
Q 3103 4656 3366 4563 
z
" transform="scale(0.015625)"/>
       </defs>
       <use xlink:href="#DejaVuSans-30"/>
       <use xlink:href="#DejaVuSans-2e" x="63.623047"/>
       <use xlink:href="#DejaVuSans-36" x="95.410156"/>
      </g>
     </g>
    </g>
    <g id="xtick_6">
     <g id="line2d_6">
      <g>
       <use xlink:href="#mca9b4cfbec" x="379.468889" y="303.64" style="stroke: #000000; stroke-width: 0.8"/>
      </g>
     </g>
     <g id="text_6">
      <!-- 0.7 -->
      <g transform="translate(371.517326 318.238437) scale(0.1 -0.1)">
       <defs>
        <path id="DejaVuSans-37" d="M 525 4666 
L 3525 4666 
L 3525 4397 
L 1831 0 
L 1172 0 
L 2766 4134 
L 525 4134 
L 525 4666 
z
" transform="scale(0.015625)"/>
       </defs>
       <use xlink:href="#DejaVuSans-30"/>
       <use xlink:href="#DejaVuSans-2e" x="63.623047"/>
       <use xlink:href="#DejaVuSans-37" x="95.410156"/>
      </g>
     </g>
    </g>
    <g id="xtick_7">
     <g id="line2d_7">
      <g>
       <use xlink:href="#mca9b4cfbec" x="442.08" y="303.64" style="stroke: #000000; stroke-width: 0.8"/>
      </g>
     </g>
     <g id="text_7">
      <!-- 0.8 -->
      <g transform="translate(434.128438 318.238437) scale(0.1 -0.1)">
       <defs>
        <path id="DejaVuSans-38" d="M 2034 2216 
Q 1584 2216 1326 1975 
Q 1069 1734 1069 1313 
Q 1069 891 1326 650 
Q 1584 409 2034 409 
Q 2484 409 2743 651 
Q 3003 894 3003 1313 
Q 3003 1734 2745 1975 
Q 2488 2216 2034 2216 
z
M 1403 2484 
Q 997 2584 770 2862 
Q 544 3141 544 3541 
Q 544 4100 942 4425 
Q 1341 4750 2034 4750 
Q 2731 4750 3128 4425 
Q 3525 4100 3525 3541 
Q 3525 3141 3298 2862 
Q 3072 2584 2669 2484 
Q 3125 2378 3379 2068 
Q 3634 1759 3634 1313 
Q 3634 634 3220 271 
Q 2806 -91 2034 -91 
Q 1263 -91 848 271 
Q 434 634 434 1313 
Q 434 1759 690 2068 
Q 947 2378 1403 2484 
z
M 1172 3481 
Q 1172 3119 1398 2916 
Q 1625 2713 2034 2713 
Q 2441 2713 2670 2916 
Q 2900 3119 2900 3481 
Q 2900 3844 2670 4047 
Q 2441 4250 2034 4250 
Q 1625 4250 1398 4047 
Q 1172 3844 1172 3481 
z
" transform="scale(0.015625)"/>
       </defs>
       <use xlink:href="#DejaVuSans-30"/>
       <use xlink:href="#DejaVuSans-2e" x="63.623047"/>
       <use xlink:href="#DejaVuSans-38" x="95.410156"/>
      </g>
     </g>
    </g>
    <g id="text_8">
     <!-- X -->
     <g transform="translate(241.43 331.916562) scale(0.1 -0.1)">
      <defs>
       <path id="DejaVuSans-58" d="M 403 4666 
L 1081 4666 
L 2241 2931 
L 3406 4666 
L 4084 4666 
L 2584 2425 
L 4184 0 
L 3506 0 
L 2194 1984 
L 872 0 
L 191 0 
L 1856 2491 
L 403 4666 
z
" transform="scale(0.015625)"/>
      </defs>
      <use xlink:href="#DejaVuSans-58"/>
     </g>
    </g>
   </g>
   <g id="matplotlib.axis_2">
    <g id="ytick_1">
     <g id="line2d_8">
      <defs>
       <path id="m55f791786a" d="M 0 0 
L -3.5 0 
" style="stroke: #000000; stroke-width: 0.8"/>
      </defs>
      <g>
       <use xlink:href="#m55f791786a" x="47.63" y="303.64" style="stroke: #000000; stroke-width: 0.8"/>
      </g>
     </g>
     <g id="text_9">
      <!-- 2.0 -->
      <g transform="translate(24.726875 307.439219) scale(0.1 -0.1)">
       <use xlink:href="#DejaVuSans-32"/>
       <use xlink:href="#DejaVuSans-2e" x="63.623047"/>
       <use xlink:href="#DejaVuSans-30" x="95.410156"/>
      </g>
     </g>
    </g>
    <g id="ytick_2">
     <g id="line2d_9">
      <g>
       <use xlink:href="#m55f791786a" x="47.63" y="248.288" style="stroke: #000000; stroke-width: 0.8"/>
      </g>
     </g>
     <g id="text_10">
      <!-- 2.5 -->
      <g transform="translate(24.726875 252.087219) scale(0.1 -0.1)">
       <use xlink:href="#DejaVuSans-32"/>
       <use xlink:href="#DejaVuSans-2e" x="63.623047"/>
       <use xlink:href="#DejaVuSans-35" x="95.410156"/>
      </g>
     </g>
    </g>
    <g id="ytick_3">
     <g id="line2d_10">
      <g>
       <use xlink:href="#m55f791786a" x="47.63" y="192.936" style="stroke: #000000; stroke-width: 0.8"/>
      </g>
     </g>
     <g id="text_11">
      <!-- 3.0 -->
      <g transform="translate(24.726875 196.735219) scale(0.1 -0.1)">
       <use xlink:href="#DejaVuSans-33"/>
       <use xlink:href="#DejaVuSans-2e" x="63.623047"/>
       <use xlink:href="#DejaVuSans-30" x="95.410156"/>
      </g>
     </g>
    </g>
    <g id="ytick_4">
     <g id="line2d_11">
      <g>
       <use xlink:href="#m55f791786a" x="47.63" y="137.584" style="stroke: #000000; stroke-width: 0.8"/>
      </g>
     </g>
     <g id="text_12">
      <!-- 3.5 -->
      <g transform="translate(24.726875 141.383219) scale(0.1 -0.1)">
       <use xlink:href="#DejaVuSans-33"/>
       <use xlink:href="#DejaVuSans-2e" x="63.623047"/>
       <use xlink:href="#DejaVuSans-35" x="95.410156"/>
      </g>
     </g>
    </g>
    <g id="ytick_5">
     <g id="line2d_12">
      <g>
       <use xlink:href="#m55f791786a" x="47.63" y="82.232" style="stroke: #000000; stroke-width: 0.8"/>
      </g>
     </g>
     <g id="text_13">
      <!-- 4.0 -->
      <g transform="translate(24.726875 86.031219) scale(0.1 -0.1)">
       <use xlink:href="#DejaVuSans-34"/>
       <use xlink:href="#DejaVuSans-2e" x="63.623047"/>
       <use xlink:href="#DejaVuSans-30" x="95.410156"/>
      </g>
     </g>
    </g>
    <g id="ytick_6">
     <g id="line2d_13">
      <g>
       <use xlink:href="#m55f791786a" x="47.63" y="26.88" style="stroke: #000000; stroke-width: 0.8"/>
      </g>
     </g>
     <g id="text_14">
      <!-- 4.5 -->
      <g transform="translate(24.726875 30.679219) scale(0.1 -0.1)">
       <use xlink:href="#DejaVuSans-34"/>
       <use xlink:href="#DejaVuSans-2e" x="63.623047"/>
       <use xlink:href="#DejaVuSans-35" x="95.410156"/>
      </g>
     </g>
    </g>
    <g id="text_15">
     <!-- Voltage (V) -->
     <g transform="translate(18.647188 192.927187) rotate(-90) scale(0.1 -0.1)">
      <defs>
       <path id="DejaVuSans-56" d="M 1831 0 
L 50 4666 
L 709 4666 
L 2188 738 
L 3669 4666 
L 4325 4666 
L 2547 0 
L 1831 0 
z
" transform="scale(0.015625)"/>
       <path id="DejaVuSans-6f" d="M 1959 3097 
Q 1497 3097 1228 2736 
Q 959 2375 959 1747 
Q 959 1119 1226 758 
Q 1494 397 1959 397 
Q 2419 397 2687 759 
Q 2956 1122 2956 1747 
Q 2956 2369 2687 2733 
Q 2419 3097 1959 3097 
z
M 1959 3584 
Q 2709 3584 3137 3096 
Q 3566 2609 3566 1747 
Q 3566 888 3137 398 
Q 2709 -91 1959 -91 
Q 1206 -91 779 398 
Q 353 888 353 1747 
Q 353 2609 779 3096 
Q 1206 3584 1959 3584 
z
" transform="scale(0.015625)"/>
       <path id="DejaVuSans-6c" d="M 603 4863 
L 1178 4863 
L 1178 0 
L 603 0 
L 603 4863 
z
" transform="scale(0.015625)"/>
       <path id="DejaVuSans-74" d="M 1172 4494 
L 1172 3500 
L 2356 3500 
L 2356 3053 
L 1172 3053 
L 1172 1153 
Q 1172 725 1289 603 
Q 1406 481 1766 481 
L 2356 481 
L 2356 0 
L 1766 0 
Q 1100 0 847 248 
Q 594 497 594 1153 
L 594 3053 
L 172 3053 
L 172 3500 
L 594 3500 
L 594 4494 
L 1172 4494 
z
" transform="scale(0.015625)"/>
       <path id="DejaVuSans-61" d="M 2194 1759 
Q 1497 1759 1228 1600 
Q 959 1441 959 1056 
Q 959 750 1161 570 
Q 1363 391 1709 391 
Q 2188 391 2477 730 
Q 2766 1069 2766 1631 
L 2766 1759 
L 2194 1759 
z
M 3341 1997 
L 3341 0 
L 2766 0 
L 2766 531 
Q 2569 213 2275 61 
Q 1981 -91 1556 -91 
Q 1019 -91 701 211 
Q 384 513 384 1019 
Q 384 1609 779 1909 
Q 1175 2209 1959 2209 
L 2766 2209 
L 2766 2266 
Q 2766 2663 2505 2880 
Q 2244 3097 1772 3097 
Q 1472 3097 1187 3025 
Q 903 2953 641 2809 
L 641 3341 
Q 956 3463 1253 3523 
Q 1550 3584 1831 3584 
Q 2591 3584 2966 3190 
Q 3341 2797 3341 1997 
z
" transform="scale(0.015625)"/>
       <path id="DejaVuSans-67" d="M 2906 1791 
Q 2906 2416 2648 2759 
Q 2391 3103 1925 3103 
Q 1463 3103 1205 2759 
Q 947 2416 947 1791 
Q 947 1169 1205 825 
Q 1463 481 1925 481 
Q 2391 481 2648 825 
Q 2906 1169 2906 1791 
z
M 3481 434 
Q 3481 -459 3084 -895 
Q 2688 -1331 1869 -1331 
Q 1566 -1331 1297 -1286 
Q 1028 -1241 775 -1147 
L 775 -588 
Q 1028 -725 1275 -790 
Q 1522 -856 1778 -856 
Q 2344 -856 2625 -561 
Q 2906 -266 2906 331 
L 2906 616 
Q 2728 306 2450 153 
Q 2172 0 1784 0 
Q 1141 0 747 490 
Q 353 981 353 1791 
Q 353 2603 747 3093 
Q 1141 3584 1784 3584 
Q 2172 3584 2450 3431 
Q 2728 3278 2906 2969 
L 2906 3500 
L 3481 3500 
L 3481 434 
z
" transform="scale(0.015625)"/>
       <path id="DejaVuSans-65" d="M 3597 1894 
L 3597 1613 
L 953 1613 
Q 991 1019 1311 708 
Q 1631 397 2203 397 
Q 2534 397 2845 478 
Q 3156 559 3463 722 
L 3463 178 
Q 3153 47 2828 -22 
Q 2503 -91 2169 -91 
Q 1331 -91 842 396 
Q 353 884 353 1716 
Q 353 2575 817 3079 
Q 1281 3584 2069 3584 
Q 2775 3584 3186 3129 
Q 3597 2675 3597 1894 
z
M 3022 2063 
Q 3016 2534 2758 2815 
Q 2500 3097 2075 3097 
Q 1594 3097 1305 2825 
Q 1016 2553 972 2059 
L 3022 2063 
z
" transform="scale(0.015625)"/>
       <path id="DejaVuSans-20" transform="scale(0.015625)"/>
       <path id="DejaVuSans-28" d="M 1984 4856 
Q 1566 4138 1362 3434 
Q 1159 2731 1159 2009 
Q 1159 1288 1364 580 
Q 1569 -128 1984 -844 
L 1484 -844 
Q 1016 -109 783 600 
Q 550 1309 550 2009 
Q 550 2706 781 3412 
Q 1013 4119 1484 4856 
L 1984 4856 
z
" transform="scale(0.015625)"/>
       <path id="DejaVuSans-29" d="M 513 4856 
L 1013 4856 
Q 1481 4119 1714 3412 
Q 1947 2706 1947 2009 
Q 1947 1309 1714 600 
Q 1481 -109 1013 -844 
L 513 -844 
Q 928 -128 1133 580 
Q 1338 1288 1338 2009 
Q 1338 2731 1133 3434 
Q 928 4138 513 4856 
z
" transform="scale(0.015625)"/>
      </defs>
      <use xlink:href="#DejaVuSans-56"/>
      <use xlink:href="#DejaVuSans-6f" x="60.658203"/>
      <use xlink:href="#DejaVuSans-6c" x="121.839844"/>
      <use xlink:href="#DejaVuSans-74" x="149.623047"/>
      <use xlink:href="#DejaVuSans-61" x="188.832031"/>
      <use xlink:href="#DejaVuSans-67" x="250.111328"/>
      <use xlink:href="#DejaVuSans-65" x="313.587891"/>
      <use xlink:href="#DejaVuSans-20" x="375.111328"/>
      <use xlink:href="#DejaVuSans-28" x="406.898438"/>
      <use xlink:href="#DejaVuSans-56" x="445.912109"/>
      <use xlink:href="#DejaVuSans-29" x="514.320312"/>
     </g>
    </g>
   </g>
   <g id="line2d_14">
    <path d="M 48.621866 62.898173 
L 51.280209 66.539976 
L 55.043371 70.017555 
L 60.125296 74.062485 
L 65.456034 77.427738 
L 70.792063 80.116125 
L 76.132408 82.252332 
L 81.475537 84.032293 
L 86.821173 85.491634 
L 92.169036 86.665979 
L 97.517177 87.804699 
L 102.86671 88.765296 
L 108.217357 89.583395 
L 113.566473 90.59743 
L 118.915171 91.664901 
L 124.264008 92.714559 
L 129.612289 93.835467 
L 134.961683 94.813877 
L 140.309824 95.952597 
L 145.657965 97.091317 
L 151.005968 98.247849 
L 156.35383 99.422193 
L 161.702111 100.543101 
L 167.051923 101.468074 
L 172.399368 102.695855 
L 177.746952 103.905824 
L 183.094537 105.115793 
L 188.441703 106.379199 
L 193.787895 107.767291 
L 199.133809 109.191007 
L 204.479862 110.596911 
L 209.825497 112.056252 
L 215.169601 113.711528 
L 220.514679 115.242118 
L 225.862681 116.39865 
L 231.208177 117.875803 
L 236.552003 119.566703 
L 241.895967 121.239791 
L 247.238122 123.144439 
L 252.579859 125.102523 
L 257.921039 127.131856 
L 263.261106 129.303687 
L 268.600615 131.546768 
L 273.941238 133.64735 
L 279.279356 136.068553 
L 284.618587 138.347258 
L 289.954338 141.07127 
L 295.290506 143.741845 
L 300.6257 146.537106 
L 305.962008 149.189868 
L 311.296366 152.092002 
L 316.62961 155.136635 
L 321.963412 158.110018 
L 327.295404 161.314961 
L 332.628787 164.341781 
L 337.960501 167.582348 
L 343.293968 170.598481 
L 348.318407 173.097058 
L 353.963437 176.306564 
L 359.296542 179.369008 
L 364.62923 182.48489 
L 369.962057 185.582959 
L 375.294327 188.752277 
L 380.627711 191.779097 
L 385.958728 195.108726 
L 391.289606 198.456167 
L 396.620066 201.857045 
L 401.950388 205.275735 
L 407.280709 208.694425 
L 412.127147 211.713803 
L 415.016429 215.902774 
L 415.221129 220.86721 
L 415.187437 225.177779 
L 415.393158 230.011592 
L 415.120054 233.798915 
L 415.326796 238.502105 
L 415.892657 243.990164 
L 415.732623 248.88816 
L 415.698932 253.198729 
L 415.665241 257.509297 
L 415.63155 261.819865 
L 415.597858 266.130433 
L 415.564167 270.441002 
L 415.530476 274.75157 
L 415.496784 279.062138 
L 415.463093 283.372706 
L 415.429912 287.617963 
L 415.881682 292.12597 
L 415.797236 297.010161 
L 415.747623 303.092239 
" clip-path="url(#p2e4aa991cf)" style="fill: none; stroke: #1f77b4; stroke-width: 1.5; stroke-linecap: square"/>
   </g>
   <g id="line2d_15">
    <path d="M 49.522801 90.93992 
L 51.522327 94.734263 
L 55.551837 98.426021 
L 60.393572 102.047058 
L 65.725704 105.234189 
L 71.063264 107.726641 
L 76.404444 109.755974 
L 81.749522 111.286564 
L 87.095854 112.656843 
L 92.442324 114.009311 
L 97.788934 115.343965 
L 103.137772 116.393624 
L 108.486748 117.425471 
L 113.832801 118.831375 
L 119.179133 120.201654 
L 124.52616 121.482872 
L 129.872491 122.853152 
L 135.218823 124.223431 
L 140.565293 125.575898 
L 145.911485 126.96399 
L 151.257399 128.387706 
L 156.604148 129.704549 
L 161.949922 131.146077 
L 167.29695 132.427296 
L 172.642168 133.940073 
L 177.98641 135.577537 
L 183.330793 137.197188 
L 188.674758 138.870276 
L 194.018583 140.561176 
L 199.363244 142.145203 
L 204.706373 143.925164 
L 210.049363 145.722938 
L 215.392492 147.5029 
L 220.734508 149.425359 
L 226.077498 151.223133 
L 231.418817 153.234654 
L 236.760833 155.157114 
L 242.101735 157.222072 
L 247.442915 159.251405 
L 252.782703 161.458861 
L 258.123326 163.559443 
L 263.463393 165.731275 
L 268.802763 167.992167 
L 292.579055 179.109482 
L 297.913135 182.047241 
L 303.245962 185.145311 
L 308.578789 188.24338 
L 313.911616 191.341449 
L 319.244582 194.421706 
L 324.57727 197.537587 
L 329.909818 200.671281 
L 335.242367 203.804975 
L 340.575054 206.920856 
L 345.90816 209.983301 
L 351.240988 213.08137 
L 356.572701 216.321937 
L 361.904135 219.598129 
L 367.235431 222.892133 
L 372.566309 226.239574 
L 377.894402 229.943261 
L 382.975826 234.052314 
L 386.838785 238.283481 
L 389.242862 242.242356 
L 390.909813 247.048027 
L 391.483714 251.507427 
L 392.549966 255.282559 
L 392.516275 259.593127 
L 392.482583 263.903695 
L 392.690346 268.476262 
L 392.415201 272.524832 
L 392.627252 276.548781 
L 392.59356 280.859349 
L 392.434344 285.652847 
L 393.095288 291.437286 
L 392.954261 297.018953 
L 392.834045 302.015043 
" clip-path="url(#p2e4aa991cf)" style="fill: none; stroke: #ff7f0e; stroke-width: 1.5; stroke-linecap: square"/>
   </g>
   <g id="line2d_16">
    <path d="M 48.832579 116.361155 
L 51.410046 121.501756 
L 55.088402 125.985837 
L 59.683776 129.972811 
L 65.014847 133.295474 
L 70.352171 135.818262 
L 75.693245 137.861125 
L 81.036126 139.672913 
L 86.378728 141.520251 
L 91.721192 143.385364 
L 97.063378 145.286026 
L 102.405425 147.204464 
L 107.748305 149.016252 
L 113.090491 150.916915 
L 118.43365 152.693153 
L 123.775419 154.647141 
L 129.117883 156.512254 
L 134.460485 158.359592 
L 139.802532 160.27803 
L 145.143885 162.285342 
L 150.485793 164.221555 
L 155.827284 166.211093 
L 161.169192 168.147306 
L 166.513601 169.763569 
L 171.854536 171.824207 
L 177.19575 173.849295 
L 182.536407 175.945483 
L 187.876371 178.130546 
L 193.216194 180.333384 
L 198.555741 182.571772 
L 203.896537 184.650185 
L 209.236362 186.853022 
L 214.575352 189.16251 
L 219.913787 191.543098 
L 225.253333 193.781486 
L 230.592462 196.073199 
L 233.98844 197.742708 
L 257.661914 208.662926 
L 263.582885 212.17278 
L 268.91868 214.891093 
L 274.253225 217.769381 
L 279.587769 220.647669 
L 284.923704 223.348207 
L 290.25811 226.24427 
L 295.592099 229.193658 
L 300.924004 232.409671 
L 306.256603 235.536809 
L 311.588787 238.717272 
L 316.920136 242.004385 
L 322.251485 245.291498 
L 327.582835 248.578611 
L 332.911545 252.203449 
L 337.749665 256.286961 
L 341.856348 260.489931 
L 345.718663 264.80349 
L 349.093795 269.13999 
L 351.980599 273.646072 
L 354.623294 278.229614 
L 356.782895 282.313066 
L 358.698007 286.522859 
L 360.606369 291.59622 
L 362.204521 296.303171 
L 363.941449 301.057104 
" clip-path="url(#p2e4aa991cf)" style="fill: none; stroke: #2ca02c; stroke-width: 1.5; stroke-linecap: square"/>
   </g>
   <g id="line2d_17">
    <path d="M 48.893008 171.51756 
L 51.414048 175.52267 
L 54.43407 179.127712 
L 59.270879 183.379099 
L 64.596532 187.394987 
L 69.925659 190.9665 
L 75.257286 194.218063 
L 80.587247 197.682927 
L 85.916929 201.18334 
L 91.247306 204.594878 
L 96.578933 207.846441 
L 101.910977 211.044679 
L 107.245244 213.958517 
L 112.577149 217.17453 
L 117.908915 220.408318 
L 123.241238 223.571006 
L 128.573281 226.769244 
L 133.905465 229.949707 
L 139.237787 233.112395 
L 144.573442 235.848483 
L 149.907293 238.815646 
L 153.780649 241.716686 
L 176.903949 253.301406 
L 182.397247 256.637901 
L 187.730125 259.729489 
L 193.063002 262.821077 
L 198.39588 265.912665 
L 203.728897 268.986478 
L 209.061635 272.095841 
L 214.394235 275.222979 
L 219.726835 278.350117 
L 225.059574 281.45948 
L 230.392729 284.515518 
L 235.724958 287.690056 
L 241.056262 290.983094 
L 246.389695 294.003582 
L 251.7216 297.219595 
L 256.1607 300.431101 
L 260.426144 303.486449 
" clip-path="url(#p2e4aa991cf)" style="fill: none; stroke: #d62728; stroke-width: 1.5; stroke-linecap: square"/>
   </g>
   <g id="line2d_18">
    <path d="M 48.816211 217.838712 
L 50.042311 222.659736 
L 53.07745 227.50147 
L 56.695832 231.870143 
L 60.801304 236.227903 
L 65.392767 240.715342 
L 69.986572 244.902976 
L 74.337068 249.065962 
L 78.687564 253.228948 
L 83.279586 257.644695 
L 88.113747 262.234992 
L 92.706414 266.568183 
L 108.910216 280.747327 
L 113.989546 285.124186 
L 119.312421 289.495574 
L 124.637936 293.529237 
L 129.963816 297.516056 
L 135.048469 301.211873 
" clip-path="url(#p2e4aa991cf)" style="fill: none; stroke: #9467bd; stroke-width: 1.5; stroke-linecap: square"/>
   </g>
   <g id="line2d_19">
    <defs>
     <path id="m751c40bf6a" d="M 0 1.5 
C 0.397805 1.5 0.77937 1.341951 1.06066 1.06066 
C 1.341951 0.77937 1.5 0.397805 1.5 0 
C 1.5 -0.397805 1.341951 -0.77937 1.06066 -1.06066 
C 0.77937 -1.341951 0.397805 -1.5 0 -1.5 
C -0.397805 -1.5 -0.77937 -1.341951 -1.06066 -1.06066 
C -1.341951 -0.77937 -1.5 -0.397805 -1.5 0 
C -1.5 0.397805 -1.341951 0.77937 -1.06066 1.06066 
C -0.77937 1.341951 -0.397805 1.5 0 1.5 
z
" style="stroke: #000000"/>
    </defs>
    <g clip-path="url(#p2e4aa991cf)">
     <use xlink:href="#m751c40bf6a" x="47.943056" y="59.850659" style="stroke: #000000"/>
     <use xlink:href="#m751c40bf6a" x="57.334722" y="71.484871" style="stroke: #000000"/>
     <use xlink:href="#m751c40bf6a" x="66.726389" y="77.757273" style="stroke: #000000"/>
     <use xlink:href="#m751c40bf6a" x="76.118056" y="81.821196" style="stroke: #000000"/>
     <use xlink:href="#m751c40bf6a" x="85.509722" y="84.703726" style="stroke: #000000"/>
     <use xlink:href="#m751c40bf6a" x="94.901389" y="86.963804" style="stroke: #000000"/>
     <use xlink:href="#m751c40bf6a" x="104.293056" y="88.909078" style="stroke: #000000"/>
     <use xlink:href="#m751c40bf6a" x="113.684722" y="90.712425" style="stroke: #000000"/>
     <use xlink:href="#m751c40bf6a" x="123.076389" y="92.478046" style="stroke: #000000"/>
     <use xlink:href="#m751c40bf6a" x="132.468056" y="94.268844" style="stroke: #000000"/>
     <use xlink:href="#m751c40bf6a" x="141.859722" y="96.115315" style="stroke: #000000"/>
     <use xlink:href="#m751c40bf6a" x="151.251389" y="98.030907" style="stroke: #000000"/>
     <use xlink:href="#m751c40bf6a" x="160.643056" y="100.023287" style="stroke: #000000"/>
     <use xlink:href="#m751c40bf6a" x="170.034722" y="102.098262" style="stroke: #000000"/>
     <use xlink:href="#m751c40bf6a" x="179.426389" y="104.261117" style="stroke: #000000"/>
     <use xlink:href="#m751c40bf6a" x="188.818056" y="106.51722" style="stroke: #000000"/>
     <use xlink:href="#m751c40bf6a" x="198.209722" y="108.872521" style="stroke: #000000"/>
     <use xlink:href="#m751c40bf6a" x="207.601389" y="111.334197" style="stroke: #000000"/>
     <use xlink:href="#m751c40bf6a" x="216.993056" y="113.911703" style="stroke: #000000"/>
     <use xlink:href="#m751c40bf6a" x="226.384722" y="116.618687" style="stroke: #000000"/>
     <use xlink:href="#m751c40bf6a" x="235.776389" y="119.475714" style="stroke: #000000"/>
     <use xlink:href="#m751c40bf6a" x="245.168056" y="122.512885" style="stroke: #000000"/>
     <use xlink:href="#m751c40bf6a" x="254.559722" y="125.769239" style="stroke: #000000"/>
     <use xlink:href="#m751c40bf6a" x="263.951389" y="129.289897" style="stroke: #000000"/>
     <use xlink:href="#m751c40bf6a" x="273.343056" y="133.12267" style="stroke: #000000"/>
     <use xlink:href="#m751c40bf6a" x="282.734722" y="137.310436" style="stroke: #000000"/>
     <use xlink:href="#m751c40bf6a" x="292.126389" y="141.874868" style="stroke: #000000"/>
     <use xlink:href="#m751c40bf6a" x="301.518056" y="146.795872" style="stroke: #000000"/>
     <use xlink:href="#m751c40bf6a" x="310.909722" y="152.000539" style="stroke: #000000"/>
     <use xlink:href="#m751c40bf6a" x="320.301389" y="157.377279" style="stroke: #000000"/>
     <use xlink:href="#m751c40bf6a" x="329.693056" y="162.814102" style="stroke: #000000"/>
     <use xlink:href="#m751c40bf6a" x="339.084722" y="168.237479" style="stroke: #000000"/>
     <use xlink:href="#m751c40bf6a" x="348.476389" y="173.627673" style="stroke: #000000"/>
     <use xlink:href="#m751c40bf6a" x="357.868056" y="179.008688" style="stroke: #000000"/>
     <use xlink:href="#m751c40bf6a" x="367.259722" y="184.427743" style="stroke: #000000"/>
     <use xlink:href="#m751c40bf6a" x="376.651389" y="189.938077" style="stroke: #000000"/>
     <use xlink:href="#m751c40bf6a" x="386.043056" y="195.588839" style="stroke: #000000"/>
     <use xlink:href="#m751c40bf6a" x="395.434722" y="201.421057" style="stroke: #000000"/>
     <use xlink:href="#m751c40bf6a" x="404.826389" y="207.468065" style="stroke: #000000"/>
     <use xlink:href="#m751c40bf6a" x="414.218056" y="214.67961" style="stroke: #000000"/>
     <use xlink:href="#m751c40bf6a" x="415.755703" y="303.639982" style="stroke: #000000"/>
    </g>
   </g>
   <g id="line2d_20">
    <g clip-path="url(#p2e4aa991cf)">
     <use xlink:href="#m751c40bf6a" x="47.943056" y="81.255019" style="stroke: #000000"/>
     <use xlink:href="#m751c40bf6a" x="57.334722" y="99.673408" style="stroke: #000000"/>
     <use xlink:href="#m751c40bf6a" x="66.726389" y="105.897396" style="stroke: #000000"/>
     <use xlink:href="#m751c40bf6a" x="76.118056" y="109.890742" style="stroke: #000000"/>
     <use xlink:href="#m751c40bf6a" x="85.509722" y="112.627893" style="stroke: #000000"/>
     <use xlink:href="#m751c40bf6a" x="94.901389" y="114.89463" style="stroke: #000000"/>
     <use xlink:href="#m751c40bf6a" x="104.293056" y="117.101694" style="stroke: #000000"/>
     <use xlink:href="#m751c40bf6a" x="113.684722" y="119.327152" style="stroke: #000000"/>
     <use xlink:href="#m751c40bf6a" x="123.076389" y="121.598619" style="stroke: #000000"/>
     <use xlink:href="#m751c40bf6a" x="132.468056" y="123.9326" style="stroke: #000000"/>
     <use xlink:href="#m751c40bf6a" x="141.859722" y="126.340396" style="stroke: #000000"/>
     <use xlink:href="#m751c40bf6a" x="151.251389" y="128.830236" style="stroke: #000000"/>
     <use xlink:href="#m751c40bf6a" x="160.643056" y="131.408491" style="stroke: #000000"/>
     <use xlink:href="#m751c40bf6a" x="170.034722" y="134.080381" style="stroke: #000000"/>
     <use xlink:href="#m751c40bf6a" x="179.426389" y="136.850479" style="stroke: #000000"/>
     <use xlink:href="#m751c40bf6a" x="188.818056" y="139.723052" style="stroke: #000000"/>
     <use xlink:href="#m751c40bf6a" x="198.209722" y="142.702298" style="stroke: #000000"/>
     <use xlink:href="#m751c40bf6a" x="207.601389" y="145.792535" style="stroke: #000000"/>
     <use xlink:href="#m751c40bf6a" x="216.993056" y="148.9983" style="stroke: #000000"/>
     <use xlink:href="#m751c40bf6a" x="226.384722" y="152.324599" style="stroke: #000000"/>
     <use xlink:href="#m751c40bf6a" x="235.776389" y="155.777113" style="stroke: #000000"/>
     <use xlink:href="#m751c40bf6a" x="245.168056" y="159.362675" style="stroke: #000000"/>
     <use xlink:href="#m751c40bf6a" x="254.559722" y="163.090642" style="stroke: #000000"/>
     <use xlink:href="#m751c40bf6a" x="263.951389" y="166.976907" style="stroke: #000000"/>
     <use xlink:href="#m751c40bf6a" x="273.343056" y="171.058099" style="stroke: #000000"/>
     <use xlink:href="#m751c40bf6a" x="282.734722" y="175.414639" style="stroke: #000000"/>
     <use xlink:href="#m751c40bf6a" x="292.126389" y="180.13201" style="stroke: #000000"/>
     <use xlink:href="#m751c40bf6a" x="301.518056" y="185.212175" style="stroke: #000000"/>
     <use xlink:href="#m751c40bf6a" x="310.909722" y="190.565464" style="stroke: #000000"/>
     <use xlink:href="#m751c40bf6a" x="320.301389" y="196.060394" style="stroke: #000000"/>
     <use xlink:href="#m751c40bf6a" x="329.693056" y="201.582817" style="stroke: #000000"/>
     <use xlink:href="#m751c40bf6a" x="339.084722" y="207.08683" style="stroke: #000000"/>
     <use xlink:href="#m751c40bf6a" x="348.476389" y="212.620503" style="stroke: #000000"/>
     <use xlink:href="#m751c40bf6a" x="357.868056" y="218.276187" style="stroke: #000000"/>
     <use xlink:href="#m751c40bf6a" x="367.259722" y="224.122045" style="stroke: #000000"/>
     <use xlink:href="#m751c40bf6a" x="376.651389" y="230.205982" style="stroke: #000000"/>
     <use xlink:href="#m751c40bf6a" x="386.043056" y="239.519482" style="stroke: #000000"/>
     <use xlink:href="#m751c40bf6a" x="392.449466" y="303.64" style="stroke: #000000"/>
    </g>
   </g>
   <g id="line2d_21">
    <g clip-path="url(#p2e4aa991cf)">
     <use xlink:href="#m751c40bf6a" x="47.943056" y="105.036544" style="stroke: #000000"/>
     <use xlink:href="#m751c40bf6a" x="57.334722" y="128.384968" style="stroke: #000000"/>
     <use xlink:href="#m751c40bf6a" x="66.726389" y="134.610064" style="stroke: #000000"/>
     <use xlink:href="#m751c40bf6a" x="76.118056" y="138.611105" style="stroke: #000000"/>
     <use xlink:href="#m751c40bf6a" x="85.509722" y="142.141224" style="stroke: #000000"/>
     <use xlink:href="#m751c40bf6a" x="94.901389" y="145.54763" style="stroke: #000000"/>
     <use xlink:href="#m751c40bf6a" x="104.293056" y="148.896833" style="stroke: #000000"/>
     <use xlink:href="#m751c40bf6a" x="113.684722" y="152.226065" style="stroke: #000000"/>
     <use xlink:href="#m751c40bf6a" x="123.076389" y="155.560936" style="stroke: #000000"/>
     <use xlink:href="#m751c40bf6a" x="132.468056" y="158.921304" style="stroke: #000000"/>
     <use xlink:href="#m751c40bf6a" x="141.859722" y="162.323478" style="stroke: #000000"/>
     <use xlink:href="#m751c40bf6a" x="151.251389" y="165.781259" style="stroke: #000000"/>
     <use xlink:href="#m751c40bf6a" x="160.643056" y="169.306341" style="stroke: #000000"/>
     <use xlink:href="#m751c40bf6a" x="170.034722" y="172.908741" style="stroke: #000000"/>
     <use xlink:href="#m751c40bf6a" x="179.426389" y="176.597093" style="stroke: #000000"/>
     <use xlink:href="#m751c40bf6a" x="188.818056" y="180.378984" style="stroke: #000000"/>
     <use xlink:href="#m751c40bf6a" x="198.209722" y="184.261176" style="stroke: #000000"/>
     <use xlink:href="#m751c40bf6a" x="207.601389" y="188.249773" style="stroke: #000000"/>
     <use xlink:href="#m751c40bf6a" x="216.993056" y="192.350477" style="stroke: #000000"/>
     <use xlink:href="#m751c40bf6a" x="226.384722" y="196.568637" style="stroke: #000000"/>
     <use xlink:href="#m751c40bf6a" x="235.776389" y="200.90931" style="stroke: #000000"/>
     <use xlink:href="#m751c40bf6a" x="245.168056" y="205.377314" style="stroke: #000000"/>
     <use xlink:href="#m751c40bf6a" x="254.559722" y="209.977056" style="stroke: #000000"/>
     <use xlink:href="#m751c40bf6a" x="263.951389" y="214.712543" style="stroke: #000000"/>
     <use xlink:href="#m751c40bf6a" x="273.343056" y="219.587417" style="stroke: #000000"/>
     <use xlink:href="#m751c40bf6a" x="282.734722" y="224.606569" style="stroke: #000000"/>
     <use xlink:href="#m751c40bf6a" x="292.126389" y="229.781015" style="stroke: #000000"/>
     <use xlink:href="#m751c40bf6a" x="301.518056" y="235.120673" style="stroke: #000000"/>
     <use xlink:href="#m751c40bf6a" x="310.909722" y="240.608872" style="stroke: #000000"/>
     <use xlink:href="#m751c40bf6a" x="320.301389" y="246.232889" style="stroke: #000000"/>
     <use xlink:href="#m751c40bf6a" x="329.693056" y="252.021308" style="stroke: #000000"/>
     <use xlink:href="#m751c40bf6a" x="339.084722" y="260.290415" style="stroke: #000000"/>
     <use xlink:href="#m751c40bf6a" x="348.476389" y="271.980835" style="stroke: #000000"/>
     <use xlink:href="#m751c40bf6a" x="357.868056" y="288.804664" style="stroke: #000000"/>
     <use xlink:href="#m751c40bf6a" x="362.81297" y="303.639997" style="stroke: #000000"/>
    </g>
   </g>
   <g id="line2d_22">
    <g clip-path="url(#p2e4aa991cf)">
     <use xlink:href="#m751c40bf6a" x="47.943056" y="152.591909" style="stroke: #000000"/>
     <use xlink:href="#m751c40bf6a" x="57.334722" y="181.443126" style="stroke: #000000"/>
     <use xlink:href="#m751c40bf6a" x="66.726389" y="188.571642" style="stroke: #000000"/>
     <use xlink:href="#m751c40bf6a" x="76.118056" y="194.947013" style="stroke: #000000"/>
     <use xlink:href="#m751c40bf6a" x="85.509722" y="201.074582" style="stroke: #000000"/>
     <use xlink:href="#m751c40bf6a" x="94.901389" y="207.089164" style="stroke: #000000"/>
     <use xlink:href="#m751c40bf6a" x="104.293056" y="213.008714" style="stroke: #000000"/>
     <use xlink:href="#m751c40bf6a" x="113.684722" y="218.813741" style="stroke: #000000"/>
     <use xlink:href="#m751c40bf6a" x="123.076389" y="224.488671" style="stroke: #000000"/>
     <use xlink:href="#m751c40bf6a" x="132.468056" y="230.037677" style="stroke: #000000"/>
     <use xlink:href="#m751c40bf6a" x="141.859722" y="235.482786" style="stroke: #000000"/>
     <use xlink:href="#m751c40bf6a" x="151.251389" y="240.855141" style="stroke: #000000"/>
     <use xlink:href="#m751c40bf6a" x="160.643056" y="246.18703" style="stroke: #000000"/>
     <use xlink:href="#m751c40bf6a" x="170.034722" y="251.507176" style="stroke: #000000"/>
     <use xlink:href="#m751c40bf6a" x="179.426389" y="256.838539" style="stroke: #000000"/>
     <use xlink:href="#m751c40bf6a" x="188.818056" y="262.197302" style="stroke: #000000"/>
     <use xlink:href="#m751c40bf6a" x="198.209722" y="267.592041" style="stroke: #000000"/>
     <use xlink:href="#m751c40bf6a" x="207.601389" y="273.023217" style="stroke: #000000"/>
     <use xlink:href="#m751c40bf6a" x="216.993056" y="278.48744" style="stroke: #000000"/>
     <use xlink:href="#m751c40bf6a" x="226.384722" y="283.995979" style="stroke: #000000"/>
     <use xlink:href="#m751c40bf6a" x="235.776389" y="289.587947" style="stroke: #000000"/>
     <use xlink:href="#m751c40bf6a" x="245.168056" y="295.306544" style="stroke: #000000"/>
     <use xlink:href="#m751c40bf6a" x="254.559722" y="301.198947" style="stroke: #000000"/>
     <use xlink:href="#m751c40bf6a" x="258.170438" y="303.639896" style="stroke: #000000"/>
    </g>
   </g>
   <g id="line2d_23">
    <g clip-path="url(#p2e4aa991cf)">
     <use xlink:href="#m751c40bf6a" x="47.943056" y="200.130372" style="stroke: #000000"/>
     <use xlink:href="#m751c40bf6a" x="57.334722" y="232.115637" style="stroke: #000000"/>
     <use xlink:href="#m751c40bf6a" x="66.726389" y="242.217158" style="stroke: #000000"/>
     <use xlink:href="#m751c40bf6a" x="76.118056" y="251.480354" style="stroke: #000000"/>
     <use xlink:href="#m751c40bf6a" x="85.509722" y="260.523144" style="stroke: #000000"/>
     <use xlink:href="#m751c40bf6a" x="94.901389" y="269.433289" style="stroke: #000000"/>
     <use xlink:href="#m751c40bf6a" x="104.293056" y="278.103045" style="stroke: #000000"/>
     <use xlink:href="#m751c40bf6a" x="113.684722" y="286.376391" style="stroke: #000000"/>
     <use xlink:href="#m751c40bf6a" x="123.076389" y="294.162708" style="stroke: #000000"/>
     <use xlink:href="#m751c40bf6a" x="132.468056" y="301.476419" style="stroke: #000000"/>
     <use xlink:href="#m751c40bf6a" x="135.351865" y="303.64" style="stroke: #000000"/>
    </g>
   </g>
   <g id="patch_3">
    <path d="M 47.63 303.64 
L 47.63 26.88 
" style="fill: none; stroke: #000000; stroke-width: 0.8; stroke-linejoin: miter; stroke-linecap: square"/>
   </g>
   <g id="patch_4">
    <path d="M 442.08 303.64 
L 442.08 26.88 
" style="fill: none; stroke: #000000; stroke-width: 0.8; stroke-linejoin: miter; stroke-linecap: square"/>
   </g>
   <g id="patch_5">
    <path d="M 47.63 303.64 
L 442.08 303.64 
" style="fill: none; stroke: #000000; stroke-width: 0.8; stroke-linejoin: miter; stroke-linecap: square"/>
   </g>
   <g id="patch_6">
    <path d="M 47.63 26.88 
L 442.08 26.88 
" style="fill: none; stroke: #000000; stroke-width: 0.8; stroke-linejoin: miter; stroke-linecap: square"/>
   </g>
   <g id="text_16">
    <!-- Figure 7 -->
    <g transform="translate(220.812813 20.88) scale(0.12 -0.12)">
     <defs>
      <path id="DejaVuSans-46" d="M 628 4666 
L 3309 4666 
L 3309 4134 
L 1259 4134 
L 1259 2759 
L 3109 2759 
L 3109 2228 
L 1259 2228 
L 1259 0 
L 628 0 
L 628 4666 
z
" transform="scale(0.015625)"/>
      <path id="DejaVuSans-69" d="M 603 3500 
L 1178 3500 
L 1178 0 
L 603 0 
L 603 3500 
z
M 603 4863 
L 1178 4863 
L 1178 4134 
L 603 4134 
L 603 4863 
z
" transform="scale(0.015625)"/>
      <path id="DejaVuSans-75" d="M 544 1381 
L 544 3500 
L 1119 3500 
L 1119 1403 
Q 1119 906 1312 657 
Q 1506 409 1894 409 
Q 2359 409 2629 706 
Q 2900 1003 2900 1516 
L 2900 3500 
L 3475 3500 
L 3475 0 
L 2900 0 
L 2900 538 
Q 2691 219 2414 64 
Q 2138 -91 1772 -91 
Q 1169 -91 856 284 
Q 544 659 544 1381 
z
M 1991 3584 
L 1991 3584 
z
" transform="scale(0.015625)"/>
      <path id="DejaVuSans-72" d="M 2631 2963 
Q 2534 3019 2420 3045 
Q 2306 3072 2169 3072 
Q 1681 3072 1420 2755 
Q 1159 2438 1159 1844 
L 1159 0 
L 581 0 
L 581 3500 
L 1159 3500 
L 1159 2956 
Q 1341 3275 1631 3429 
Q 1922 3584 2338 3584 
Q 2397 3584 2469 3576 
Q 2541 3569 2628 3553 
L 2631 2963 
z
" transform="scale(0.015625)"/>
     </defs>
     <use xlink:href="#DejaVuSans-46"/>
     <use xlink:href="#DejaVuSans-69" x="50.269531"/>
     <use xlink:href="#DejaVuSans-67" x="78.052734"/>
     <use xlink:href="#DejaVuSans-75" x="141.529297"/>
     <use xlink:href="#DejaVuSans-72" x="204.908203"/>
     <use xlink:href="#DejaVuSans-65" x="243.771484"/>
     <use xlink:href="#DejaVuSans-20" x="305.294922"/>
     <use xlink:href="#DejaVuSans-37" x="337.082031"/>
    </g>
   </g>
   <g id="legend_1">
    <g id="patch_7">
     <path d="M 331.18 125.058125 
L 435.08 125.058125 
Q 437.08 125.058125 437.08 123.058125 
L 437.08 33.88 
Q 437.08 31.88 435.08 31.88 
L 331.18 31.88 
Q 329.18 31.88 329.18 33.88 
L 329.18 123.058125 
Q 329.18 125.058125 331.18 125.058125 
z
" style="fill: #ffffff; opacity: 0.8; stroke: #cccccc; stroke-linejoin: miter"/>
    </g>
    <g id="line2d_24">
     <path d="M 333.18 40.400312 
L 343.18 40.400312 
L 353.18 40.400312 
" style="fill: none; stroke: #1f77b4; stroke-width: 1.5; stroke-linecap: square"/>
    </g>
    <g id="text_17">
     <!-- 0.175 mA/cm$^2$ -->
     <g transform="translate(361.18 43.900312) scale(0.1 -0.1)">
      <defs>
       <path id="DejaVuSans-31" d="M 794 531 
L 1825 531 
L 1825 4091 
L 703 3866 
L 703 4441 
L 1819 4666 
L 2450 4666 
L 2450 531 
L 3481 531 
L 3481 0 
L 794 0 
L 794 531 
z
" transform="scale(0.015625)"/>
       <path id="DejaVuSans-6d" d="M 3328 2828 
Q 3544 3216 3844 3400 
Q 4144 3584 4550 3584 
Q 5097 3584 5394 3201 
Q 5691 2819 5691 2113 
L 5691 0 
L 5113 0 
L 5113 2094 
Q 5113 2597 4934 2840 
Q 4756 3084 4391 3084 
Q 3944 3084 3684 2787 
Q 3425 2491 3425 1978 
L 3425 0 
L 2847 0 
L 2847 2094 
Q 2847 2600 2669 2842 
Q 2491 3084 2119 3084 
Q 1678 3084 1418 2786 
Q 1159 2488 1159 1978 
L 1159 0 
L 581 0 
L 581 3500 
L 1159 3500 
L 1159 2956 
Q 1356 3278 1631 3431 
Q 1906 3584 2284 3584 
Q 2666 3584 2933 3390 
Q 3200 3197 3328 2828 
z
" transform="scale(0.015625)"/>
       <path id="DejaVuSans-41" d="M 2188 4044 
L 1331 1722 
L 3047 1722 
L 2188 4044 
z
M 1831 4666 
L 2547 4666 
L 4325 0 
L 3669 0 
L 3244 1197 
L 1141 1197 
L 716 0 
L 50 0 
L 1831 4666 
z
" transform="scale(0.015625)"/>
       <path id="DejaVuSans-2f" d="M 1625 4666 
L 2156 4666 
L 531 -594 
L 0 -594 
L 1625 4666 
z
" transform="scale(0.015625)"/>
       <path id="DejaVuSans-63" d="M 3122 3366 
L 3122 2828 
Q 2878 2963 2633 3030 
Q 2388 3097 2138 3097 
Q 1578 3097 1268 2742 
Q 959 2388 959 1747 
Q 959 1106 1268 751 
Q 1578 397 2138 397 
Q 2388 397 2633 464 
Q 2878 531 3122 666 
L 3122 134 
Q 2881 22 2623 -34 
Q 2366 -91 2075 -91 
Q 1284 -91 818 406 
Q 353 903 353 1747 
Q 353 2603 823 3093 
Q 1294 3584 2113 3584 
Q 2378 3584 2631 3529 
Q 2884 3475 3122 3366 
z
" transform="scale(0.015625)"/>
      </defs>
      <use xlink:href="#DejaVuSans-30" transform="translate(0 0.765625)"/>
      <use xlink:href="#DejaVuSans-2e" transform="translate(63.623047 0.765625)"/>
      <use xlink:href="#DejaVuSans-31" transform="translate(95.410156 0.765625)"/>
      <use xlink:href="#DejaVuSans-37" transform="translate(159.033203 0.765625)"/>
      <use xlink:href="#DejaVuSans-35" transform="translate(222.65625 0.765625)"/>
      <use xlink:href="#DejaVuSans-20" transform="translate(286.279297 0.765625)"/>
      <use xlink:href="#DejaVuSans-6d" transform="translate(318.066406 0.765625)"/>
      <use xlink:href="#DejaVuSans-41" transform="translate(415.478516 0.765625)"/>
      <use xlink:href="#DejaVuSans-2f" transform="translate(483.886719 0.765625)"/>
      <use xlink:href="#DejaVuSans-63" transform="translate(517.578125 0.765625)"/>
      <use xlink:href="#DejaVuSans-6d" transform="translate(572.558594 0.765625)"/>
      <use xlink:href="#DejaVuSans-32" transform="translate(670.927734 39.046875) scale(0.7)"/>
     </g>
    </g>
    <g id="line2d_25">
     <path d="M 333.18 55.500313 
L 343.18 55.500313 
L 353.18 55.500313 
" style="fill: none; stroke: #ff7f0e; stroke-width: 1.5; stroke-linecap: square"/>
    </g>
    <g id="text_18">
     <!-- 1.75 mA/cm$^2$ -->
     <g transform="translate(361.18 59.000313) scale(0.1 -0.1)">
      <use xlink:href="#DejaVuSans-31" transform="translate(0 0.765625)"/>
      <use xlink:href="#DejaVuSans-2e" transform="translate(63.623047 0.765625)"/>
      <use xlink:href="#DejaVuSans-37" transform="translate(87.660156 0.765625)"/>
      <use xlink:href="#DejaVuSans-35" transform="translate(151.283203 0.765625)"/>
      <use xlink:href="#DejaVuSans-20" transform="translate(214.90625 0.765625)"/>
      <use xlink:href="#DejaVuSans-6d" transform="translate(246.693359 0.765625)"/>
      <use xlink:href="#DejaVuSans-41" transform="translate(344.105469 0.765625)"/>
      <use xlink:href="#DejaVuSans-2f" transform="translate(412.513672 0.765625)"/>
      <use xlink:href="#DejaVuSans-63" transform="translate(446.205078 0.765625)"/>
      <use xlink:href="#DejaVuSans-6d" transform="translate(501.185547 0.765625)"/>
      <use xlink:href="#DejaVuSans-32" transform="translate(599.554688 39.046875) scale(0.7)"/>
     </g>
    </g>
    <g id="line2d_26">
     <path d="M 333.18 70.600312 
L 343.18 70.600312 
L 353.18 70.600312 
" style="fill: none; stroke: #2ca02c; stroke-width: 1.5; stroke-linecap: square"/>
    </g>
    <g id="text_19">
     <!-- 3.5 mA/cm$^2$ -->
     <g transform="translate(361.18 74.100312) scale(0.1 -0.1)">
      <use xlink:href="#DejaVuSans-33" transform="translate(0 0.765625)"/>
      <use xlink:href="#DejaVuSans-2e" transform="translate(63.623047 0.765625)"/>
      <use xlink:href="#DejaVuSans-35" transform="translate(95.410156 0.765625)"/>
      <use xlink:href="#DejaVuSans-20" transform="translate(159.033203 0.765625)"/>
      <use xlink:href="#DejaVuSans-6d" transform="translate(190.820312 0.765625)"/>
      <use xlink:href="#DejaVuSans-41" transform="translate(288.232422 0.765625)"/>
      <use xlink:href="#DejaVuSans-2f" transform="translate(356.640625 0.765625)"/>
      <use xlink:href="#DejaVuSans-63" transform="translate(390.332031 0.765625)"/>
      <use xlink:href="#DejaVuSans-6d" transform="translate(445.3125 0.765625)"/>
      <use xlink:href="#DejaVuSans-32" transform="translate(543.681641 39.046875) scale(0.7)"/>
     </g>
    </g>
    <g id="line2d_27">
     <path d="M 333.18 85.700312 
L 343.18 85.700312 
L 353.18 85.700312 
" style="fill: none; stroke: #d62728; stroke-width: 1.5; stroke-linecap: square"/>
    </g>
    <g id="text_20">
     <!-- 7.0 mA/cm$^2$ -->
     <g transform="translate(361.18 89.200312) scale(0.1 -0.1)">
      <use xlink:href="#DejaVuSans-37" transform="translate(0 0.765625)"/>
      <use xlink:href="#DejaVuSans-2e" transform="translate(63.623047 0.765625)"/>
      <use xlink:href="#DejaVuSans-30" transform="translate(95.410156 0.765625)"/>
      <use xlink:href="#DejaVuSans-20" transform="translate(159.033203 0.765625)"/>
      <use xlink:href="#DejaVuSans-6d" transform="translate(190.820312 0.765625)"/>
      <use xlink:href="#DejaVuSans-41" transform="translate(288.232422 0.765625)"/>
      <use xlink:href="#DejaVuSans-2f" transform="translate(356.640625 0.765625)"/>
      <use xlink:href="#DejaVuSans-63" transform="translate(390.332031 0.765625)"/>
      <use xlink:href="#DejaVuSans-6d" transform="translate(445.3125 0.765625)"/>
      <use xlink:href="#DejaVuSans-32" transform="translate(543.681641 39.046875) scale(0.7)"/>
     </g>
    </g>
    <g id="line2d_28">
     <path d="M 333.18 100.800312 
L 343.18 100.800312 
L 353.18 100.800312 
" style="fill: none; stroke: #9467bd; stroke-width: 1.5; stroke-linecap: square"/>
    </g>
    <g id="text_21">
     <!-- 10.5 mA/cm$^2$ -->
     <g transform="translate(361.18 104.300312) scale(0.1 -0.1)">
      <use xlink:href="#DejaVuSans-31" transform="translate(0 0.765625)"/>
      <use xlink:href="#DejaVuSans-30" transform="translate(63.623047 0.765625)"/>
      <use xlink:href="#DejaVuSans-2e" transform="translate(127.246094 0.765625)"/>
      <use xlink:href="#DejaVuSans-35" transform="translate(159.033203 0.765625)"/>
      <use xlink:href="#DejaVuSans-20" transform="translate(222.65625 0.765625)"/>
      <use xlink:href="#DejaVuSans-6d" transform="translate(254.443359 0.765625)"/>
      <use xlink:href="#DejaVuSans-41" transform="translate(351.855469 0.765625)"/>
      <use xlink:href="#DejaVuSans-2f" transform="translate(420.263672 0.765625)"/>
      <use xlink:href="#DejaVuSans-63" transform="translate(453.955078 0.765625)"/>
      <use xlink:href="#DejaVuSans-6d" transform="translate(508.935547 0.765625)"/>
      <use xlink:href="#DejaVuSans-32" transform="translate(607.304688 39.046875) scale(0.7)"/>
     </g>
    </g>
    <g id="line2d_29">
     <g>
      <use xlink:href="#m751c40bf6a" x="343.18" y="115.478437" style="stroke: #000000"/>
     </g>
    </g>
    <g id="text_22">
     <!-- mpet -->
     <g transform="translate(361.18 118.978437) scale(0.1 -0.1)">
      <defs>
       <path id="DejaVuSans-70" d="M 1159 525 
L 1159 -1331 
L 581 -1331 
L 581 3500 
L 1159 3500 
L 1159 2969 
Q 1341 3281 1617 3432 
Q 1894 3584 2278 3584 
Q 2916 3584 3314 3078 
Q 3713 2572 3713 1747 
Q 3713 922 3314 415 
Q 2916 -91 2278 -91 
Q 1894 -91 1617 61 
Q 1341 213 1159 525 
z
M 3116 1747 
Q 3116 2381 2855 2742 
Q 2594 3103 2138 3103 
Q 1681 3103 1420 2742 
Q 1159 2381 1159 1747 
Q 1159 1113 1420 752 
Q 1681 391 2138 391 
Q 2594 391 2855 752 
Q 3116 1113 3116 1747 
z
" transform="scale(0.015625)"/>
      </defs>
      <use xlink:href="#DejaVuSans-6d"/>
      <use xlink:href="#DejaVuSans-70" x="97.412109"/>
      <use xlink:href="#DejaVuSans-65" x="160.888672"/>
      <use xlink:href="#DejaVuSans-74" x="222.412109"/>
     </g>
    </g>
   </g>
  </g>
 </g>
 <defs>
  <clipPath id="p2e4aa991cf">
   <rect x="47.63" y="26.88" width="394.45" height="276.76"/>
  </clipPath>
 </defs>
</svg>
