<?xml version="1.0" encoding="utf-8" standalone="no"?>
<!DOCTYPE svg PUBLIC "-//W3C//DTD SVG 1.1//EN"
  "http://www.w3.org/Graphics/SVG/1.1/DTD/svg11.dtd">
<svg xmlns:xlink="http://www.w3.org/1999/xlink" width="460.8pt" height="345.6pt" viewBox="0 0 460.8 345.6" xmlns="http://www.w3.org/2000/svg" version="1.1">
 <metadata>
  <rdf:RDF xmlns:dc="http://purl.org/dc/elements/1.1/" xmlns:cc="http://creativecommons.org/ns#" xmlns:rdf="http://www.w3.org/1999/02/22-rdf-syntax-ns#">
   <cc:Work>
    <dc:type rdf:resource="http://purl.org/dc/dcmitype/StillImage"/>
    <dc:date>2024-03-28T21:38:52.774018</dc:date>
    <dc:format>image/svg+xml</dc:format>
    <dc:creator>
     <cc:Agent>
      <dc:title>Matplotlib v3.8.2, https://matplotlib.org/</dc:title>
     </cc:Agent>
    </dc:creator>
   </cc:Work>
  </rdf:RDF>
 </metadata>
 <defs>
  <style type="text/css">*{stroke-linejoin: round; stroke-linecap: butt}</style>
 </defs>
 <g id="figure_1">
  <g id="patch_1">
   <path d="M 0 345.6 
L 460.8 345.6 
L 460.8 0 
L 0 0 
z
" style="fill: #ffffff"/>
  </g>
  <g id="axes_1">
   <g id="patch_2">
    <path d="M 47.63 303.64 
L 442.08 303.64 
L 442.08 26.88 
L 47.63 26.88 
z
" style="fill: #ffffff"/>
   </g>
   <g id="matplotlib.axis_1">
    <g id="xtick_1">
     <g id="line2d_1">
      <defs>
       <path id="mc7cf202cdc" d="M 0 0 
L 0 3.5 
" style="stroke: #000000; stroke-width: 0.8"/>
      </defs>
      <g>
       <use xlink:href="#mc7cf202cdc" x="47.63" y="303.64" style="stroke: #000000; stroke-width: 0.8"/>
      </g>
     </g>
     <g id="text_1">
      <!-- 0.2 -->
      <g transform="translate(39.678438 318.238437) scale(0.1 -0.1)">
       <defs>
        <path id="DejaVuSans-30" d="M 2034 4250 
Q 1547 4250 1301 3770 
Q 1056 3291 1056 2328 
Q 1056 1369 1301 889 
Q 1547 409 2034 409 
Q 2525 409 2770 889 
Q 3016 1369 3016 2328 
Q 3016 3291 2770 3770 
Q 2525 4250 2034 4250 
z
M 2034 4750 
Q 2819 4750 3233 4129 
Q 3647 3509 3647 2328 
Q 3647 1150 3233 529 
Q 2819 -91 2034 -91 
Q 1250 -91 836 529 
Q 422 1150 422 2328 
Q 422 3509 836 4129 
Q 1250 4750 2034 4750 
z
" transform="scale(0.015625)"/>
        <path id="DejaVuSans-2e" d="M 684 794 
L 1344 794 
L 1344 0 
L 684 0 
L 684 794 
z
" transform="scale(0.015625)"/>
        <path id="DejaVuSans-32" d="M 1228 531 
L 3431 531 
L 3431 0 
L 469 0 
L 469 531 
Q 828 903 1448 1529 
Q 2069 2156 2228 2338 
Q 2531 2678 2651 2914 
Q 2772 3150 2772 3378 
Q 2772 3750 2511 3984 
Q 2250 4219 1831 4219 
Q 1534 4219 1204 4116 
Q 875 4013 500 3803 
L 500 4441 
Q 881 4594 1212 4672 
Q 1544 4750 1819 4750 
Q 2544 4750 2975 4387 
Q 3406 4025 3406 3419 
Q 3406 3131 3298 2873 
Q 3191 2616 2906 2266 
Q 2828 2175 2409 1742 
Q 1991 1309 1228 531 
z
" transform="scale(0.015625)"/>
       </defs>
       <use xlink:href="#DejaVuSans-30"/>
       <use xlink:href="#DejaVuSans-2e" x="63.623047"/>
       <use xlink:href="#DejaVuSans-32" x="95.410156"/>
      </g>
     </g>
    </g>
    <g id="xtick_2">
     <g id="line2d_2">
      <g>
       <use xlink:href="#mc7cf202cdc" x="96.93625" y="303.64" style="stroke: #000000; stroke-width: 0.8"/>
      </g>
     </g>
     <g id="text_2">
      <!-- 0.3 -->
      <g transform="translate(88.984688 318.238437) scale(0.1 -0.1)">
       <defs>
        <path id="DejaVuSans-33" d="M 2597 2516 
Q 3050 2419 3304 2112 
Q 3559 1806 3559 1356 
Q 3559 666 3084 287 
Q 2609 -91 1734 -91 
Q 1441 -91 1130 -33 
Q 819 25 488 141 
L 488 750 
Q 750 597 1062 519 
Q 1375 441 1716 441 
Q 2309 441 2620 675 
Q 2931 909 2931 1356 
Q 2931 1769 2642 2001 
Q 2353 2234 1838 2234 
L 1294 2234 
L 1294 2753 
L 1863 2753 
Q 2328 2753 2575 2939 
Q 2822 3125 2822 3475 
Q 2822 3834 2567 4026 
Q 2313 4219 1838 4219 
Q 1578 4219 1281 4162 
Q 984 4106 628 3988 
L 628 4550 
Q 988 4650 1302 4700 
Q 1616 4750 1894 4750 
Q 2613 4750 3031 4423 
Q 3450 4097 3450 3541 
Q 3450 3153 3228 2886 
Q 3006 2619 2597 2516 
z
" transform="scale(0.015625)"/>
       </defs>
       <use xlink:href="#DejaVuSans-30"/>
       <use xlink:href="#DejaVuSans-2e" x="63.623047"/>
       <use xlink:href="#DejaVuSans-33" x="95.410156"/>
      </g>
     </g>
    </g>
    <g id="xtick_3">
     <g id="line2d_3">
      <g>
       <use xlink:href="#mc7cf202cdc" x="146.2425" y="303.64" style="stroke: #000000; stroke-width: 0.8"/>
      </g>
     </g>
     <g id="text_3">
      <!-- 0.4 -->
      <g transform="translate(138.290938 318.238437) scale(0.1 -0.1)">
       <defs>
        <path id="DejaVuSans-34" d="M 2419 4116 
L 825 1625 
L 2419 1625 
L 2419 4116 
z
M 2253 4666 
L 3047 4666 
L 3047 1625 
L 3713 1625 
L 3713 1100 
L 3047 1100 
L 3047 0 
L 2419 0 
L 2419 1100 
L 313 1100 
L 313 1709 
L 2253 4666 
z
" transform="scale(0.015625)"/>
       </defs>
       <use xlink:href="#DejaVuSans-30"/>
       <use xlink:href="#DejaVuSans-2e" x="63.623047"/>
       <use xlink:href="#DejaVuSans-34" x="95.410156"/>
      </g>
     </g>
    </g>
    <g id="xtick_4">
     <g id="line2d_4">
      <g>
       <use xlink:href="#mc7cf202cdc" x="195.54875" y="303.64" style="stroke: #000000; stroke-width: 0.8"/>
      </g>
     </g>
     <g id="text_4">
      <!-- 0.5 -->
      <g transform="translate(187.597188 318.238437) scale(0.1 -0.1)">
       <defs>
        <path id="DejaVuSans-35" d="M 691 4666 
L 3169 4666 
L 3169 4134 
L 1269 4134 
L 1269 2991 
Q 1406 3038 1543 3061 
Q 1681 3084 1819 3084 
Q 2600 3084 3056 2656 
Q 3513 2228 3513 1497 
Q 3513 744 3044 326 
Q 2575 -91 1722 -91 
Q 1428 -91 1123 -41 
Q 819 9 494 109 
L 494 744 
Q 775 591 1075 516 
Q 1375 441 1709 441 
Q 2250 441 2565 725 
Q 2881 1009 2881 1497 
Q 2881 1984 2565 2268 
Q 2250 2553 1709 2553 
Q 1456 2553 1204 2497 
Q 953 2441 691 2322 
L 691 4666 
z
" transform="scale(0.015625)"/>
       </defs>
       <use xlink:href="#DejaVuSans-30"/>
       <use xlink:href="#DejaVuSans-2e" x="63.623047"/>
       <use xlink:href="#DejaVuSans-35" x="95.410156"/>
      </g>
     </g>
    </g>
    <g id="xtick_5">
     <g id="line2d_5">
      <g>
       <use xlink:href="#mc7cf202cdc" x="244.855" y="303.64" style="stroke: #000000; stroke-width: 0.8"/>
      </g>
     </g>
     <g id="text_5">
      <!-- 0.6 -->
      <g transform="translate(236.903438 318.238437) scale(0.1 -0.1)">
       <defs>
        <path id="DejaVuSans-36" d="M 2113 2584 
Q 1688 2584 1439 2293 
Q 1191 2003 1191 1497 
Q 1191 994 1439 701 
Q 1688 409 2113 409 
Q 2538 409 2786 701 
Q 3034 994 3034 1497 
Q 3034 2003 2786 2293 
Q 2538 2584 2113 2584 
z
M 3366 4563 
L 3366 3988 
Q 3128 4100 2886 4159 
Q 2644 4219 2406 4219 
Q 1781 4219 1451 3797 
Q 1122 3375 1075 2522 
Q 1259 2794 1537 2939 
Q 1816 3084 2150 3084 
Q 2853 3084 3261 2657 
Q 3669 2231 3669 1497 
Q 3669 778 3244 343 
Q 2819 -91 2113 -91 
Q 1303 -91 875 529 
Q 447 1150 447 2328 
Q 447 3434 972 4092 
Q 1497 4750 2381 4750 
Q 2619 4750 2861 4703 
Q 3103 4656 3366 4563 
z
" transform="scale(0.015625)"/>
       </defs>
       <use xlink:href="#DejaVuSans-30"/>
       <use xlink:href="#DejaVuSans-2e" x="63.623047"/>
       <use xlink:href="#DejaVuSans-36" x="95.410156"/>
      </g>
     </g>
    </g>
    <g id="xtick_6">
     <g id="line2d_6">
      <g>
       <use xlink:href="#mc7cf202cdc" x="294.16125" y="303.64" style="stroke: #000000; stroke-width: 0.8"/>
      </g>
     </g>
     <g id="text_6">
      <!-- 0.7 -->
      <g transform="translate(286.209687 318.238437) scale(0.1 -0.1)">
       <defs>
        <path id="DejaVuSans-37" d="M 525 4666 
L 3525 4666 
L 3525 4397 
L 1831 0 
L 1172 0 
L 2766 4134 
L 525 4134 
L 525 4666 
z
" transform="scale(0.015625)"/>
       </defs>
       <use xlink:href="#DejaVuSans-30"/>
       <use xlink:href="#DejaVuSans-2e" x="63.623047"/>
       <use xlink:href="#DejaVuSans-37" x="95.410156"/>
      </g>
     </g>
    </g>
    <g id="xtick_7">
     <g id="line2d_7">
      <g>
       <use xlink:href="#mc7cf202cdc" x="343.4675" y="303.64" style="stroke: #000000; stroke-width: 0.8"/>
      </g>
     </g>
     <g id="text_7">
      <!-- 0.8 -->
      <g transform="translate(335.515938 318.238437) scale(0.1 -0.1)">
       <defs>
        <path id="DejaVuSans-38" d="M 2034 2216 
Q 1584 2216 1326 1975 
Q 1069 1734 1069 1313 
Q 1069 891 1326 650 
Q 1584 409 2034 409 
Q 2484 409 2743 651 
Q 3003 894 3003 1313 
Q 3003 1734 2745 1975 
Q 2488 2216 2034 2216 
z
M 1403 2484 
Q 997 2584 770 2862 
Q 544 3141 544 3541 
Q 544 4100 942 4425 
Q 1341 4750 2034 4750 
Q 2731 4750 3128 4425 
Q 3525 4100 3525 3541 
Q 3525 3141 3298 2862 
Q 3072 2584 2669 2484 
Q 3125 2378 3379 2068 
Q 3634 1759 3634 1313 
Q 3634 634 3220 271 
Q 2806 -91 2034 -91 
Q 1263 -91 848 271 
Q 434 634 434 1313 
Q 434 1759 690 2068 
Q 947 2378 1403 2484 
z
M 1172 3481 
Q 1172 3119 1398 2916 
Q 1625 2713 2034 2713 
Q 2441 2713 2670 2916 
Q 2900 3119 2900 3481 
Q 2900 3844 2670 4047 
Q 2441 4250 2034 4250 
Q 1625 4250 1398 4047 
Q 1172 3844 1172 3481 
z
" transform="scale(0.015625)"/>
       </defs>
       <use xlink:href="#DejaVuSans-30"/>
       <use xlink:href="#DejaVuSans-2e" x="63.623047"/>
       <use xlink:href="#DejaVuSans-38" x="95.410156"/>
      </g>
     </g>
    </g>
    <g id="xtick_8">
     <g id="line2d_8">
      <g>
       <use xlink:href="#mc7cf202cdc" x="392.77375" y="303.64" style="stroke: #000000; stroke-width: 0.8"/>
      </g>
     </g>
     <g id="text_8">
      <!-- 0.9 -->
      <g transform="translate(384.822188 318.238437) scale(0.1 -0.1)">
       <defs>
        <path id="DejaVuSans-39" d="M 703 97 
L 703 672 
Q 941 559 1184 500 
Q 1428 441 1663 441 
Q 2288 441 2617 861 
Q 2947 1281 2994 2138 
Q 2813 1869 2534 1725 
Q 2256 1581 1919 1581 
Q 1219 1581 811 2004 
Q 403 2428 403 3163 
Q 403 3881 828 4315 
Q 1253 4750 1959 4750 
Q 2769 4750 3195 4129 
Q 3622 3509 3622 2328 
Q 3622 1225 3098 567 
Q 2575 -91 1691 -91 
Q 1453 -91 1209 -44 
Q 966 3 703 97 
z
M 1959 2075 
Q 2384 2075 2632 2365 
Q 2881 2656 2881 3163 
Q 2881 3666 2632 3958 
Q 2384 4250 1959 4250 
Q 1534 4250 1286 3958 
Q 1038 3666 1038 3163 
Q 1038 2656 1286 2365 
Q 1534 2075 1959 2075 
z
" transform="scale(0.015625)"/>
       </defs>
       <use xlink:href="#DejaVuSans-30"/>
       <use xlink:href="#DejaVuSans-2e" x="63.623047"/>
       <use xlink:href="#DejaVuSans-39" x="95.410156"/>
      </g>
     </g>
    </g>
    <g id="xtick_9">
     <g id="line2d_9">
      <g>
       <use xlink:href="#mc7cf202cdc" x="442.08" y="303.64" style="stroke: #000000; stroke-width: 0.8"/>
      </g>
     </g>
     <g id="text_9">
      <!-- 1.0 -->
      <g transform="translate(434.128438 318.238437) scale(0.1 -0.1)">
       <defs>
        <path id="DejaVuSans-31" d="M 794 531 
L 1825 531 
L 1825 4091 
L 703 3866 
L 703 4441 
L 1819 4666 
L 2450 4666 
L 2450 531 
L 3481 531 
L 3481 0 
L 794 0 
L 794 531 
z
" transform="scale(0.015625)"/>
       </defs>
       <use xlink:href="#DejaVuSans-31"/>
       <use xlink:href="#DejaVuSans-2e" x="63.623047"/>
       <use xlink:href="#DejaVuSans-30" x="95.410156"/>
      </g>
     </g>
    </g>
    <g id="text_10">
     <!-- X -->
     <g transform="translate(241.43 331.916562) scale(0.1 -0.1)">
      <defs>
       <path id="DejaVuSans-58" d="M 403 4666 
L 1081 4666 
L 2241 2931 
L 3406 4666 
L 4084 4666 
L 2584 2425 
L 4184 0 
L 3506 0 
L 2194 1984 
L 872 0 
L 191 0 
L 1856 2491 
L 403 4666 
z
" transform="scale(0.015625)"/>
      </defs>
      <use xlink:href="#DejaVuSans-58"/>
     </g>
    </g>
   </g>
   <g id="matplotlib.axis_2">
    <g id="ytick_1">
     <g id="line2d_10">
      <defs>
       <path id="m105c215c92" d="M 0 0 
L -3.5 0 
" style="stroke: #000000; stroke-width: 0.8"/>
      </defs>
      <g>
       <use xlink:href="#m105c215c92" x="47.63" y="303.64" style="stroke: #000000; stroke-width: 0.8"/>
      </g>
     </g>
     <g id="text_11">
      <!-- 2.0 -->
      <g transform="translate(24.726875 307.439219) scale(0.1 -0.1)">
       <use xlink:href="#DejaVuSans-32"/>
       <use xlink:href="#DejaVuSans-2e" x="63.623047"/>
       <use xlink:href="#DejaVuSans-30" x="95.410156"/>
      </g>
     </g>
    </g>
    <g id="ytick_2">
     <g id="line2d_11">
      <g>
       <use xlink:href="#m105c215c92" x="47.63" y="248.288" style="stroke: #000000; stroke-width: 0.8"/>
      </g>
     </g>
     <g id="text_12">
      <!-- 2.5 -->
      <g transform="translate(24.726875 252.087219) scale(0.1 -0.1)">
       <use xlink:href="#DejaVuSans-32"/>
       <use xlink:href="#DejaVuSans-2e" x="63.623047"/>
       <use xlink:href="#DejaVuSans-35" x="95.410156"/>
      </g>
     </g>
    </g>
    <g id="ytick_3">
     <g id="line2d_12">
      <g>
       <use xlink:href="#m105c215c92" x="47.63" y="192.936" style="stroke: #000000; stroke-width: 0.8"/>
      </g>
     </g>
     <g id="text_13">
      <!-- 3.0 -->
      <g transform="translate(24.726875 196.735219) scale(0.1 -0.1)">
       <use xlink:href="#DejaVuSans-33"/>
       <use xlink:href="#DejaVuSans-2e" x="63.623047"/>
       <use xlink:href="#DejaVuSans-30" x="95.410156"/>
      </g>
     </g>
    </g>
    <g id="ytick_4">
     <g id="line2d_13">
      <g>
       <use xlink:href="#m105c215c92" x="47.63" y="137.584" style="stroke: #000000; stroke-width: 0.8"/>
      </g>
     </g>
     <g id="text_14">
      <!-- 3.5 -->
      <g transform="translate(24.726875 141.383219) scale(0.1 -0.1)">
       <use xlink:href="#DejaVuSans-33"/>
       <use xlink:href="#DejaVuSans-2e" x="63.623047"/>
       <use xlink:href="#DejaVuSans-35" x="95.410156"/>
      </g>
     </g>
    </g>
    <g id="ytick_5">
     <g id="line2d_14">
      <g>
       <use xlink:href="#m105c215c92" x="47.63" y="82.232" style="stroke: #000000; stroke-width: 0.8"/>
      </g>
     </g>
     <g id="text_15">
      <!-- 4.0 -->
      <g transform="translate(24.726875 86.031219) scale(0.1 -0.1)">
       <use xlink:href="#DejaVuSans-34"/>
       <use xlink:href="#DejaVuSans-2e" x="63.623047"/>
       <use xlink:href="#DejaVuSans-30" x="95.410156"/>
      </g>
     </g>
    </g>
    <g id="ytick_6">
     <g id="line2d_15">
      <g>
       <use xlink:href="#m105c215c92" x="47.63" y="26.88" style="stroke: #000000; stroke-width: 0.8"/>
      </g>
     </g>
     <g id="text_16">
      <!-- 4.5 -->
      <g transform="translate(24.726875 30.679219) scale(0.1 -0.1)">
       <use xlink:href="#DejaVuSans-34"/>
       <use xlink:href="#DejaVuSans-2e" x="63.623047"/>
       <use xlink:href="#DejaVuSans-35" x="95.410156"/>
      </g>
     </g>
    </g>
    <g id="text_17">
     <!-- Voltage (V) -->
     <g transform="translate(18.647188 192.927187) rotate(-90) scale(0.1 -0.1)">
      <defs>
       <path id="DejaVuSans-56" d="M 1831 0 
L 50 4666 
L 709 4666 
L 2188 738 
L 3669 4666 
L 4325 4666 
L 2547 0 
L 1831 0 
z
" transform="scale(0.015625)"/>
       <path id="DejaVuSans-6f" d="M 1959 3097 
Q 1497 3097 1228 2736 
Q 959 2375 959 1747 
Q 959 1119 1226 758 
Q 1494 397 1959 397 
Q 2419 397 2687 759 
Q 2956 1122 2956 1747 
Q 2956 2369 2687 2733 
Q 2419 3097 1959 3097 
z
M 1959 3584 
Q 2709 3584 3137 3096 
Q 3566 2609 3566 1747 
Q 3566 888 3137 398 
Q 2709 -91 1959 -91 
Q 1206 -91 779 398 
Q 353 888 353 1747 
Q 353 2609 779 3096 
Q 1206 3584 1959 3584 
z
" transform="scale(0.015625)"/>
       <path id="DejaVuSans-6c" d="M 603 4863 
L 1178 4863 
L 1178 0 
L 603 0 
L 603 4863 
z
" transform="scale(0.015625)"/>
       <path id="DejaVuSans-74" d="M 1172 4494 
L 1172 3500 
L 2356 3500 
L 2356 3053 
L 1172 3053 
L 1172 1153 
Q 1172 725 1289 603 
Q 1406 481 1766 481 
L 2356 481 
L 2356 0 
L 1766 0 
Q 1100 0 847 248 
Q 594 497 594 1153 
L 594 3053 
L 172 3053 
L 172 3500 
L 594 3500 
L 594 4494 
L 1172 4494 
z
" transform="scale(0.015625)"/>
       <path id="DejaVuSans-61" d="M 2194 1759 
Q 1497 1759 1228 1600 
Q 959 1441 959 1056 
Q 959 750 1161 570 
Q 1363 391 1709 391 
Q 2188 391 2477 730 
Q 2766 1069 2766 1631 
L 2766 1759 
L 2194 1759 
z
M 3341 1997 
L 3341 0 
L 2766 0 
L 2766 531 
Q 2569 213 2275 61 
Q 1981 -91 1556 -91 
Q 1019 -91 701 211 
Q 384 513 384 1019 
Q 384 1609 779 1909 
Q 1175 2209 1959 2209 
L 2766 2209 
L 2766 2266 
Q 2766 2663 2505 2880 
Q 2244 3097 1772 3097 
Q 1472 3097 1187 3025 
Q 903 2953 641 2809 
L 641 3341 
Q 956 3463 1253 3523 
Q 1550 3584 1831 3584 
Q 2591 3584 2966 3190 
Q 3341 2797 3341 1997 
z
" transform="scale(0.015625)"/>
       <path id="DejaVuSans-67" d="M 2906 1791 
Q 2906 2416 2648 2759 
Q 2391 3103 1925 3103 
Q 1463 3103 1205 2759 
Q 947 2416 947 1791 
Q 947 1169 1205 825 
Q 1463 481 1925 481 
Q 2391 481 2648 825 
Q 2906 1169 2906 1791 
z
M 3481 434 
Q 3481 -459 3084 -895 
Q 2688 -1331 1869 -1331 
Q 1566 -1331 1297 -1286 
Q 1028 -1241 775 -1147 
L 775 -588 
Q 1028 -725 1275 -790 
Q 1522 -856 1778 -856 
Q 2344 -856 2625 -561 
Q 2906 -266 2906 331 
L 2906 616 
Q 2728 306 2450 153 
Q 2172 0 1784 0 
Q 1141 0 747 490 
Q 353 981 353 1791 
Q 353 2603 747 3093 
Q 1141 3584 1784 3584 
Q 2172 3584 2450 3431 
Q 2728 3278 2906 2969 
L 2906 3500 
L 3481 3500 
L 3481 434 
z
" transform="scale(0.015625)"/>
       <path id="DejaVuSans-65" d="M 3597 1894 
L 3597 1613 
L 953 1613 
Q 991 1019 1311 708 
Q 1631 397 2203 397 
Q 2534 397 2845 478 
Q 3156 559 3463 722 
L 3463 178 
Q 3153 47 2828 -22 
Q 2503 -91 2169 -91 
Q 1331 -91 842 396 
Q 353 884 353 1716 
Q 353 2575 817 3079 
Q 1281 3584 2069 3584 
Q 2775 3584 3186 3129 
Q 3597 2675 3597 1894 
z
M 3022 2063 
Q 3016 2534 2758 2815 
Q 2500 3097 2075 3097 
Q 1594 3097 1305 2825 
Q 1016 2553 972 2059 
L 3022 2063 
z
" transform="scale(0.015625)"/>
       <path id="DejaVuSans-20" transform="scale(0.015625)"/>
       <path id="DejaVuSans-28" d="M 1984 4856 
Q 1566 4138 1362 3434 
Q 1159 2731 1159 2009 
Q 1159 1288 1364 580 
Q 1569 -128 1984 -844 
L 1484 -844 
Q 1016 -109 783 600 
Q 550 1309 550 2009 
Q 550 2706 781 3412 
Q 1013 4119 1484 4856 
L 1984 4856 
z
" transform="scale(0.015625)"/>
       <path id="DejaVuSans-29" d="M 513 4856 
L 1013 4856 
Q 1481 4119 1714 3412 
Q 1947 2706 1947 2009 
Q 1947 1309 1714 600 
Q 1481 -109 1013 -844 
L 513 -844 
Q 928 -128 1133 580 
Q 1338 1288 1338 2009 
Q 1338 2731 1133 3434 
Q 928 4138 513 4856 
z
" transform="scale(0.015625)"/>
      </defs>
      <use xlink:href="#DejaVuSans-56"/>
      <use xlink:href="#DejaVuSans-6f" x="60.658203"/>
      <use xlink:href="#DejaVuSans-6c" x="121.839844"/>
      <use xlink:href="#DejaVuSans-74" x="149.623047"/>
      <use xlink:href="#DejaVuSans-61" x="188.832031"/>
      <use xlink:href="#DejaVuSans-67" x="250.111328"/>
      <use xlink:href="#DejaVuSans-65" x="313.587891"/>
      <use xlink:href="#DejaVuSans-20" x="375.111328"/>
      <use xlink:href="#DejaVuSans-28" x="406.898438"/>
      <use xlink:href="#DejaVuSans-56" x="445.912109"/>
      <use xlink:href="#DejaVuSans-29" x="514.320312"/>
     </g>
    </g>
   </g>
   <g id="line2d_16">
    <path d="M 48.25317 90.880109 
L 53.592158 91.076335 
L 58.936509 91.774817 
L 64.280592 92.448275 
L 69.625748 93.222119 
L 74.972569 94.152039 
L 80.31759 94.913296 
L 85.868305 96.006092 
L 91.041476 96.93265 
L 95.980536 97.687819 
L 100.14244 98.716919 
L 104.909625 99.834429 
L 110.301025 100.953507 
L 116.78453 102.315728 
L 122.134312 103.522956 
L 127.48465 104.78226 
L 132.835359 106.07628 
L 138.186994 107.457093 
L 143.537888 108.768472 
L 148.891562 110.340228 
L 154.24468 111.859909 
L 159.596686 113.275439 
L 164.950359 114.847195 
L 170.304589 116.471027 
L 175.65956 118.164293 
L 181.014716 119.874917 
L 186.369872 121.585541 
L 191.726141 123.400316 
L 197.081483 125.128299 
L 202.438121 126.977791 
L 207.795872 128.931434 
L 213.152326 130.763568 
L 218.509706 132.682494 
L 223.866159 134.514628 
L 229.223169 136.398837 
L 234.580549 138.317763 
L 239.937559 140.201972 
L 245.294753 142.10354 
L 250.651392 143.953032 
L 256.01044 146.028185 
L 261.369673 148.120696 
L 266.729277 150.247924 
L 272.089067 152.39251 
L 277.449226 154.571814 
L 282.811054 156.907344 
L 288.172141 159.17344 
L 293.53508 161.613121 
L 298.898391 164.087519 
L 304.260774 166.475124 
L 309.626123 169.140466 
L 314.992399 171.892599 
L 320.358489 174.627375 
L 325.724764 177.379509 
L 331.09104 180.131642 
L 336.459168 183.057361 
L 341.826555 185.913646 
L 347.195611 188.926157 
L 352.56411 191.886593 
L 357.933721 194.95118 
L 363.305185 198.189351 
L 368.679429 201.6879 
L 374.053488 205.169091 
L 379.429586 208.841225 
L 384.807166 212.652227 
L 390.186784 216.654172 
L 395.079899 220.531465 
L 399.97458 224.555342 
L 404.869713 228.62165 
L 409.281494 232.858401 
L 412.713614 236.222486 
L 423.537967 250.325655 
L 426.499218 255.029483 
L 428.727713 259.265209 
L 430.717295 263.844991 
L 432.458859 267.915947 
L 434.228393 272.456273 
L 435.339832 277.013481 
L 436.55725 282.960304 
L 437.453255 288.87314 
L 438.389772 294.36354 
L 439.4817 299.692766 
L 439.930317 302.866316 
" clip-path="url(#pd13c7bc0a1)" style="fill: none; stroke: #1f77b4; stroke-width: 1.5; stroke-linecap: square"/>
   </g>
   <g id="line2d_17">
    <path d="M 49.199755 93.295298 
L 54.522101 93.277764 
L 59.849803 93.90568 
L 65.177925 94.58426 
L 70.508367 95.542405 
L 75.83956 96.590936 
L 81.169543 97.493771 
L 86.502307 98.731776 
L 91.834493 99.900034 
L 97.167596 101.178725 
L 102.501325 102.532975 
L 107.835103 103.893037 
L 113.170038 105.392593 
L 118.504973 106.892148 
L 123.840776 108.496324 
L 129.176145 110.048189 
L 134.51137 111.582618 
L 139.84862 113.361161 
L 145.185726 115.122267 
L 150.5237 116.987993 
L 155.862107 118.906029 
L 161.20037 120.806629 
L 166.541817 123.090836 
L 171.880369 125.026308 
L 177.21733 126.769978 
L 182.554291 128.513647 
L 187.890673 130.187569 
L 193.2272 131.878929 
L 198.563148 133.500541 
L 203.900687 135.313957 
L 209.237359 137.022753 
L 214.574175 138.748985 
L 219.912727 140.684458 
L 225.249399 142.393254 
L 230.587228 144.241544 
L 235.925925 146.194453 
L 241.265491 148.251983 
L 246.60549 150.361823 
L 251.944911 152.401916 
L 257.285489 154.581502 
L 262.626067 156.761089 
L 267.968093 159.115042 
L 273.309105 161.346939 
L 278.651564 163.753203 
L 283.996194 166.421017 
L 289.339232 168.897027 
L 294.68444 171.634588 
L 300.032109 174.668572 
L 305.379922 177.719993 
L 310.727156 180.701668 
L 316.075258 183.787962 
L 321.425965 187.188117 
L 326.777974 190.745203 
L 332.131865 194.528965 
L 337.488649 198.661461 
L 342.60314 202.750366 
L 347.234411 206.916766 
L 351.138385 210.902019 
L 354.315486 214.757272 
L 357.496702 219.108474 
L 360.43842 223.752862 
L 362.647636 227.588934 
L 364.369805 231.041399 
L 367.83802 240.823384 
L 368.852964 246.513558 
L 369.260162 251.852092 
L 369.905107 256.686254 
L 370.31054 263.894619 
L 370.499265 269.977534 
L 371.026633 275.220166 
L 371.068282 280.239027 
L 371.921143 285.8333 
L 372.00497 291.075932 
L 372.276188 297.520534 
L 372.207906 300.953818 
" clip-path="url(#pd13c7bc0a1)" style="fill: none; stroke: #ff7f0e; stroke-width: 1.5; stroke-linecap: square"/>
   </g>
   <g id="line2d_18">
    <path d="M 49.155048 94.510357 
L 54.484276 94.789161 
L 59.817802 95.642997 
L 65.150807 96.427133 
L 70.486678 97.594623 
L 75.8232 98.849239 
L 81.160764 100.243258 
L 86.49885 101.706977 
L 91.837195 103.205547 
L 97.176453 104.826093 
L 102.516361 106.533765 
L 107.856921 108.328564 
L 113.198133 110.210488 
L 118.540125 112.196965 
L 123.883681 114.392543 
L 129.226846 116.535846 
L 134.569881 118.661724 
L 139.913567 120.874728 
L 145.256472 122.983181 
L 150.597683 124.865106 
L 155.938373 126.677329 
L 161.278934 128.472128 
L 166.620275 130.371478 
L 171.960444 132.114001 
L 177.300483 133.839098 
L 182.641694 135.721023 
L 187.982906 137.602948 
L 193.324768 139.571999 
L 198.666631 141.541049 
L 204.009666 143.666927 
L 209.353742 145.932207 
L 214.698471 148.284613 
L 220.04385 150.724145 
L 225.390792 153.37278 
L 230.739428 156.247942 
L 236.090018 159.384484 
L 241.443994 162.974081 
L 246.558067 166.863392 
L 251.188744 170.871582 
L 255.093165 174.902894 
L 258.516324 179.33886 
L 261.454584 183.692678 
L 263.666108 188.005422 
L 265.392391 192.190381 
L 266.630568 195.8642 
L 267.631019 200.129024 
L 267.947489 210.072473 
L 268.469087 215.063897 
L 268.837793 231.995411 
L 268.859763 245.7323 
L 269.206023 248.863033 
L 269.337267 253.463293 
L 269.411629 260.172006 
L 269.577117 266.114009 
L 269.608639 270.330914 
L 269.64016 274.54782 
L 269.671682 278.764725 
L 269.703204 282.98163 
L 269.734725 287.198536 
L 269.754307 300.615961 
" clip-path="url(#pd13c7bc0a1)" style="fill: none; stroke: #2ca02c; stroke-width: 1.5; stroke-linecap: square"/>
   </g>
   <g id="line2d_19">
    <defs>
     <path id="mfe795e4173" d="M 0 1.5 
C 0.397805 1.5 0.77937 1.341951 1.06066 1.06066 
C 1.341951 0.77937 1.5 0.397805 1.5 0 
C 1.5 -0.397805 1.341951 -0.77937 1.06066 -1.06066 
C 0.77937 -1.341951 0.397805 -1.5 0 -1.5 
C -0.397805 -1.5 -0.77937 -1.341951 -1.06066 -1.06066 
C -1.341951 -0.77937 -1.5 -0.397805 -1.5 0 
C -1.5 0.397805 -1.341951 0.77937 -1.06066 1.06066 
C -0.77937 1.341951 -0.397805 1.5 0 1.5 
z
" style="stroke: #000000"/>
    </defs>
    <g clip-path="url(#pd13c7bc0a1)">
     <use xlink:href="#mfe795e4173" x="47.63" y="90.642825" style="stroke: #000000"/>
     <use xlink:href="#mfe795e4173" x="55.025938" y="90.544719" style="stroke: #000000"/>
     <use xlink:href="#mfe795e4173" x="62.421875" y="91.61133" style="stroke: #000000"/>
     <use xlink:href="#mfe795e4173" x="69.817813" y="92.778021" style="stroke: #000000"/>
     <use xlink:href="#mfe795e4173" x="77.21375" y="94.013267" style="stroke: #000000"/>
     <use xlink:href="#mfe795e4173" x="84.609688" y="95.448095" style="stroke: #000000"/>
     <use xlink:href="#mfe795e4173" x="92.005625" y="96.955794" style="stroke: #000000"/>
     <use xlink:href="#mfe795e4173" x="99.401563" y="98.469095" style="stroke: #000000"/>
     <use xlink:href="#mfe795e4173" x="106.7975" y="100.039424" style="stroke: #000000"/>
     <use xlink:href="#mfe795e4173" x="114.193438" y="101.692408" style="stroke: #000000"/>
     <use xlink:href="#mfe795e4173" x="121.589375" y="103.401652" style="stroke: #000000"/>
     <use xlink:href="#mfe795e4173" x="128.985313" y="105.152825" style="stroke: #000000"/>
     <use xlink:href="#mfe795e4173" x="136.38125" y="106.958583" style="stroke: #000000"/>
     <use xlink:href="#mfe795e4173" x="143.777187" y="108.838616" style="stroke: #000000"/>
     <use xlink:href="#mfe795e4173" x="151.173125" y="110.801143" style="stroke: #000000"/>
     <use xlink:href="#mfe795e4173" x="158.569062" y="112.841536" style="stroke: #000000"/>
     <use xlink:href="#mfe795e4173" x="165.965" y="114.957719" style="stroke: #000000"/>
     <use xlink:href="#mfe795e4173" x="173.360937" y="117.157151" style="stroke: #000000"/>
     <use xlink:href="#mfe795e4173" x="180.756875" y="119.450679" style="stroke: #000000"/>
     <use xlink:href="#mfe795e4173" x="188.152812" y="121.842966" style="stroke: #000000"/>
     <use xlink:href="#mfe795e4173" x="195.54875" y="124.324797" style="stroke: #000000"/>
     <use xlink:href="#mfe795e4173" x="202.944688" y="126.879612" style="stroke: #000000"/>
     <use xlink:href="#mfe795e4173" x="210.340625" y="129.491566" style="stroke: #000000"/>
     <use xlink:href="#mfe795e4173" x="217.736562" y="132.139979" style="stroke: #000000"/>
     <use xlink:href="#mfe795e4173" x="225.1325" y="134.789376" style="stroke: #000000"/>
     <use xlink:href="#mfe795e4173" x="232.528437" y="137.409088" style="stroke: #000000"/>
     <use xlink:href="#mfe795e4173" x="239.924375" y="140.008828" style="stroke: #000000"/>
     <use xlink:href="#mfe795e4173" x="247.320312" y="142.629434" style="stroke: #000000"/>
     <use xlink:href="#mfe795e4173" x="254.71625" y="145.305872" style="stroke: #000000"/>
     <use xlink:href="#mfe795e4173" x="262.112188" y="148.133139" style="stroke: #000000"/>
     <use xlink:href="#mfe795e4173" x="269.508125" y="151.082912" style="stroke: #000000"/>
     <use xlink:href="#mfe795e4173" x="276.904062" y="154.114607" style="stroke: #000000"/>
     <use xlink:href="#mfe795e4173" x="284.3" y="157.2378" style="stroke: #000000"/>
     <use xlink:href="#mfe795e4173" x="291.695937" y="160.459516" style="stroke: #000000"/>
     <use xlink:href="#mfe795e4173" x="299.091875" y="163.784581" style="stroke: #000000"/>
     <use xlink:href="#mfe795e4173" x="306.487812" y="167.21759" style="stroke: #000000"/>
     <use xlink:href="#mfe795e4173" x="313.88375" y="170.763789" style="stroke: #000000"/>
     <use xlink:href="#mfe795e4173" x="321.279687" y="174.429498" style="stroke: #000000"/>
     <use xlink:href="#mfe795e4173" x="328.675625" y="178.222314" style="stroke: #000000"/>
     <use xlink:href="#mfe795e4173" x="336.071562" y="182.151357" style="stroke: #000000"/>
     <use xlink:href="#mfe795e4173" x="343.4675" y="186.227625" style="stroke: #000000"/>
     <use xlink:href="#mfe795e4173" x="350.863437" y="190.464479" style="stroke: #000000"/>
     <use xlink:href="#mfe795e4173" x="358.259375" y="194.878411" style="stroke: #000000"/>
     <use xlink:href="#mfe795e4173" x="365.655312" y="199.490239" style="stroke: #000000"/>
     <use xlink:href="#mfe795e4173" x="373.05125" y="204.326879" style="stroke: #000000"/>
     <use xlink:href="#mfe795e4173" x="380.447187" y="209.424358" style="stroke: #000000"/>
     <use xlink:href="#mfe795e4173" x="387.843125" y="214.833049" style="stroke: #000000"/>
     <use xlink:href="#mfe795e4173" x="395.239062" y="220.627577" style="stroke: #000000"/>
     <use xlink:href="#mfe795e4173" x="402.635" y="226.926109" style="stroke: #000000"/>
     <use xlink:href="#mfe795e4173" x="410.030937" y="233.933524" style="stroke: #000000"/>
     <use xlink:href="#mfe795e4173" x="417.426875" y="242.048324" style="stroke: #000000"/>
     <use xlink:href="#mfe795e4173" x="424.822812" y="252.191347" style="stroke: #000000"/>
     <use xlink:href="#mfe795e4173" x="432.21875" y="267.257638" style="stroke: #000000"/>
     <use xlink:href="#mfe795e4173" x="438.985582" y="303.64" style="stroke: #000000"/>
    </g>
   </g>
   <g id="line2d_20">
    <g clip-path="url(#pd13c7bc0a1)">
     <use xlink:href="#mfe795e4173" x="47.63" y="93.458073" style="stroke: #000000"/>
     <use xlink:href="#mfe795e4173" x="55.025938" y="93.162599" style="stroke: #000000"/>
     <use xlink:href="#mfe795e4173" x="62.421875" y="94.318997" style="stroke: #000000"/>
     <use xlink:href="#mfe795e4173" x="69.817813" y="95.573522" style="stroke: #000000"/>
     <use xlink:href="#mfe795e4173" x="77.21375" y="97.109327" style="stroke: #000000"/>
     <use xlink:href="#mfe795e4173" x="84.609687" y="98.694567" style="stroke: #000000"/>
     <use xlink:href="#mfe795e4173" x="92.005625" y="100.47813" style="stroke: #000000"/>
     <use xlink:href="#mfe795e4173" x="99.401563" y="102.327368" style="stroke: #000000"/>
     <use xlink:href="#mfe795e4173" x="106.7975" y="104.204951" style="stroke: #000000"/>
     <use xlink:href="#mfe795e4173" x="114.193437" y="106.160478" style="stroke: #000000"/>
     <use xlink:href="#mfe795e4173" x="121.589375" y="108.240894" style="stroke: #000000"/>
     <use xlink:href="#mfe795e4173" x="128.985313" y="110.439019" style="stroke: #000000"/>
     <use xlink:href="#mfe795e4173" x="136.38125" y="112.732549" style="stroke: #000000"/>
     <use xlink:href="#mfe795e4173" x="143.777187" y="115.129413" style="stroke: #000000"/>
     <use xlink:href="#mfe795e4173" x="151.173125" y="117.653807" style="stroke: #000000"/>
     <use xlink:href="#mfe795e4173" x="158.569063" y="120.295983" style="stroke: #000000"/>
     <use xlink:href="#mfe795e4173" x="165.965" y="122.962125" style="stroke: #000000"/>
     <use xlink:href="#mfe795e4173" x="173.360938" y="125.548556" style="stroke: #000000"/>
     <use xlink:href="#mfe795e4173" x="180.756875" y="128.006282" style="stroke: #000000"/>
     <use xlink:href="#mfe795e4173" x="188.152813" y="130.352811" style="stroke: #000000"/>
     <use xlink:href="#mfe795e4173" x="195.54875" y="132.666216" style="stroke: #000000"/>
     <use xlink:href="#mfe795e4173" x="202.944688" y="135.027978" style="stroke: #000000"/>
     <use xlink:href="#mfe795e4173" x="210.340625" y="137.422191" style="stroke: #000000"/>
     <use xlink:href="#mfe795e4173" x="217.736563" y="139.896048" style="stroke: #000000"/>
     <use xlink:href="#mfe795e4173" x="225.1325" y="142.428139" style="stroke: #000000"/>
     <use xlink:href="#mfe795e4173" x="232.528438" y="145.046012" style="stroke: #000000"/>
     <use xlink:href="#mfe795e4173" x="239.924375" y="147.753548" style="stroke: #000000"/>
     <use xlink:href="#mfe795e4173" x="247.320313" y="150.546032" style="stroke: #000000"/>
     <use xlink:href="#mfe795e4173" x="254.71625" y="153.448783" style="stroke: #000000"/>
     <use xlink:href="#mfe795e4173" x="262.112188" y="156.463821" style="stroke: #000000"/>
     <use xlink:href="#mfe795e4173" x="269.508125" y="159.593263" style="stroke: #000000"/>
     <use xlink:href="#mfe795e4173" x="276.904063" y="162.854021" style="stroke: #000000"/>
     <use xlink:href="#mfe795e4173" x="284.3" y="166.26545" style="stroke: #000000"/>
     <use xlink:href="#mfe795e4173" x="291.695938" y="169.839569" style="stroke: #000000"/>
     <use xlink:href="#mfe795e4173" x="299.091875" y="173.593999" style="stroke: #000000"/>
     <use xlink:href="#mfe795e4173" x="306.487813" y="177.558175" style="stroke: #000000"/>
     <use xlink:href="#mfe795e4173" x="313.88375" y="181.770157" style="stroke: #000000"/>
     <use xlink:href="#mfe795e4173" x="321.279688" y="186.282478" style="stroke: #000000"/>
     <use xlink:href="#mfe795e4173" x="328.675625" y="191.172871" style="stroke: #000000"/>
     <use xlink:href="#mfe795e4173" x="336.071563" y="196.564619" style="stroke: #000000"/>
     <use xlink:href="#mfe795e4173" x="343.4675" y="202.67102" style="stroke: #000000"/>
     <use xlink:href="#mfe795e4173" x="350.863438" y="209.907942" style="stroke: #000000"/>
     <use xlink:href="#mfe795e4173" x="358.259375" y="219.248584" style="stroke: #000000"/>
     <use xlink:href="#mfe795e4173" x="365.655313" y="233.875964" style="stroke: #000000"/>
     <use xlink:href="#mfe795e4173" x="373.05125" y="285.11488" style="stroke: #000000"/>
     <use xlink:href="#mfe795e4173" x="373.650564" y="303.640008" style="stroke: #000000"/>
    </g>
   </g>
   <g id="line2d_21">
    <g clip-path="url(#pd13c7bc0a1)">
     <use xlink:href="#mfe795e4173" x="47.63" y="95.967701" style="stroke: #000000"/>
     <use xlink:href="#mfe795e4173" x="55.025938" y="95.603917" style="stroke: #000000"/>
     <use xlink:href="#mfe795e4173" x="62.421875" y="96.884541" style="stroke: #000000"/>
     <use xlink:href="#mfe795e4173" x="69.817813" y="98.266403" style="stroke: #000000"/>
     <use xlink:href="#mfe795e4173" x="77.21375" y="100.153909" style="stroke: #000000"/>
     <use xlink:href="#mfe795e4173" x="84.609688" y="102.012815" style="stroke: #000000"/>
     <use xlink:href="#mfe795e4173" x="92.005625" y="104.116719" style="stroke: #000000"/>
     <use xlink:href="#mfe795e4173" x="99.401563" y="106.416638" style="stroke: #000000"/>
     <use xlink:href="#mfe795e4173" x="106.7975" y="108.817283" style="stroke: #000000"/>
     <use xlink:href="#mfe795e4173" x="114.193438" y="111.356028" style="stroke: #000000"/>
     <use xlink:href="#mfe795e4173" x="121.589375" y="114.132514" style="stroke: #000000"/>
     <use xlink:href="#mfe795e4173" x="128.985313" y="117.169948" style="stroke: #000000"/>
     <use xlink:href="#mfe795e4173" x="136.38125" y="120.280237" style="stroke: #000000"/>
     <use xlink:href="#mfe795e4173" x="143.777188" y="123.187024" style="stroke: #000000"/>
     <use xlink:href="#mfe795e4173" x="151.173125" y="125.771653" style="stroke: #000000"/>
     <use xlink:href="#mfe795e4173" x="158.569063" y="128.182051" style="stroke: #000000"/>
     <use xlink:href="#mfe795e4173" x="165.965" y="130.580733" style="stroke: #000000"/>
     <use xlink:href="#mfe795e4173" x="173.360938" y="133.03255" style="stroke: #000000"/>
     <use xlink:href="#mfe795e4173" x="180.756875" y="135.561927" style="stroke: #000000"/>
     <use xlink:href="#mfe795e4173" x="188.152813" y="138.170305" style="stroke: #000000"/>
     <use xlink:href="#mfe795e4173" x="195.54875" y="140.915685" style="stroke: #000000"/>
     <use xlink:href="#mfe795e4173" x="202.944688" y="143.800647" style="stroke: #000000"/>
     <use xlink:href="#mfe795e4173" x="210.340625" y="146.854956" style="stroke: #000000"/>
     <use xlink:href="#mfe795e4173" x="217.736562" y="150.128253" style="stroke: #000000"/>
     <use xlink:href="#mfe795e4173" x="225.1325" y="153.68587" style="stroke: #000000"/>
     <use xlink:href="#mfe795e4173" x="232.528437" y="157.622918" style="stroke: #000000"/>
     <use xlink:href="#mfe795e4173" x="239.924375" y="162.096593" style="stroke: #000000"/>
     <use xlink:href="#mfe795e4173" x="247.320312" y="167.409727" style="stroke: #000000"/>
     <use xlink:href="#mfe795e4173" x="254.71625" y="174.230143" style="stroke: #000000"/>
     <use xlink:href="#mfe795e4173" x="262.112187" y="184.498137" style="stroke: #000000"/>
     <use xlink:href="#mfe795e4173" x="269.508125" y="209.554935" style="stroke: #000000"/>
     <use xlink:href="#mfe795e4173" x="272.7084" y="303.640056" style="stroke: #000000"/>
    </g>
   </g>
   <g id="patch_3">
    <path d="M 47.63 303.64 
L 47.63 26.88 
" style="fill: none; stroke: #000000; stroke-width: 0.8; stroke-linejoin: miter; stroke-linecap: square"/>
   </g>
   <g id="patch_4">
    <path d="M 442.08 303.64 
L 442.08 26.88 
" style="fill: none; stroke: #000000; stroke-width: 0.8; stroke-linejoin: miter; stroke-linecap: square"/>
   </g>
   <g id="patch_5">
    <path d="M 47.63 303.64 
L 442.08 303.64 
" style="fill: none; stroke: #000000; stroke-width: 0.8; stroke-linejoin: miter; stroke-linecap: square"/>
   </g>
   <g id="patch_6">
    <path d="M 47.63 26.88 
L 442.08 26.88 
" style="fill: none; stroke: #000000; stroke-width: 0.8; stroke-linejoin: miter; stroke-linecap: square"/>
   </g>
   <g id="text_18">
    <!-- Figure 2 -->
    <g transform="translate(220.812813 20.88) scale(0.12 -0.12)">
     <defs>
      <path id="DejaVuSans-46" d="M 628 4666 
L 3309 4666 
L 3309 4134 
L 1259 4134 
L 1259 2759 
L 3109 2759 
L 3109 2228 
L 1259 2228 
L 1259 0 
L 628 0 
L 628 4666 
z
" transform="scale(0.015625)"/>
      <path id="DejaVuSans-69" d="M 603 3500 
L 1178 3500 
L 1178 0 
L 603 0 
L 603 3500 
z
M 603 4863 
L 1178 4863 
L 1178 4134 
L 603 4134 
L 603 4863 
z
" transform="scale(0.015625)"/>
      <path id="DejaVuSans-75" d="M 544 1381 
L 544 3500 
L 1119 3500 
L 1119 1403 
Q 1119 906 1312 657 
Q 1506 409 1894 409 
Q 2359 409 2629 706 
Q 2900 1003 2900 1516 
L 2900 3500 
L 3475 3500 
L 3475 0 
L 2900 0 
L 2900 538 
Q 2691 219 2414 64 
Q 2138 -91 1772 -91 
Q 1169 -91 856 284 
Q 544 659 544 1381 
z
M 1991 3584 
L 1991 3584 
z
" transform="scale(0.015625)"/>
      <path id="DejaVuSans-72" d="M 2631 2963 
Q 2534 3019 2420 3045 
Q 2306 3072 2169 3072 
Q 1681 3072 1420 2755 
Q 1159 2438 1159 1844 
L 1159 0 
L 581 0 
L 581 3500 
L 1159 3500 
L 1159 2956 
Q 1341 3275 1631 3429 
Q 1922 3584 2338 3584 
Q 2397 3584 2469 3576 
Q 2541 3569 2628 3553 
L 2631 2963 
z
" transform="scale(0.015625)"/>
     </defs>
     <use xlink:href="#DejaVuSans-46"/>
     <use xlink:href="#DejaVuSans-69" x="50.269531"/>
     <use xlink:href="#DejaVuSans-67" x="78.052734"/>
     <use xlink:href="#DejaVuSans-75" x="141.529297"/>
     <use xlink:href="#DejaVuSans-72" x="204.908203"/>
     <use xlink:href="#DejaVuSans-65" x="243.771484"/>
     <use xlink:href="#DejaVuSans-20" x="305.294922"/>
     <use xlink:href="#DejaVuSans-32" x="337.082031"/>
    </g>
   </g>
   <g id="legend_1">
    <g id="patch_7">
     <path d="M 343.98 94.858125 
L 435.08 94.858125 
Q 437.08 94.858125 437.08 92.858125 
L 437.08 33.88 
Q 437.08 31.88 435.08 31.88 
L 343.98 31.88 
Q 341.98 31.88 341.98 33.88 
L 341.98 92.858125 
Q 341.98 94.858125 343.98 94.858125 
z
" style="fill: #ffffff; opacity: 0.8; stroke: #cccccc; stroke-linejoin: miter"/>
    </g>
    <g id="line2d_22">
     <path d="M 345.98 40.400312 
L 355.98 40.400312 
L 365.98 40.400312 
" style="fill: none; stroke: #1f77b4; stroke-width: 1.5; stroke-linecap: square"/>
    </g>
    <g id="text_19">
     <!-- 3.0 mA/cm$^2$ -->
     <g transform="translate(373.98 43.900312) scale(0.1 -0.1)">
      <defs>
       <path id="DejaVuSans-6d" d="M 3328 2828 
Q 3544 3216 3844 3400 
Q 4144 3584 4550 3584 
Q 5097 3584 5394 3201 
Q 5691 2819 5691 2113 
L 5691 0 
L 5113 0 
L 5113 2094 
Q 5113 2597 4934 2840 
Q 4756 3084 4391 3084 
Q 3944 3084 3684 2787 
Q 3425 2491 3425 1978 
L 3425 0 
L 2847 0 
L 2847 2094 
Q 2847 2600 2669 2842 
Q 2491 3084 2119 3084 
Q 1678 3084 1418 2786 
Q 1159 2488 1159 1978 
L 1159 0 
L 581 0 
L 581 3500 
L 1159 3500 
L 1159 2956 
Q 1356 3278 1631 3431 
Q 1906 3584 2284 3584 
Q 2666 3584 2933 3390 
Q 3200 3197 3328 2828 
z
" transform="scale(0.015625)"/>
       <path id="DejaVuSans-41" d="M 2188 4044 
L 1331 1722 
L 3047 1722 
L 2188 4044 
z
M 1831 4666 
L 2547 4666 
L 4325 0 
L 3669 0 
L 3244 1197 
L 1141 1197 
L 716 0 
L 50 0 
L 1831 4666 
z
" transform="scale(0.015625)"/>
       <path id="DejaVuSans-2f" d="M 1625 4666 
L 2156 4666 
L 531 -594 
L 0 -594 
L 1625 4666 
z
" transform="scale(0.015625)"/>
       <path id="DejaVuSans-63" d="M 3122 3366 
L 3122 2828 
Q 2878 2963 2633 3030 
Q 2388 3097 2138 3097 
Q 1578 3097 1268 2742 
Q 959 2388 959 1747 
Q 959 1106 1268 751 
Q 1578 397 2138 397 
Q 2388 397 2633 464 
Q 2878 531 3122 666 
L 3122 134 
Q 2881 22 2623 -34 
Q 2366 -91 2075 -91 
Q 1284 -91 818 406 
Q 353 903 353 1747 
Q 353 2603 823 3093 
Q 1294 3584 2113 3584 
Q 2378 3584 2631 3529 
Q 2884 3475 3122 3366 
z
" transform="scale(0.015625)"/>
      </defs>
      <use xlink:href="#DejaVuSans-33" transform="translate(0 0.765625)"/>
      <use xlink:href="#DejaVuSans-2e" transform="translate(63.623047 0.765625)"/>
      <use xlink:href="#DejaVuSans-30" transform="translate(95.410156 0.765625)"/>
      <use xlink:href="#DejaVuSans-20" transform="translate(159.033203 0.765625)"/>
      <use xlink:href="#DejaVuSans-6d" transform="translate(190.820312 0.765625)"/>
      <use xlink:href="#DejaVuSans-41" transform="translate(288.232422 0.765625)"/>
      <use xlink:href="#DejaVuSans-2f" transform="translate(356.640625 0.765625)"/>
      <use xlink:href="#DejaVuSans-63" transform="translate(390.332031 0.765625)"/>
      <use xlink:href="#DejaVuSans-6d" transform="translate(445.3125 0.765625)"/>
      <use xlink:href="#DejaVuSans-32" transform="translate(543.681641 39.046875) scale(0.7)"/>
     </g>
    </g>
    <g id="line2d_23">
     <path d="M 345.98 55.500313 
L 355.98 55.500313 
L 365.98 55.500313 
" style="fill: none; stroke: #ff7f0e; stroke-width: 1.5; stroke-linecap: square"/>
    </g>
    <g id="text_20">
     <!-- 4.0 mA/cm$^2$ -->
     <g transform="translate(373.98 59.000313) scale(0.1 -0.1)">
      <use xlink:href="#DejaVuSans-34" transform="translate(0 0.765625)"/>
      <use xlink:href="#DejaVuSans-2e" transform="translate(63.623047 0.765625)"/>
      <use xlink:href="#DejaVuSans-30" transform="translate(95.410156 0.765625)"/>
      <use xlink:href="#DejaVuSans-20" transform="translate(159.033203 0.765625)"/>
      <use xlink:href="#DejaVuSans-6d" transform="translate(190.820312 0.765625)"/>
      <use xlink:href="#DejaVuSans-41" transform="translate(288.232422 0.765625)"/>
      <use xlink:href="#DejaVuSans-2f" transform="translate(356.640625 0.765625)"/>
      <use xlink:href="#DejaVuSans-63" transform="translate(390.332031 0.765625)"/>
      <use xlink:href="#DejaVuSans-6d" transform="translate(445.3125 0.765625)"/>
      <use xlink:href="#DejaVuSans-32" transform="translate(543.681641 39.046875) scale(0.7)"/>
     </g>
    </g>
    <g id="line2d_24">
     <path d="M 345.98 70.600312 
L 355.98 70.600312 
L 365.98 70.600312 
" style="fill: none; stroke: #2ca02c; stroke-width: 1.5; stroke-linecap: square"/>
    </g>
    <g id="text_21">
     <!-- 5.0 mA/cm$^2$ -->
     <g transform="translate(373.98 74.100312) scale(0.1 -0.1)">
      <use xlink:href="#DejaVuSans-35" transform="translate(0 0.765625)"/>
      <use xlink:href="#DejaVuSans-2e" transform="translate(63.623047 0.765625)"/>
      <use xlink:href="#DejaVuSans-30" transform="translate(95.410156 0.765625)"/>
      <use xlink:href="#DejaVuSans-20" transform="translate(159.033203 0.765625)"/>
      <use xlink:href="#DejaVuSans-6d" transform="translate(190.820312 0.765625)"/>
      <use xlink:href="#DejaVuSans-41" transform="translate(288.232422 0.765625)"/>
      <use xlink:href="#DejaVuSans-2f" transform="translate(356.640625 0.765625)"/>
      <use xlink:href="#DejaVuSans-63" transform="translate(390.332031 0.765625)"/>
      <use xlink:href="#DejaVuSans-6d" transform="translate(445.3125 0.765625)"/>
      <use xlink:href="#DejaVuSans-32" transform="translate(543.681641 39.046875) scale(0.7)"/>
     </g>
    </g>
    <g id="line2d_25">
     <g>
      <use xlink:href="#mfe795e4173" x="355.98" y="85.278437" style="stroke: #000000"/>
     </g>
    </g>
    <g id="text_22">
     <!-- mpet -->
     <g transform="translate(373.98 88.778437) scale(0.1 -0.1)">
      <defs>
       <path id="DejaVuSans-70" d="M 1159 525 
L 1159 -1331 
L 581 -1331 
L 581 3500 
L 1159 3500 
L 1159 2969 
Q 1341 3281 1617 3432 
Q 1894 3584 2278 3584 
Q 2916 3584 3314 3078 
Q 3713 2572 3713 1747 
Q 3713 922 3314 415 
Q 2916 -91 2278 -91 
Q 1894 -91 1617 61 
Q 1341 213 1159 525 
z
M 3116 1747 
Q 3116 2381 2855 2742 
Q 2594 3103 2138 3103 
Q 1681 3103 1420 2742 
Q 1159 2381 1159 1747 
Q 1159 1113 1420 752 
Q 1681 391 2138 391 
Q 2594 391 2855 752 
Q 3116 1113 3116 1747 
z
" transform="scale(0.015625)"/>
      </defs>
      <use xlink:href="#DejaVuSans-6d"/>
      <use xlink:href="#DejaVuSans-70" x="97.412109"/>
      <use xlink:href="#DejaVuSans-65" x="160.888672"/>
      <use xlink:href="#DejaVuSans-74" x="222.412109"/>
     </g>
    </g>
   </g>
  </g>
 </g>
 <defs>
  <clipPath id="pd13c7bc0a1">
   <rect x="47.63" y="26.88" width="394.45" height="276.76"/>
  </clipPath>
 </defs>
</svg>
