<?xml version="1.0" encoding="utf-8" standalone="no"?>
<!DOCTYPE svg PUBLIC "-//W3C//DTD SVG 1.1//EN"
  "http://www.w3.org/Graphics/SVG/1.1/DTD/svg11.dtd">
<svg xmlns:xlink="http://www.w3.org/1999/xlink" width="460.8pt" height="345.6pt" viewBox="0 0 460.8 345.6" xmlns="http://www.w3.org/2000/svg" version="1.1">
 <metadata>
  <rdf:RDF xmlns:dc="http://purl.org/dc/elements/1.1/" xmlns:cc="http://creativecommons.org/ns#" xmlns:rdf="http://www.w3.org/1999/02/22-rdf-syntax-ns#">
   <cc:Work>
    <dc:type rdf:resource="http://purl.org/dc/dcmitype/StillImage"/>
    <dc:date>2024-03-28T18:58:07.054057</dc:date>
    <dc:format>image/svg+xml</dc:format>
    <dc:creator>
     <cc:Agent>
      <dc:title>Matplotlib v3.8.2, https://matplotlib.org/</dc:title>
     </cc:Agent>
    </dc:creator>
   </cc:Work>
  </rdf:RDF>
 </metadata>
 <defs>
  <style type="text/css">*{stroke-linejoin: round; stroke-linecap: butt}</style>
 </defs>
 <g id="figure_1">
  <g id="patch_1">
   <path d="M 0 345.6 
L 460.8 345.6 
L 460.8 0 
L 0 0 
z
" style="fill: #ffffff"/>
  </g>
  <g id="axes_1">
   <g id="patch_2">
    <path d="M 67.502 303.64 
L 450 303.64 
L 450 26.88 
L 67.502 26.88 
z
" style="fill: #ffffff"/>
   </g>
   <g id="matplotlib.axis_1">
    <g id="xtick_1">
     <g id="line2d_1">
      <defs>
       <path id="m301d36a5c3" d="M 0 0 
L 0 3.5 
" style="stroke: #000000; stroke-width: 0.8"/>
      </defs>
      <g>
       <use xlink:href="#m301d36a5c3" x="67.502" y="303.64" style="stroke: #000000; stroke-width: 0.8"/>
      </g>
     </g>
     <g id="text_1">
      <!-- 0 -->
      <g transform="translate(64.32075 318.238437) scale(0.1 -0.1)">
       <defs>
        <path id="DejaVuSans-30" d="M 2034 4250 
Q 1547 4250 1301 3770 
Q 1056 3291 1056 2328 
Q 1056 1369 1301 889 
Q 1547 409 2034 409 
Q 2525 409 2770 889 
Q 3016 1369 3016 2328 
Q 3016 3291 2770 3770 
Q 2525 4250 2034 4250 
z
M 2034 4750 
Q 2819 4750 3233 4129 
Q 3647 3509 3647 2328 
Q 3647 1150 3233 529 
Q 2819 -91 2034 -91 
Q 1250 -91 836 529 
Q 422 1150 422 2328 
Q 422 3509 836 4129 
Q 1250 4750 2034 4750 
z
" transform="scale(0.015625)"/>
       </defs>
       <use xlink:href="#DejaVuSans-30"/>
      </g>
     </g>
    </g>
    <g id="xtick_2">
     <g id="line2d_2">
      <g>
       <use xlink:href="#m301d36a5c3" x="119.379501" y="303.64" style="stroke: #000000; stroke-width: 0.8"/>
      </g>
     </g>
     <g id="text_2">
      <!-- 500 -->
      <g transform="translate(109.835751 318.238437) scale(0.1 -0.1)">
       <defs>
        <path id="DejaVuSans-35" d="M 691 4666 
L 3169 4666 
L 3169 4134 
L 1269 4134 
L 1269 2991 
Q 1406 3038 1543 3061 
Q 1681 3084 1819 3084 
Q 2600 3084 3056 2656 
Q 3513 2228 3513 1497 
Q 3513 744 3044 326 
Q 2575 -91 1722 -91 
Q 1428 -91 1123 -41 
Q 819 9 494 109 
L 494 744 
Q 775 591 1075 516 
Q 1375 441 1709 441 
Q 2250 441 2565 725 
Q 2881 1009 2881 1497 
Q 2881 1984 2565 2268 
Q 2250 2553 1709 2553 
Q 1456 2553 1204 2497 
Q 953 2441 691 2322 
L 691 4666 
z
" transform="scale(0.015625)"/>
       </defs>
       <use xlink:href="#DejaVuSans-35"/>
       <use xlink:href="#DejaVuSans-30" x="63.623047"/>
       <use xlink:href="#DejaVuSans-30" x="127.246094"/>
      </g>
     </g>
    </g>
    <g id="xtick_3">
     <g id="line2d_3">
      <g>
       <use xlink:href="#m301d36a5c3" x="171.257001" y="303.64" style="stroke: #000000; stroke-width: 0.8"/>
      </g>
     </g>
     <g id="text_3">
      <!-- 1000 -->
      <g transform="translate(158.532001 318.238437) scale(0.1 -0.1)">
       <defs>
        <path id="DejaVuSans-31" d="M 794 531 
L 1825 531 
L 1825 4091 
L 703 3866 
L 703 4441 
L 1819 4666 
L 2450 4666 
L 2450 531 
L 3481 531 
L 3481 0 
L 794 0 
L 794 531 
z
" transform="scale(0.015625)"/>
       </defs>
       <use xlink:href="#DejaVuSans-31"/>
       <use xlink:href="#DejaVuSans-30" x="63.623047"/>
       <use xlink:href="#DejaVuSans-30" x="127.246094"/>
       <use xlink:href="#DejaVuSans-30" x="190.869141"/>
      </g>
     </g>
    </g>
    <g id="xtick_4">
     <g id="line2d_4">
      <g>
       <use xlink:href="#m301d36a5c3" x="223.134502" y="303.64" style="stroke: #000000; stroke-width: 0.8"/>
      </g>
     </g>
     <g id="text_4">
      <!-- 1500 -->
      <g transform="translate(210.409502 318.238437) scale(0.1 -0.1)">
       <use xlink:href="#DejaVuSans-31"/>
       <use xlink:href="#DejaVuSans-35" x="63.623047"/>
       <use xlink:href="#DejaVuSans-30" x="127.246094"/>
       <use xlink:href="#DejaVuSans-30" x="190.869141"/>
      </g>
     </g>
    </g>
    <g id="xtick_5">
     <g id="line2d_5">
      <g>
       <use xlink:href="#m301d36a5c3" x="275.012003" y="303.64" style="stroke: #000000; stroke-width: 0.8"/>
      </g>
     </g>
     <g id="text_5">
      <!-- 2000 -->
      <g transform="translate(262.287003 318.238437) scale(0.1 -0.1)">
       <defs>
        <path id="DejaVuSans-32" d="M 1228 531 
L 3431 531 
L 3431 0 
L 469 0 
L 469 531 
Q 828 903 1448 1529 
Q 2069 2156 2228 2338 
Q 2531 2678 2651 2914 
Q 2772 3150 2772 3378 
Q 2772 3750 2511 3984 
Q 2250 4219 1831 4219 
Q 1534 4219 1204 4116 
Q 875 4013 500 3803 
L 500 4441 
Q 881 4594 1212 4672 
Q 1544 4750 1819 4750 
Q 2544 4750 2975 4387 
Q 3406 4025 3406 3419 
Q 3406 3131 3298 2873 
Q 3191 2616 2906 2266 
Q 2828 2175 2409 1742 
Q 1991 1309 1228 531 
z
" transform="scale(0.015625)"/>
       </defs>
       <use xlink:href="#DejaVuSans-32"/>
       <use xlink:href="#DejaVuSans-30" x="63.623047"/>
       <use xlink:href="#DejaVuSans-30" x="127.246094"/>
       <use xlink:href="#DejaVuSans-30" x="190.869141"/>
      </g>
     </g>
    </g>
    <g id="xtick_6">
     <g id="line2d_6">
      <g>
       <use xlink:href="#m301d36a5c3" x="326.889503" y="303.64" style="stroke: #000000; stroke-width: 0.8"/>
      </g>
     </g>
     <g id="text_6">
      <!-- 2500 -->
      <g transform="translate(314.164503 318.238437) scale(0.1 -0.1)">
       <use xlink:href="#DejaVuSans-32"/>
       <use xlink:href="#DejaVuSans-35" x="63.623047"/>
       <use xlink:href="#DejaVuSans-30" x="127.246094"/>
       <use xlink:href="#DejaVuSans-30" x="190.869141"/>
      </g>
     </g>
    </g>
    <g id="xtick_7">
     <g id="line2d_7">
      <g>
       <use xlink:href="#m301d36a5c3" x="378.767004" y="303.64" style="stroke: #000000; stroke-width: 0.8"/>
      </g>
     </g>
     <g id="text_7">
      <!-- 3000 -->
      <g transform="translate(366.042004 318.238437) scale(0.1 -0.1)">
       <defs>
        <path id="DejaVuSans-33" d="M 2597 2516 
Q 3050 2419 3304 2112 
Q 3559 1806 3559 1356 
Q 3559 666 3084 287 
Q 2609 -91 1734 -91 
Q 1441 -91 1130 -33 
Q 819 25 488 141 
L 488 750 
Q 750 597 1062 519 
Q 1375 441 1716 441 
Q 2309 441 2620 675 
Q 2931 909 2931 1356 
Q 2931 1769 2642 2001 
Q 2353 2234 1838 2234 
L 1294 2234 
L 1294 2753 
L 1863 2753 
Q 2328 2753 2575 2939 
Q 2822 3125 2822 3475 
Q 2822 3834 2567 4026 
Q 2313 4219 1838 4219 
Q 1578 4219 1281 4162 
Q 984 4106 628 3988 
L 628 4550 
Q 988 4650 1302 4700 
Q 1616 4750 1894 4750 
Q 2613 4750 3031 4423 
Q 3450 4097 3450 3541 
Q 3450 3153 3228 2886 
Q 3006 2619 2597 2516 
z
" transform="scale(0.015625)"/>
       </defs>
       <use xlink:href="#DejaVuSans-33"/>
       <use xlink:href="#DejaVuSans-30" x="63.623047"/>
       <use xlink:href="#DejaVuSans-30" x="127.246094"/>
       <use xlink:href="#DejaVuSans-30" x="190.869141"/>
      </g>
     </g>
    </g>
    <g id="xtick_8">
     <g id="line2d_8">
      <g>
       <use xlink:href="#m301d36a5c3" x="430.644505" y="303.64" style="stroke: #000000; stroke-width: 0.8"/>
      </g>
     </g>
     <g id="text_8">
      <!-- 3500 -->
      <g transform="translate(417.919505 318.238437) scale(0.1 -0.1)">
       <use xlink:href="#DejaVuSans-33"/>
       <use xlink:href="#DejaVuSans-35" x="63.623047"/>
       <use xlink:href="#DejaVuSans-30" x="127.246094"/>
       <use xlink:href="#DejaVuSans-30" x="190.869141"/>
      </g>
     </g>
    </g>
    <g id="text_9">
     <!-- Time (s) -->
     <g transform="translate(238.422094 331.916562) scale(0.1 -0.1)">
      <defs>
       <path id="DejaVuSans-54" d="M -19 4666 
L 3928 4666 
L 3928 4134 
L 2272 4134 
L 2272 0 
L 1638 0 
L 1638 4134 
L -19 4134 
L -19 4666 
z
" transform="scale(0.015625)"/>
       <path id="DejaVuSans-69" d="M 603 3500 
L 1178 3500 
L 1178 0 
L 603 0 
L 603 3500 
z
M 603 4863 
L 1178 4863 
L 1178 4134 
L 603 4134 
L 603 4863 
z
" transform="scale(0.015625)"/>
       <path id="DejaVuSans-6d" d="M 3328 2828 
Q 3544 3216 3844 3400 
Q 4144 3584 4550 3584 
Q 5097 3584 5394 3201 
Q 5691 2819 5691 2113 
L 5691 0 
L 5113 0 
L 5113 2094 
Q 5113 2597 4934 2840 
Q 4756 3084 4391 3084 
Q 3944 3084 3684 2787 
Q 3425 2491 3425 1978 
L 3425 0 
L 2847 0 
L 2847 2094 
Q 2847 2600 2669 2842 
Q 2491 3084 2119 3084 
Q 1678 3084 1418 2786 
Q 1159 2488 1159 1978 
L 1159 0 
L 581 0 
L 581 3500 
L 1159 3500 
L 1159 2956 
Q 1356 3278 1631 3431 
Q 1906 3584 2284 3584 
Q 2666 3584 2933 3390 
Q 3200 3197 3328 2828 
z
" transform="scale(0.015625)"/>
       <path id="DejaVuSans-65" d="M 3597 1894 
L 3597 1613 
L 953 1613 
Q 991 1019 1311 708 
Q 1631 397 2203 397 
Q 2534 397 2845 478 
Q 3156 559 3463 722 
L 3463 178 
Q 3153 47 2828 -22 
Q 2503 -91 2169 -91 
Q 1331 -91 842 396 
Q 353 884 353 1716 
Q 353 2575 817 3079 
Q 1281 3584 2069 3584 
Q 2775 3584 3186 3129 
Q 3597 2675 3597 1894 
z
M 3022 2063 
Q 3016 2534 2758 2815 
Q 2500 3097 2075 3097 
Q 1594 3097 1305 2825 
Q 1016 2553 972 2059 
L 3022 2063 
z
" transform="scale(0.015625)"/>
       <path id="DejaVuSans-20" transform="scale(0.015625)"/>
       <path id="DejaVuSans-28" d="M 1984 4856 
Q 1566 4138 1362 3434 
Q 1159 2731 1159 2009 
Q 1159 1288 1364 580 
Q 1569 -128 1984 -844 
L 1484 -844 
Q 1016 -109 783 600 
Q 550 1309 550 2009 
Q 550 2706 781 3412 
Q 1013 4119 1484 4856 
L 1984 4856 
z
" transform="scale(0.015625)"/>
       <path id="DejaVuSans-73" d="M 2834 3397 
L 2834 2853 
Q 2591 2978 2328 3040 
Q 2066 3103 1784 3103 
Q 1356 3103 1142 2972 
Q 928 2841 928 2578 
Q 928 2378 1081 2264 
Q 1234 2150 1697 2047 
L 1894 2003 
Q 2506 1872 2764 1633 
Q 3022 1394 3022 966 
Q 3022 478 2636 193 
Q 2250 -91 1575 -91 
Q 1294 -91 989 -36 
Q 684 19 347 128 
L 347 722 
Q 666 556 975 473 
Q 1284 391 1588 391 
Q 1994 391 2212 530 
Q 2431 669 2431 922 
Q 2431 1156 2273 1281 
Q 2116 1406 1581 1522 
L 1381 1569 
Q 847 1681 609 1914 
Q 372 2147 372 2553 
Q 372 3047 722 3315 
Q 1072 3584 1716 3584 
Q 2034 3584 2315 3537 
Q 2597 3491 2834 3397 
z
" transform="scale(0.015625)"/>
       <path id="DejaVuSans-29" d="M 513 4856 
L 1013 4856 
Q 1481 4119 1714 3412 
Q 1947 2706 1947 2009 
Q 1947 1309 1714 600 
Q 1481 -109 1013 -844 
L 513 -844 
Q 928 -128 1133 580 
Q 1338 1288 1338 2009 
Q 1338 2731 1133 3434 
Q 928 4138 513 4856 
z
" transform="scale(0.015625)"/>
      </defs>
      <use xlink:href="#DejaVuSans-54"/>
      <use xlink:href="#DejaVuSans-69" x="57.958984"/>
      <use xlink:href="#DejaVuSans-6d" x="85.742188"/>
      <use xlink:href="#DejaVuSans-65" x="183.154297"/>
      <use xlink:href="#DejaVuSans-20" x="244.677734"/>
      <use xlink:href="#DejaVuSans-28" x="276.464844"/>
      <use xlink:href="#DejaVuSans-73" x="315.478516"/>
      <use xlink:href="#DejaVuSans-29" x="367.578125"/>
     </g>
    </g>
   </g>
   <g id="matplotlib.axis_2">
    <g id="ytick_1">
     <g id="line2d_9">
      <defs>
       <path id="m9a17522ac5" d="M 0 0 
L -3.5 0 
" style="stroke: #000000; stroke-width: 0.8"/>
      </defs>
      <g>
       <use xlink:href="#m9a17522ac5" x="67.502" y="292.689276" style="stroke: #000000; stroke-width: 0.8"/>
      </g>
     </g>
     <g id="text_10">
      <!-- 0 -->
      <g transform="translate(54.1395 296.488495) scale(0.1 -0.1)">
       <use xlink:href="#DejaVuSans-30"/>
      </g>
     </g>
    </g>
    <g id="ytick_2">
     <g id="line2d_10">
      <g>
       <use xlink:href="#m9a17522ac5" x="67.502" y="243.066074" style="stroke: #000000; stroke-width: 0.8"/>
      </g>
     </g>
     <g id="text_11">
      <!-- 10000 -->
      <g transform="translate(28.6895 246.865292) scale(0.1 -0.1)">
       <use xlink:href="#DejaVuSans-31"/>
       <use xlink:href="#DejaVuSans-30" x="63.623047"/>
       <use xlink:href="#DejaVuSans-30" x="127.246094"/>
       <use xlink:href="#DejaVuSans-30" x="190.869141"/>
       <use xlink:href="#DejaVuSans-30" x="254.492188"/>
      </g>
     </g>
    </g>
    <g id="ytick_3">
     <g id="line2d_11">
      <g>
       <use xlink:href="#m9a17522ac5" x="67.502" y="193.442872" style="stroke: #000000; stroke-width: 0.8"/>
      </g>
     </g>
     <g id="text_12">
      <!-- 20000 -->
      <g transform="translate(28.6895 197.24209) scale(0.1 -0.1)">
       <use xlink:href="#DejaVuSans-32"/>
       <use xlink:href="#DejaVuSans-30" x="63.623047"/>
       <use xlink:href="#DejaVuSans-30" x="127.246094"/>
       <use xlink:href="#DejaVuSans-30" x="190.869141"/>
       <use xlink:href="#DejaVuSans-30" x="254.492188"/>
      </g>
     </g>
    </g>
    <g id="ytick_4">
     <g id="line2d_12">
      <g>
       <use xlink:href="#m9a17522ac5" x="67.502" y="143.819669" style="stroke: #000000; stroke-width: 0.8"/>
      </g>
     </g>
     <g id="text_13">
      <!-- 30000 -->
      <g transform="translate(28.6895 147.618888) scale(0.1 -0.1)">
       <use xlink:href="#DejaVuSans-33"/>
       <use xlink:href="#DejaVuSans-30" x="63.623047"/>
       <use xlink:href="#DejaVuSans-30" x="127.246094"/>
       <use xlink:href="#DejaVuSans-30" x="190.869141"/>
       <use xlink:href="#DejaVuSans-30" x="254.492188"/>
      </g>
     </g>
    </g>
    <g id="ytick_5">
     <g id="line2d_13">
      <g>
       <use xlink:href="#m9a17522ac5" x="67.502" y="94.196467" style="stroke: #000000; stroke-width: 0.8"/>
      </g>
     </g>
     <g id="text_14">
      <!-- 40000 -->
      <g transform="translate(28.6895 97.995686) scale(0.1 -0.1)">
       <defs>
        <path id="DejaVuSans-34" d="M 2419 4116 
L 825 1625 
L 2419 1625 
L 2419 4116 
z
M 2253 4666 
L 3047 4666 
L 3047 1625 
L 3713 1625 
L 3713 1100 
L 3047 1100 
L 3047 0 
L 2419 0 
L 2419 1100 
L 313 1100 
L 313 1709 
L 2253 4666 
z
" transform="scale(0.015625)"/>
       </defs>
       <use xlink:href="#DejaVuSans-34"/>
       <use xlink:href="#DejaVuSans-30" x="63.623047"/>
       <use xlink:href="#DejaVuSans-30" x="127.246094"/>
       <use xlink:href="#DejaVuSans-30" x="190.869141"/>
       <use xlink:href="#DejaVuSans-30" x="254.492188"/>
      </g>
     </g>
    </g>
    <g id="ytick_6">
     <g id="line2d_14">
      <g>
       <use xlink:href="#m9a17522ac5" x="67.502" y="44.573265" style="stroke: #000000; stroke-width: 0.8"/>
      </g>
     </g>
     <g id="text_15">
      <!-- 50000 -->
      <g transform="translate(28.6895 48.372484) scale(0.1 -0.1)">
       <use xlink:href="#DejaVuSans-35"/>
       <use xlink:href="#DejaVuSans-30" x="63.623047"/>
       <use xlink:href="#DejaVuSans-30" x="127.246094"/>
       <use xlink:href="#DejaVuSans-30" x="190.869141"/>
       <use xlink:href="#DejaVuSans-30" x="254.492188"/>
      </g>
     </g>
    </g>
    <g id="text_16">
     <!-- Solid concentration (mol/m$^3$) -->
     <g transform="translate(22.609813 237.46) rotate(-90) scale(0.1 -0.1)">
      <defs>
       <path id="DejaVuSans-53" d="M 3425 4513 
L 3425 3897 
Q 3066 4069 2747 4153 
Q 2428 4238 2131 4238 
Q 1616 4238 1336 4038 
Q 1056 3838 1056 3469 
Q 1056 3159 1242 3001 
Q 1428 2844 1947 2747 
L 2328 2669 
Q 3034 2534 3370 2195 
Q 3706 1856 3706 1288 
Q 3706 609 3251 259 
Q 2797 -91 1919 -91 
Q 1588 -91 1214 -16 
Q 841 59 441 206 
L 441 856 
Q 825 641 1194 531 
Q 1563 422 1919 422 
Q 2459 422 2753 634 
Q 3047 847 3047 1241 
Q 3047 1584 2836 1778 
Q 2625 1972 2144 2069 
L 1759 2144 
Q 1053 2284 737 2584 
Q 422 2884 422 3419 
Q 422 4038 858 4394 
Q 1294 4750 2059 4750 
Q 2388 4750 2728 4690 
Q 3069 4631 3425 4513 
z
" transform="scale(0.015625)"/>
       <path id="DejaVuSans-6f" d="M 1959 3097 
Q 1497 3097 1228 2736 
Q 959 2375 959 1747 
Q 959 1119 1226 758 
Q 1494 397 1959 397 
Q 2419 397 2687 759 
Q 2956 1122 2956 1747 
Q 2956 2369 2687 2733 
Q 2419 3097 1959 3097 
z
M 1959 3584 
Q 2709 3584 3137 3096 
Q 3566 2609 3566 1747 
Q 3566 888 3137 398 
Q 2709 -91 1959 -91 
Q 1206 -91 779 398 
Q 353 888 353 1747 
Q 353 2609 779 3096 
Q 1206 3584 1959 3584 
z
" transform="scale(0.015625)"/>
       <path id="DejaVuSans-6c" d="M 603 4863 
L 1178 4863 
L 1178 0 
L 603 0 
L 603 4863 
z
" transform="scale(0.015625)"/>
       <path id="DejaVuSans-64" d="M 2906 2969 
L 2906 4863 
L 3481 4863 
L 3481 0 
L 2906 0 
L 2906 525 
Q 2725 213 2448 61 
Q 2172 -91 1784 -91 
Q 1150 -91 751 415 
Q 353 922 353 1747 
Q 353 2572 751 3078 
Q 1150 3584 1784 3584 
Q 2172 3584 2448 3432 
Q 2725 3281 2906 2969 
z
M 947 1747 
Q 947 1113 1208 752 
Q 1469 391 1925 391 
Q 2381 391 2643 752 
Q 2906 1113 2906 1747 
Q 2906 2381 2643 2742 
Q 2381 3103 1925 3103 
Q 1469 3103 1208 2742 
Q 947 2381 947 1747 
z
" transform="scale(0.015625)"/>
       <path id="DejaVuSans-63" d="M 3122 3366 
L 3122 2828 
Q 2878 2963 2633 3030 
Q 2388 3097 2138 3097 
Q 1578 3097 1268 2742 
Q 959 2388 959 1747 
Q 959 1106 1268 751 
Q 1578 397 2138 397 
Q 2388 397 2633 464 
Q 2878 531 3122 666 
L 3122 134 
Q 2881 22 2623 -34 
Q 2366 -91 2075 -91 
Q 1284 -91 818 406 
Q 353 903 353 1747 
Q 353 2603 823 3093 
Q 1294 3584 2113 3584 
Q 2378 3584 2631 3529 
Q 2884 3475 3122 3366 
z
" transform="scale(0.015625)"/>
       <path id="DejaVuSans-6e" d="M 3513 2113 
L 3513 0 
L 2938 0 
L 2938 2094 
Q 2938 2591 2744 2837 
Q 2550 3084 2163 3084 
Q 1697 3084 1428 2787 
Q 1159 2491 1159 1978 
L 1159 0 
L 581 0 
L 581 3500 
L 1159 3500 
L 1159 2956 
Q 1366 3272 1645 3428 
Q 1925 3584 2291 3584 
Q 2894 3584 3203 3211 
Q 3513 2838 3513 2113 
z
" transform="scale(0.015625)"/>
       <path id="DejaVuSans-74" d="M 1172 4494 
L 1172 3500 
L 2356 3500 
L 2356 3053 
L 1172 3053 
L 1172 1153 
Q 1172 725 1289 603 
Q 1406 481 1766 481 
L 2356 481 
L 2356 0 
L 1766 0 
Q 1100 0 847 248 
Q 594 497 594 1153 
L 594 3053 
L 172 3053 
L 172 3500 
L 594 3500 
L 594 4494 
L 1172 4494 
z
" transform="scale(0.015625)"/>
       <path id="DejaVuSans-72" d="M 2631 2963 
Q 2534 3019 2420 3045 
Q 2306 3072 2169 3072 
Q 1681 3072 1420 2755 
Q 1159 2438 1159 1844 
L 1159 0 
L 581 0 
L 581 3500 
L 1159 3500 
L 1159 2956 
Q 1341 3275 1631 3429 
Q 1922 3584 2338 3584 
Q 2397 3584 2469 3576 
Q 2541 3569 2628 3553 
L 2631 2963 
z
" transform="scale(0.015625)"/>
       <path id="DejaVuSans-61" d="M 2194 1759 
Q 1497 1759 1228 1600 
Q 959 1441 959 1056 
Q 959 750 1161 570 
Q 1363 391 1709 391 
Q 2188 391 2477 730 
Q 2766 1069 2766 1631 
L 2766 1759 
L 2194 1759 
z
M 3341 1997 
L 3341 0 
L 2766 0 
L 2766 531 
Q 2569 213 2275 61 
Q 1981 -91 1556 -91 
Q 1019 -91 701 211 
Q 384 513 384 1019 
Q 384 1609 779 1909 
Q 1175 2209 1959 2209 
L 2766 2209 
L 2766 2266 
Q 2766 2663 2505 2880 
Q 2244 3097 1772 3097 
Q 1472 3097 1187 3025 
Q 903 2953 641 2809 
L 641 3341 
Q 956 3463 1253 3523 
Q 1550 3584 1831 3584 
Q 2591 3584 2966 3190 
Q 3341 2797 3341 1997 
z
" transform="scale(0.015625)"/>
       <path id="DejaVuSans-2f" d="M 1625 4666 
L 2156 4666 
L 531 -594 
L 0 -594 
L 1625 4666 
z
" transform="scale(0.015625)"/>
      </defs>
      <use xlink:href="#DejaVuSans-53" transform="translate(0 0.765625)"/>
      <use xlink:href="#DejaVuSans-6f" transform="translate(63.476562 0.765625)"/>
      <use xlink:href="#DejaVuSans-6c" transform="translate(124.658203 0.765625)"/>
      <use xlink:href="#DejaVuSans-69" transform="translate(152.441406 0.765625)"/>
      <use xlink:href="#DejaVuSans-64" transform="translate(180.224609 0.765625)"/>
      <use xlink:href="#DejaVuSans-20" transform="translate(243.701172 0.765625)"/>
      <use xlink:href="#DejaVuSans-63" transform="translate(275.488281 0.765625)"/>
      <use xlink:href="#DejaVuSans-6f" transform="translate(330.46875 0.765625)"/>
      <use xlink:href="#DejaVuSans-6e" transform="translate(391.650391 0.765625)"/>
      <use xlink:href="#DejaVuSans-63" transform="translate(455.029297 0.765625)"/>
      <use xlink:href="#DejaVuSans-65" transform="translate(510.009766 0.765625)"/>
      <use xlink:href="#DejaVuSans-6e" transform="translate(571.533203 0.765625)"/>
      <use xlink:href="#DejaVuSans-74" transform="translate(634.912109 0.765625)"/>
      <use xlink:href="#DejaVuSans-72" transform="translate(674.121094 0.765625)"/>
      <use xlink:href="#DejaVuSans-61" transform="translate(715.234375 0.765625)"/>
      <use xlink:href="#DejaVuSans-74" transform="translate(776.513672 0.765625)"/>
      <use xlink:href="#DejaVuSans-69" transform="translate(815.722656 0.765625)"/>
      <use xlink:href="#DejaVuSans-6f" transform="translate(843.505859 0.765625)"/>
      <use xlink:href="#DejaVuSans-6e" transform="translate(904.6875 0.765625)"/>
      <use xlink:href="#DejaVuSans-20" transform="translate(968.066406 0.765625)"/>
      <use xlink:href="#DejaVuSans-28" transform="translate(999.853516 0.765625)"/>
      <use xlink:href="#DejaVuSans-6d" transform="translate(1038.867188 0.765625)"/>
      <use xlink:href="#DejaVuSans-6f" transform="translate(1136.279297 0.765625)"/>
      <use xlink:href="#DejaVuSans-6c" transform="translate(1197.460938 0.765625)"/>
      <use xlink:href="#DejaVuSans-2f" transform="translate(1225.244141 0.765625)"/>
      <use xlink:href="#DejaVuSans-6d" transform="translate(1258.935547 0.765625)"/>
      <use xlink:href="#DejaVuSans-33" transform="translate(1357.304688 39.046875) scale(0.7)"/>
      <use xlink:href="#DejaVuSans-29" transform="translate(1404.575195 0.765625)"/>
     </g>
    </g>
   </g>
   <g id="line2d_15">
    <path d="M 67.502 164.880366 
L 75.646768 164.518127 
L 83.220883 163.940483 
L 91.106263 163.110336 
L 100.08107 161.936956 
L 110.300938 160.372511 
L 122.388396 158.286165 
L 135.720913 155.765869 
L 152.321714 152.393268 
L 172.035164 148.154558 
L 199.322729 142.036293 
L 241.706647 132.278122 
L 283.883055 122.373582 
L 309.718051 116.081873 
L 328.964603 111.166315 
L 344.424098 106.993755 
L 357.341596 103.288658 
L 368.339626 99.921561 
L 378.715126 96.509407 
L 387.223036 93.491546 
L 395.212172 90.427602 
L 402.111879 87.555701 
L 408.440934 84.691587 
L 414.043704 81.930773 
L 419.490842 79.002662 
L 424.263572 76.202277 
L 428.880669 73.248892 
L 431.78581 71.248399 
L 431.78581 71.248399 
" clip-path="url(#p485c55162f)" style="fill: none; stroke: #1f77b4; stroke-width: 1.5; stroke-linecap: square"/>
   </g>
   <g id="line2d_16">
    <path d="M 67.502 160.775594 
L 68.12453 160.036771 
L 70.874038 156.862656 
L 74.090443 153.497533 
L 77.66999 150.087606 
L 81.249538 146.950183 
L 85.295983 143.658888 
L 90.224345 139.932769 
L 95.982748 135.879136 
L 102.57119 131.536686 
L 110.093428 126.860372 
L 118.601338 121.829835 
L 129.651246 115.57397 
L 142.672498 108.450684 
L 163.838519 97.15208 
L 196.988242 79.723671 
L 211.202677 72.488731 
L 221.215034 67.644841 
L 229.359802 63.95774 
L 235.948245 61.19881 
L 242.796075 58.58598 
L 248.761987 56.543599 
L 254.7279 54.726797 
L 260.901322 53.081515 
L 267.541642 51.552156 
L 275.323268 50.039724 
L 283.468035 48.712482 
L 291.716558 47.576778 
L 302.143935 46.367698 
L 314.698291 45.1669 
L 329.639011 43.999427 
L 345.357893 42.991256 
L 364.967589 41.959127 
L 389.298136 40.917791 
L 419.957739 39.843227 
L 431.78581 39.46 
L 431.78581 39.46 
" clip-path="url(#p485c55162f)" style="fill: none; stroke: #ff7f0e; stroke-width: 1.5; stroke-linecap: square"/>
   </g>
   <g id="line2d_17">
    <path d="M 67.502 164.118824 
L 74.34983 174.298758 
L 78.91505 180.643382 
L 83.532148 186.699466 
L 88.823653 193.23664 
L 94.27079 199.588138 
L 99.87356 205.797058 
L 106.773268 213.097694 
L 114.554893 221.006449 
L 124.463496 230.759981 
L 135.202138 241.042591 
L 142.931886 248.13012 
L 148.015881 252.489955 
L 151.854816 255.525851 
L 155.693751 258.271049 
L 159.688319 260.763032 
L 163.786641 262.90398 
L 167.936841 264.649872 
L 171.516389 265.864082 
L 174.940304 266.81451 
L 178.416096 267.608255 
L 184.226376 268.684597 
L 192.838042 269.994545 
L 207.104354 271.939052 
L 217.739242 273.140307 
L 236.778285 274.980036 
L 252.289657 276.32914 
L 281.91171 278.55796 
L 314.646413 280.720141 
L 392.773929 285.699397 
L 401.074329 286.509419 
L 408.129669 287.437078 
L 431.682055 291.034549 
L 431.78581 291.06 
L 431.78581 291.06 
" clip-path="url(#p485c55162f)" style="fill: none; stroke: #2ca02c; stroke-width: 1.5; stroke-linecap: square"/>
   </g>
   <g id="line2d_18">
    <path d="M 67.502 163.04555 
L 83.635903 163.506406 
L 96.086503 164.098352 
L 108.173961 164.899578 
L 120.157663 165.910164 
L 132.919528 167.207521 
L 147.133963 168.896198 
L 161.763419 170.880496 
L 177.119159 173.216826 
L 192.215512 175.74982 
L 207.467497 178.54645 
L 222.511972 181.539896 
L 236.830162 184.618275 
L 250.16268 187.704085 
L 262.717035 190.820896 
L 274.85637 194.061636 
L 286.943828 197.538398 
L 296.748675 200.576751 
L 306.864788 203.959544 
L 315.320821 207.007842 
L 323.465588 210.178147 
L 331.350968 213.519999 
L 338.561941 216.851724 
L 344.890996 220.043241 
L 350.805031 223.314794 
L 356.355924 226.695632 
L 360.713634 229.600945 
L 365.382609 233.016639 
L 369.377176 236.238043 
L 373.423621 239.843732 
L 376.484394 242.833755 
L 379.597044 246.129365 
L 382.865326 249.878876 
L 386.963649 254.981081 
L 397.339149 268.241677 
L 399.829269 270.959153 
L 402.475022 273.512031 
L 405.328284 275.890823 
L 408.337179 278.048768 
L 411.346074 279.934296 
L 415.081254 282.016395 
L 421.358432 285.202685 
L 426.649937 287.981931 
L 431.78581 290.760413 
L 431.78581 290.760413 
" clip-path="url(#p485c55162f)" style="fill: none; stroke: #d62728; stroke-width: 1.5; stroke-linecap: square"/>
   </g>
   <g id="line2d_19">
    <defs>
     <path id="m2c6f4e707b" d="M 0 1.5 
C 0.397805 1.5 0.77937 1.341951 1.06066 1.06066 
C 1.341951 0.77937 1.5 0.397805 1.5 0 
C 1.5 -0.397805 1.341951 -0.77937 1.06066 -1.06066 
C 0.77937 -1.341951 0.397805 -1.5 0 -1.5 
C -0.397805 -1.5 -0.77937 -1.341951 -1.06066 -1.06066 
C -1.341951 -0.77937 -1.5 -0.397805 -1.5 0 
C -1.5 0.397805 -1.341951 0.77937 -1.06066 1.06066 
C -0.77937 1.341951 -0.397805 1.5 0 1.5 
z
" style="stroke: #000000"/>
    </defs>
    <g clip-path="url(#p485c55162f)">
     <use xlink:href="#m2c6f4e707b" x="67.502" y="163.035855" style="stroke: #000000"/>
     <use xlink:href="#m2c6f4e707b" x="78.315405" y="163.324549" style="stroke: #000000"/>
     <use xlink:href="#m2c6f4e707b" x="89.128809" y="163.741071" style="stroke: #000000"/>
     <use xlink:href="#m2c6f4e707b" x="99.942214" y="164.332725" style="stroke: #000000"/>
     <use xlink:href="#m2c6f4e707b" x="110.755619" y="165.103615" style="stroke: #000000"/>
     <use xlink:href="#m2c6f4e707b" x="121.569023" y="166.048022" style="stroke: #000000"/>
     <use xlink:href="#m2c6f4e707b" x="132.382428" y="167.155089" style="stroke: #000000"/>
     <use xlink:href="#m2c6f4e707b" x="143.195833" y="168.412087" style="stroke: #000000"/>
     <use xlink:href="#m2c6f4e707b" x="154.009237" y="169.808485" style="stroke: #000000"/>
     <use xlink:href="#m2c6f4e707b" x="164.822642" y="171.338011" style="stroke: #000000"/>
     <use xlink:href="#m2c6f4e707b" x="175.636047" y="172.994548" style="stroke: #000000"/>
     <use xlink:href="#m2c6f4e707b" x="186.449452" y="174.771433" style="stroke: #000000"/>
     <use xlink:href="#m2c6f4e707b" x="197.262856" y="176.667339" style="stroke: #000000"/>
     <use xlink:href="#m2c6f4e707b" x="208.076261" y="178.684226" style="stroke: #000000"/>
     <use xlink:href="#m2c6f4e707b" x="218.889666" y="180.821454" style="stroke: #000000"/>
     <use xlink:href="#m2c6f4e707b" x="229.70307" y="183.083142" style="stroke: #000000"/>
     <use xlink:href="#m2c6f4e707b" x="240.516475" y="185.479994" style="stroke: #000000"/>
     <use xlink:href="#m2c6f4e707b" x="251.32988" y="188.018389" style="stroke: #000000"/>
     <use xlink:href="#m2c6f4e707b" x="262.143284" y="190.710573" style="stroke: #000000"/>
     <use xlink:href="#m2c6f4e707b" x="272.956689" y="193.580568" style="stroke: #000000"/>
     <use xlink:href="#m2c6f4e707b" x="283.770094" y="196.646101" style="stroke: #000000"/>
     <use xlink:href="#m2c6f4e707b" x="294.583498" y="199.93944" style="stroke: #000000"/>
     <use xlink:href="#m2c6f4e707b" x="305.396903" y="203.511715" style="stroke: #000000"/>
     <use xlink:href="#m2c6f4e707b" x="316.210308" y="207.409866" style="stroke: #000000"/>
     <use xlink:href="#m2c6f4e707b" x="327.023712" y="211.730465" style="stroke: #000000"/>
     <use xlink:href="#m2c6f4e707b" x="337.837117" y="216.597399" style="stroke: #000000"/>
     <use xlink:href="#m2c6f4e707b" x="348.650522" y="222.201859" style="stroke: #000000"/>
     <use xlink:href="#m2c6f4e707b" x="359.463926" y="228.887168" style="stroke: #000000"/>
     <use xlink:href="#m2c6f4e707b" x="370.277331" y="237.198323" style="stroke: #000000"/>
     <use xlink:href="#m2c6f4e707b" x="381.090736" y="248.065048" style="stroke: #000000"/>
     <use xlink:href="#m2c6f4e707b" x="391.904141" y="261.784103" style="stroke: #000000"/>
     <use xlink:href="#m2c6f4e707b" x="402.717545" y="273.949184" style="stroke: #000000"/>
     <use xlink:href="#m2c6f4e707b" x="413.53095" y="281.316811" style="stroke: #000000"/>
     <use xlink:href="#m2c6f4e707b" x="424.344355" y="286.863959" style="stroke: #000000"/>
     <use xlink:href="#m2c6f4e707b" x="431.361264" y="290.690784" style="stroke: #000000"/>
    </g>
   </g>
   <g id="line2d_20">
    <g clip-path="url(#p485c55162f)">
     <use xlink:href="#m2c6f4e707b" x="67.502" y="163.035855" style="stroke: #000000"/>
     <use xlink:href="#m2c6f4e707b" x="78.315405" y="179.852161" style="stroke: #000000"/>
     <use xlink:href="#m2c6f4e707b" x="89.128809" y="193.628845" style="stroke: #000000"/>
     <use xlink:href="#m2c6f4e707b" x="99.942214" y="205.902998" style="stroke: #000000"/>
     <use xlink:href="#m2c6f4e707b" x="110.755619" y="217.216809" style="stroke: #000000"/>
     <use xlink:href="#m2c6f4e707b" x="121.569023" y="227.981873" style="stroke: #000000"/>
     <use xlink:href="#m2c6f4e707b" x="132.382428" y="238.426011" style="stroke: #000000"/>
     <use xlink:href="#m2c6f4e707b" x="143.195833" y="248.423843" style="stroke: #000000"/>
     <use xlink:href="#m2c6f4e707b" x="154.009237" y="257.165833" style="stroke: #000000"/>
     <use xlink:href="#m2c6f4e707b" x="164.822642" y="263.4152" style="stroke: #000000"/>
     <use xlink:href="#m2c6f4e707b" x="175.636047" y="267.004986" style="stroke: #000000"/>
     <use xlink:href="#m2c6f4e707b" x="186.449452" y="269.055638" style="stroke: #000000"/>
     <use xlink:href="#m2c6f4e707b" x="197.262856" y="270.636906" style="stroke: #000000"/>
     <use xlink:href="#m2c6f4e707b" x="208.076261" y="272.072605" style="stroke: #000000"/>
     <use xlink:href="#m2c6f4e707b" x="218.889666" y="273.268892" style="stroke: #000000"/>
     <use xlink:href="#m2c6f4e707b" x="229.70307" y="274.318622" style="stroke: #000000"/>
     <use xlink:href="#m2c6f4e707b" x="240.516475" y="275.33885" style="stroke: #000000"/>
     <use xlink:href="#m2c6f4e707b" x="251.32988" y="276.26346" style="stroke: #000000"/>
     <use xlink:href="#m2c6f4e707b" x="262.143284" y="277.100533" style="stroke: #000000"/>
     <use xlink:href="#m2c6f4e707b" x="272.956689" y="277.922618" style="stroke: #000000"/>
     <use xlink:href="#m2c6f4e707b" x="283.770094" y="278.697221" style="stroke: #000000"/>
     <use xlink:href="#m2c6f4e707b" x="294.583498" y="279.422535" style="stroke: #000000"/>
     <use xlink:href="#m2c6f4e707b" x="305.396903" y="280.140031" style="stroke: #000000"/>
     <use xlink:href="#m2c6f4e707b" x="316.210308" y="280.828988" style="stroke: #000000"/>
     <use xlink:href="#m2c6f4e707b" x="327.023712" y="281.497691" style="stroke: #000000"/>
     <use xlink:href="#m2c6f4e707b" x="337.837117" y="282.163691" style="stroke: #000000"/>
     <use xlink:href="#m2c6f4e707b" x="348.650522" y="282.817575" style="stroke: #000000"/>
     <use xlink:href="#m2c6f4e707b" x="359.463926" y="283.476521" style="stroke: #000000"/>
     <use xlink:href="#m2c6f4e707b" x="370.277331" y="284.146227" style="stroke: #000000"/>
     <use xlink:href="#m2c6f4e707b" x="381.090736" y="284.849379" style="stroke: #000000"/>
     <use xlink:href="#m2c6f4e707b" x="391.904141" y="285.646301" style="stroke: #000000"/>
     <use xlink:href="#m2c6f4e707b" x="402.717545" y="286.73344" style="stroke: #000000"/>
     <use xlink:href="#m2c6f4e707b" x="413.53095" y="288.317156" style="stroke: #000000"/>
     <use xlink:href="#m2c6f4e707b" x="424.344355" y="289.90594" style="stroke: #000000"/>
     <use xlink:href="#m2c6f4e707b" x="431.361264" y="291.020288" style="stroke: #000000"/>
    </g>
   </g>
   <g id="line2d_21">
    <g clip-path="url(#p485c55162f)">
     <use xlink:href="#m2c6f4e707b" x="67.502" y="164.903461" style="stroke: #000000"/>
     <use xlink:href="#m2c6f4e707b" x="78.315405" y="149.372949" style="stroke: #000000"/>
     <use xlink:href="#m2c6f4e707b" x="89.128809" y="140.676059" style="stroke: #000000"/>
     <use xlink:href="#m2c6f4e707b" x="99.942214" y="133.19929" style="stroke: #000000"/>
     <use xlink:href="#m2c6f4e707b" x="110.755619" y="126.430944" style="stroke: #000000"/>
     <use xlink:href="#m2c6f4e707b" x="121.569023" y="120.097719" style="stroke: #000000"/>
     <use xlink:href="#m2c6f4e707b" x="132.382428" y="114.03614" style="stroke: #000000"/>
     <use xlink:href="#m2c6f4e707b" x="143.195833" y="108.141504" style="stroke: #000000"/>
     <use xlink:href="#m2c6f4e707b" x="154.009237" y="102.344786" style="stroke: #000000"/>
     <use xlink:href="#m2c6f4e707b" x="164.822642" y="96.60079" style="stroke: #000000"/>
     <use xlink:href="#m2c6f4e707b" x="175.636047" y="90.882888" style="stroke: #000000"/>
     <use xlink:href="#m2c6f4e707b" x="186.449452" y="85.187641" style="stroke: #000000"/>
     <use xlink:href="#m2c6f4e707b" x="197.262856" y="79.542214" style="stroke: #000000"/>
     <use xlink:href="#m2c6f4e707b" x="208.076261" y="74.010062" style="stroke: #000000"/>
     <use xlink:href="#m2c6f4e707b" x="218.889666" y="68.698851" style="stroke: #000000"/>
     <use xlink:href="#m2c6f4e707b" x="229.70307" y="63.763621" style="stroke: #000000"/>
     <use xlink:href="#m2c6f4e707b" x="240.516475" y="59.382527" style="stroke: #000000"/>
     <use xlink:href="#m2c6f4e707b" x="251.32988" y="55.697596" style="stroke: #000000"/>
     <use xlink:href="#m2c6f4e707b" x="262.143284" y="52.747941" style="stroke: #000000"/>
     <use xlink:href="#m2c6f4e707b" x="272.956689" y="50.449969" style="stroke: #000000"/>
     <use xlink:href="#m2c6f4e707b" x="283.770094" y="48.650797" style="stroke: #000000"/>
     <use xlink:href="#m2c6f4e707b" x="294.583498" y="47.206933" style="stroke: #000000"/>
     <use xlink:href="#m2c6f4e707b" x="305.396903" y="46.020361" style="stroke: #000000"/>
     <use xlink:href="#m2c6f4e707b" x="316.210308" y="45.026312" style="stroke: #000000"/>
     <use xlink:href="#m2c6f4e707b" x="327.023712" y="44.177209" style="stroke: #000000"/>
     <use xlink:href="#m2c6f4e707b" x="337.837117" y="43.440571" style="stroke: #000000"/>
     <use xlink:href="#m2c6f4e707b" x="348.650522" y="42.794327" style="stroke: #000000"/>
     <use xlink:href="#m2c6f4e707b" x="359.463926" y="42.220547" style="stroke: #000000"/>
     <use xlink:href="#m2c6f4e707b" x="370.277331" y="41.705558" style="stroke: #000000"/>
     <use xlink:href="#m2c6f4e707b" x="381.090736" y="41.238962" style="stroke: #000000"/>
     <use xlink:href="#m2c6f4e707b" x="391.904141" y="40.81155" style="stroke: #000000"/>
     <use xlink:href="#m2c6f4e707b" x="402.717545" y="40.416365" style="stroke: #000000"/>
     <use xlink:href="#m2c6f4e707b" x="413.53095" y="40.047674" style="stroke: #000000"/>
     <use xlink:href="#m2c6f4e707b" x="424.344355" y="39.695873" style="stroke: #000000"/>
     <use xlink:href="#m2c6f4e707b" x="431.361264" y="39.468018" style="stroke: #000000"/>
    </g>
   </g>
   <g id="line2d_22">
    <g clip-path="url(#p485c55162f)">
     <use xlink:href="#m2c6f4e707b" x="67.502" y="164.903461" style="stroke: #000000"/>
     <use xlink:href="#m2c6f4e707b" x="78.315405" y="164.373404" style="stroke: #000000"/>
     <use xlink:href="#m2c6f4e707b" x="89.128809" y="163.358911" style="stroke: #000000"/>
     <use xlink:href="#m2c6f4e707b" x="99.942214" y="161.967038" style="stroke: #000000"/>
     <use xlink:href="#m2c6f4e707b" x="110.755619" y="160.300885" style="stroke: #000000"/>
     <use xlink:href="#m2c6f4e707b" x="121.569023" y="158.432014" style="stroke: #000000"/>
     <use xlink:href="#m2c6f4e707b" x="132.382428" y="156.408763" style="stroke: #000000"/>
     <use xlink:href="#m2c6f4e707b" x="143.195833" y="154.265121" style="stroke: #000000"/>
     <use xlink:href="#m2c6f4e707b" x="154.009237" y="152.026571" style="stroke: #000000"/>
     <use xlink:href="#m2c6f4e707b" x="164.822642" y="149.713676" style="stroke: #000000"/>
     <use xlink:href="#m2c6f4e707b" x="175.636047" y="147.343691" style="stroke: #000000"/>
     <use xlink:href="#m2c6f4e707b" x="186.449452" y="144.930366" style="stroke: #000000"/>
     <use xlink:href="#m2c6f4e707b" x="197.262856" y="142.48463" style="stroke: #000000"/>
     <use xlink:href="#m2c6f4e707b" x="208.076261" y="140.015801" style="stroke: #000000"/>
     <use xlink:href="#m2c6f4e707b" x="218.889666" y="137.531137" style="stroke: #000000"/>
     <use xlink:href="#m2c6f4e707b" x="229.70307" y="135.034961" style="stroke: #000000"/>
     <use xlink:href="#m2c6f4e707b" x="240.516475" y="132.529173" style="stroke: #000000"/>
     <use xlink:href="#m2c6f4e707b" x="251.32988" y="130.013621" style="stroke: #000000"/>
     <use xlink:href="#m2c6f4e707b" x="262.143284" y="127.485637" style="stroke: #000000"/>
     <use xlink:href="#m2c6f4e707b" x="272.956689" y="124.94025" style="stroke: #000000"/>
     <use xlink:href="#m2c6f4e707b" x="283.770094" y="122.370722" style="stroke: #000000"/>
     <use xlink:href="#m2c6f4e707b" x="294.583498" y="119.768189" style="stroke: #000000"/>
     <use xlink:href="#m2c6f4e707b" x="305.396903" y="117.121418" style="stroke: #000000"/>
     <use xlink:href="#m2c6f4e707b" x="316.210308" y="114.416844" style="stroke: #000000"/>
     <use xlink:href="#m2c6f4e707b" x="327.023712" y="111.637542" style="stroke: #000000"/>
     <use xlink:href="#m2c6f4e707b" x="337.837117" y="108.762274" style="stroke: #000000"/>
     <use xlink:href="#m2c6f4e707b" x="348.650522" y="105.764574" style="stroke: #000000"/>
     <use xlink:href="#m2c6f4e707b" x="359.463926" y="102.609963" style="stroke: #000000"/>
     <use xlink:href="#m2c6f4e707b" x="370.277331" y="99.253173" style="stroke: #000000"/>
     <use xlink:href="#m2c6f4e707b" x="381.090736" y="95.63297" style="stroke: #000000"/>
     <use xlink:href="#m2c6f4e707b" x="391.904141" y="91.663463" style="stroke: #000000"/>
     <use xlink:href="#m2c6f4e707b" x="402.717545" y="87.218882" style="stroke: #000000"/>
     <use xlink:href="#m2c6f4e707b" x="413.53095" y="82.106453" style="stroke: #000000"/>
     <use xlink:href="#m2c6f4e707b" x="424.344355" y="76.045679" style="stroke: #000000"/>
     <use xlink:href="#m2c6f4e707b" x="431.361264" y="71.422845" style="stroke: #000000"/>
    </g>
   </g>
   <g id="patch_3">
    <path d="M 67.502 303.64 
L 67.502 26.88 
" style="fill: none; stroke: #000000; stroke-width: 0.8; stroke-linejoin: miter; stroke-linecap: square"/>
   </g>
   <g id="patch_4">
    <path d="M 450 303.64 
L 450 26.88 
" style="fill: none; stroke: #000000; stroke-width: 0.8; stroke-linejoin: miter; stroke-linecap: square"/>
   </g>
   <g id="patch_5">
    <path d="M 67.502 303.64 
L 450 303.64 
" style="fill: none; stroke: #000000; stroke-width: 0.8; stroke-linejoin: miter; stroke-linecap: square"/>
   </g>
   <g id="patch_6">
    <path d="M 67.502 26.88 
L 450 26.88 
" style="fill: none; stroke: #000000; stroke-width: 0.8; stroke-linejoin: miter; stroke-linecap: square"/>
   </g>
   <g id="text_17">
    <!-- Figure 5c -->
    <g transform="translate(231.40975 20.88) scale(0.12 -0.12)">
     <defs>
      <path id="DejaVuSans-46" d="M 628 4666 
L 3309 4666 
L 3309 4134 
L 1259 4134 
L 1259 2759 
L 3109 2759 
L 3109 2228 
L 1259 2228 
L 1259 0 
L 628 0 
L 628 4666 
z
" transform="scale(0.015625)"/>
      <path id="DejaVuSans-67" d="M 2906 1791 
Q 2906 2416 2648 2759 
Q 2391 3103 1925 3103 
Q 1463 3103 1205 2759 
Q 947 2416 947 1791 
Q 947 1169 1205 825 
Q 1463 481 1925 481 
Q 2391 481 2648 825 
Q 2906 1169 2906 1791 
z
M 3481 434 
Q 3481 -459 3084 -895 
Q 2688 -1331 1869 -1331 
Q 1566 -1331 1297 -1286 
Q 1028 -1241 775 -1147 
L 775 -588 
Q 1028 -725 1275 -790 
Q 1522 -856 1778 -856 
Q 2344 -856 2625 -561 
Q 2906 -266 2906 331 
L 2906 616 
Q 2728 306 2450 153 
Q 2172 0 1784 0 
Q 1141 0 747 490 
Q 353 981 353 1791 
Q 353 2603 747 3093 
Q 1141 3584 1784 3584 
Q 2172 3584 2450 3431 
Q 2728 3278 2906 2969 
L 2906 3500 
L 3481 3500 
L 3481 434 
z
" transform="scale(0.015625)"/>
      <path id="DejaVuSans-75" d="M 544 1381 
L 544 3500 
L 1119 3500 
L 1119 1403 
Q 1119 906 1312 657 
Q 1506 409 1894 409 
Q 2359 409 2629 706 
Q 2900 1003 2900 1516 
L 2900 3500 
L 3475 3500 
L 3475 0 
L 2900 0 
L 2900 538 
Q 2691 219 2414 64 
Q 2138 -91 1772 -91 
Q 1169 -91 856 284 
Q 544 659 544 1381 
z
M 1991 3584 
L 1991 3584 
z
" transform="scale(0.015625)"/>
     </defs>
     <use xlink:href="#DejaVuSans-46"/>
     <use xlink:href="#DejaVuSans-69" x="50.269531"/>
     <use xlink:href="#DejaVuSans-67" x="78.052734"/>
     <use xlink:href="#DejaVuSans-75" x="141.529297"/>
     <use xlink:href="#DejaVuSans-72" x="204.908203"/>
     <use xlink:href="#DejaVuSans-65" x="243.771484"/>
     <use xlink:href="#DejaVuSans-20" x="305.294922"/>
     <use xlink:href="#DejaVuSans-35" x="337.082031"/>
     <use xlink:href="#DejaVuSans-63" x="400.705078"/>
    </g>
   </g>
   <g id="legend_1">
    <g id="patch_7">
     <path d="M 284.904688 203.455312 
L 443 203.455312 
Q 445 203.455312 445 201.455312 
L 445 129.064687 
Q 445 127.064687 443 127.064687 
L 284.904688 127.064687 
Q 282.904688 127.064687 282.904688 129.064687 
L 282.904688 201.455312 
Q 282.904688 203.455312 284.904688 203.455312 
z
" style="fill: #ffffff; opacity: 0.8; stroke: #cccccc; stroke-linejoin: miter"/>
    </g>
    <g id="line2d_23">
     <path d="M 286.904688 135.163125 
L 296.904688 135.163125 
L 306.904688 135.163125 
" style="fill: none; stroke: #1f77b4; stroke-width: 1.5; stroke-linecap: square"/>
    </g>
    <g id="text_18">
     <!-- anode/curent collector -->
     <g transform="translate(314.904688 138.663125) scale(0.1 -0.1)">
      <use xlink:href="#DejaVuSans-61"/>
      <use xlink:href="#DejaVuSans-6e" x="61.279297"/>
      <use xlink:href="#DejaVuSans-6f" x="124.658203"/>
      <use xlink:href="#DejaVuSans-64" x="185.839844"/>
      <use xlink:href="#DejaVuSans-65" x="249.316406"/>
      <use xlink:href="#DejaVuSans-2f" x="310.839844"/>
      <use xlink:href="#DejaVuSans-63" x="344.53125"/>
      <use xlink:href="#DejaVuSans-75" x="399.511719"/>
      <use xlink:href="#DejaVuSans-72" x="462.890625"/>
      <use xlink:href="#DejaVuSans-65" x="501.753906"/>
      <use xlink:href="#DejaVuSans-6e" x="563.277344"/>
      <use xlink:href="#DejaVuSans-74" x="626.65625"/>
      <use xlink:href="#DejaVuSans-20" x="665.865234"/>
      <use xlink:href="#DejaVuSans-63" x="697.652344"/>
      <use xlink:href="#DejaVuSans-6f" x="752.632812"/>
      <use xlink:href="#DejaVuSans-6c" x="813.814453"/>
      <use xlink:href="#DejaVuSans-6c" x="841.597656"/>
      <use xlink:href="#DejaVuSans-65" x="869.380859"/>
      <use xlink:href="#DejaVuSans-63" x="930.904297"/>
      <use xlink:href="#DejaVuSans-74" x="985.884766"/>
      <use xlink:href="#DejaVuSans-6f" x="1025.09375"/>
      <use xlink:href="#DejaVuSans-72" x="1086.275391"/>
     </g>
    </g>
    <g id="line2d_24">
     <path d="M 286.904688 149.84125 
L 296.904688 149.84125 
L 306.904688 149.84125 
" style="fill: none; stroke: #ff7f0e; stroke-width: 1.5; stroke-linecap: square"/>
    </g>
    <g id="text_19">
     <!-- anode/separator -->
     <g transform="translate(314.904688 153.34125) scale(0.1 -0.1)">
      <defs>
       <path id="DejaVuSans-70" d="M 1159 525 
L 1159 -1331 
L 581 -1331 
L 581 3500 
L 1159 3500 
L 1159 2969 
Q 1341 3281 1617 3432 
Q 1894 3584 2278 3584 
Q 2916 3584 3314 3078 
Q 3713 2572 3713 1747 
Q 3713 922 3314 415 
Q 2916 -91 2278 -91 
Q 1894 -91 1617 61 
Q 1341 213 1159 525 
z
M 3116 1747 
Q 3116 2381 2855 2742 
Q 2594 3103 2138 3103 
Q 1681 3103 1420 2742 
Q 1159 2381 1159 1747 
Q 1159 1113 1420 752 
Q 1681 391 2138 391 
Q 2594 391 2855 752 
Q 3116 1113 3116 1747 
z
" transform="scale(0.015625)"/>
      </defs>
      <use xlink:href="#DejaVuSans-61"/>
      <use xlink:href="#DejaVuSans-6e" x="61.279297"/>
      <use xlink:href="#DejaVuSans-6f" x="124.658203"/>
      <use xlink:href="#DejaVuSans-64" x="185.839844"/>
      <use xlink:href="#DejaVuSans-65" x="249.316406"/>
      <use xlink:href="#DejaVuSans-2f" x="310.839844"/>
      <use xlink:href="#DejaVuSans-73" x="344.53125"/>
      <use xlink:href="#DejaVuSans-65" x="396.630859"/>
      <use xlink:href="#DejaVuSans-70" x="458.154297"/>
      <use xlink:href="#DejaVuSans-61" x="521.630859"/>
      <use xlink:href="#DejaVuSans-72" x="582.910156"/>
      <use xlink:href="#DejaVuSans-61" x="624.023438"/>
      <use xlink:href="#DejaVuSans-74" x="685.302734"/>
      <use xlink:href="#DejaVuSans-6f" x="724.511719"/>
      <use xlink:href="#DejaVuSans-72" x="785.693359"/>
     </g>
    </g>
    <g id="line2d_25">
     <path d="M 286.904688 164.519375 
L 296.904688 164.519375 
L 306.904688 164.519375 
" style="fill: none; stroke: #2ca02c; stroke-width: 1.5; stroke-linecap: square"/>
    </g>
    <g id="text_20">
     <!-- cathode/separator -->
     <g transform="translate(314.904688 168.019375) scale(0.1 -0.1)">
      <defs>
       <path id="DejaVuSans-68" d="M 3513 2113 
L 3513 0 
L 2938 0 
L 2938 2094 
Q 2938 2591 2744 2837 
Q 2550 3084 2163 3084 
Q 1697 3084 1428 2787 
Q 1159 2491 1159 1978 
L 1159 0 
L 581 0 
L 581 4863 
L 1159 4863 
L 1159 2956 
Q 1366 3272 1645 3428 
Q 1925 3584 2291 3584 
Q 2894 3584 3203 3211 
Q 3513 2838 3513 2113 
z
" transform="scale(0.015625)"/>
      </defs>
      <use xlink:href="#DejaVuSans-63"/>
      <use xlink:href="#DejaVuSans-61" x="54.980469"/>
      <use xlink:href="#DejaVuSans-74" x="116.259766"/>
      <use xlink:href="#DejaVuSans-68" x="155.46875"/>
      <use xlink:href="#DejaVuSans-6f" x="218.847656"/>
      <use xlink:href="#DejaVuSans-64" x="280.029297"/>
      <use xlink:href="#DejaVuSans-65" x="343.505859"/>
      <use xlink:href="#DejaVuSans-2f" x="405.029297"/>
      <use xlink:href="#DejaVuSans-73" x="438.720703"/>
      <use xlink:href="#DejaVuSans-65" x="490.820312"/>
      <use xlink:href="#DejaVuSans-70" x="552.34375"/>
      <use xlink:href="#DejaVuSans-61" x="615.820312"/>
      <use xlink:href="#DejaVuSans-72" x="677.099609"/>
      <use xlink:href="#DejaVuSans-61" x="718.212891"/>
      <use xlink:href="#DejaVuSans-74" x="779.492188"/>
      <use xlink:href="#DejaVuSans-6f" x="818.701172"/>
      <use xlink:href="#DejaVuSans-72" x="879.882812"/>
     </g>
    </g>
    <g id="line2d_26">
     <path d="M 286.904688 179.1975 
L 296.904688 179.1975 
L 306.904688 179.1975 
" style="fill: none; stroke: #d62728; stroke-width: 1.5; stroke-linecap: square"/>
    </g>
    <g id="text_21">
     <!-- cathode/current collector -->
     <g transform="translate(314.904688 182.6975) scale(0.1 -0.1)">
      <use xlink:href="#DejaVuSans-63"/>
      <use xlink:href="#DejaVuSans-61" x="54.980469"/>
      <use xlink:href="#DejaVuSans-74" x="116.259766"/>
      <use xlink:href="#DejaVuSans-68" x="155.46875"/>
      <use xlink:href="#DejaVuSans-6f" x="218.847656"/>
      <use xlink:href="#DejaVuSans-64" x="280.029297"/>
      <use xlink:href="#DejaVuSans-65" x="343.505859"/>
      <use xlink:href="#DejaVuSans-2f" x="405.029297"/>
      <use xlink:href="#DejaVuSans-63" x="438.720703"/>
      <use xlink:href="#DejaVuSans-75" x="493.701172"/>
      <use xlink:href="#DejaVuSans-72" x="557.080078"/>
      <use xlink:href="#DejaVuSans-72" x="596.443359"/>
      <use xlink:href="#DejaVuSans-65" x="635.306641"/>
      <use xlink:href="#DejaVuSans-6e" x="696.830078"/>
      <use xlink:href="#DejaVuSans-74" x="760.208984"/>
      <use xlink:href="#DejaVuSans-20" x="799.417969"/>
      <use xlink:href="#DejaVuSans-63" x="831.205078"/>
      <use xlink:href="#DejaVuSans-6f" x="886.185547"/>
      <use xlink:href="#DejaVuSans-6c" x="947.367188"/>
      <use xlink:href="#DejaVuSans-6c" x="975.150391"/>
      <use xlink:href="#DejaVuSans-65" x="1002.933594"/>
      <use xlink:href="#DejaVuSans-63" x="1064.457031"/>
      <use xlink:href="#DejaVuSans-74" x="1119.4375"/>
      <use xlink:href="#DejaVuSans-6f" x="1158.646484"/>
      <use xlink:href="#DejaVuSans-72" x="1219.828125"/>
     </g>
    </g>
    <g id="line2d_27">
     <g>
      <use xlink:href="#m2c6f4e707b" x="296.904688" y="193.875625" style="stroke: #000000"/>
     </g>
    </g>
    <g id="text_22">
     <!-- mpet -->
     <g transform="translate(314.904688 197.375625) scale(0.1 -0.1)">
      <use xlink:href="#DejaVuSans-6d"/>
      <use xlink:href="#DejaVuSans-70" x="97.412109"/>
      <use xlink:href="#DejaVuSans-65" x="160.888672"/>
      <use xlink:href="#DejaVuSans-74" x="222.412109"/>
     </g>
    </g>
   </g>
  </g>
 </g>
 <defs>
  <clipPath id="p485c55162f">
   <rect x="67.502" y="26.88" width="382.498" height="276.76"/>
  </clipPath>
 </defs>
</svg>
