<?xml version="1.0" encoding="utf-8" standalone="no"?>
<!DOCTYPE svg PUBLIC "-//W3C//DTD SVG 1.1//EN"
  "http://www.w3.org/Graphics/SVG/1.1/DTD/svg11.dtd">
<svg xmlns:xlink="http://www.w3.org/1999/xlink" width="460.8pt" height="345.6pt" viewBox="0 0 460.8 345.6" xmlns="http://www.w3.org/2000/svg" version="1.1">
 <metadata>
  <rdf:RDF xmlns:dc="http://purl.org/dc/elements/1.1/" xmlns:cc="http://creativecommons.org/ns#" xmlns:rdf="http://www.w3.org/1999/02/22-rdf-syntax-ns#">
   <cc:Work>
    <dc:type rdf:resource="http://purl.org/dc/dcmitype/StillImage"/>
    <dc:date>2024-03-28T18:57:51.863501</dc:date>
    <dc:format>image/svg+xml</dc:format>
    <dc:creator>
     <cc:Agent>
      <dc:title>Matplotlib v3.8.2, https://matplotlib.org/</dc:title>
     </cc:Agent>
    </dc:creator>
   </cc:Work>
  </rdf:RDF>
 </metadata>
 <defs>
  <style type="text/css">*{stroke-linejoin: round; stroke-linecap: butt}</style>
 </defs>
 <g id="figure_1">
  <g id="patch_1">
   <path d="M 0 345.6 
L 460.8 345.6 
L 460.8 0 
L 0 0 
z
" style="fill: #ffffff"/>
  </g>
  <g id="axes_1">
   <g id="patch_2">
    <path d="M 62.642 303.64 
L 450 303.64 
L 450 26.88 
L 62.642 26.88 
z
" style="fill: #ffffff"/>
   </g>
   <g id="matplotlib.axis_1">
    <g id="xtick_1">
     <g id="line2d_1">
      <defs>
       <path id="m88b44d617f" d="M 0 0 
L 0 3.5 
" style="stroke: #000000; stroke-width: 0.8"/>
      </defs>
      <g>
       <use xlink:href="#m88b44d617f" x="62.642" y="303.64" style="stroke: #000000; stroke-width: 0.8"/>
      </g>
     </g>
     <g id="text_1">
      <!-- 0 -->
      <g transform="translate(59.46075 318.238437) scale(0.1 -0.1)">
       <defs>
        <path id="DejaVuSans-30" d="M 2034 4250 
Q 1547 4250 1301 3770 
Q 1056 3291 1056 2328 
Q 1056 1369 1301 889 
Q 1547 409 2034 409 
Q 2525 409 2770 889 
Q 3016 1369 3016 2328 
Q 3016 3291 2770 3770 
Q 2525 4250 2034 4250 
z
M 2034 4750 
Q 2819 4750 3233 4129 
Q 3647 3509 3647 2328 
Q 3647 1150 3233 529 
Q 2819 -91 2034 -91 
Q 1250 -91 836 529 
Q 422 1150 422 2328 
Q 422 3509 836 4129 
Q 1250 4750 2034 4750 
z
" transform="scale(0.015625)"/>
       </defs>
       <use xlink:href="#DejaVuSans-30"/>
      </g>
     </g>
    </g>
    <g id="xtick_2">
     <g id="line2d_2">
      <g>
       <use xlink:href="#m88b44d617f" x="115.178654" y="303.64" style="stroke: #000000; stroke-width: 0.8"/>
      </g>
     </g>
     <g id="text_2">
      <!-- 500 -->
      <g transform="translate(105.634904 318.238437) scale(0.1 -0.1)">
       <defs>
        <path id="DejaVuSans-35" d="M 691 4666 
L 3169 4666 
L 3169 4134 
L 1269 4134 
L 1269 2991 
Q 1406 3038 1543 3061 
Q 1681 3084 1819 3084 
Q 2600 3084 3056 2656 
Q 3513 2228 3513 1497 
Q 3513 744 3044 326 
Q 2575 -91 1722 -91 
Q 1428 -91 1123 -41 
Q 819 9 494 109 
L 494 744 
Q 775 591 1075 516 
Q 1375 441 1709 441 
Q 2250 441 2565 725 
Q 2881 1009 2881 1497 
Q 2881 1984 2565 2268 
Q 2250 2553 1709 2553 
Q 1456 2553 1204 2497 
Q 953 2441 691 2322 
L 691 4666 
z
" transform="scale(0.015625)"/>
       </defs>
       <use xlink:href="#DejaVuSans-35"/>
       <use xlink:href="#DejaVuSans-30" x="63.623047"/>
       <use xlink:href="#DejaVuSans-30" x="127.246094"/>
      </g>
     </g>
    </g>
    <g id="xtick_3">
     <g id="line2d_3">
      <g>
       <use xlink:href="#m88b44d617f" x="167.715307" y="303.64" style="stroke: #000000; stroke-width: 0.8"/>
      </g>
     </g>
     <g id="text_3">
      <!-- 1000 -->
      <g transform="translate(154.990307 318.238437) scale(0.1 -0.1)">
       <defs>
        <path id="DejaVuSans-31" d="M 794 531 
L 1825 531 
L 1825 4091 
L 703 3866 
L 703 4441 
L 1819 4666 
L 2450 4666 
L 2450 531 
L 3481 531 
L 3481 0 
L 794 0 
L 794 531 
z
" transform="scale(0.015625)"/>
       </defs>
       <use xlink:href="#DejaVuSans-31"/>
       <use xlink:href="#DejaVuSans-30" x="63.623047"/>
       <use xlink:href="#DejaVuSans-30" x="127.246094"/>
       <use xlink:href="#DejaVuSans-30" x="190.869141"/>
      </g>
     </g>
    </g>
    <g id="xtick_4">
     <g id="line2d_4">
      <g>
       <use xlink:href="#m88b44d617f" x="220.251961" y="303.64" style="stroke: #000000; stroke-width: 0.8"/>
      </g>
     </g>
     <g id="text_4">
      <!-- 1500 -->
      <g transform="translate(207.526961 318.238437) scale(0.1 -0.1)">
       <use xlink:href="#DejaVuSans-31"/>
       <use xlink:href="#DejaVuSans-35" x="63.623047"/>
       <use xlink:href="#DejaVuSans-30" x="127.246094"/>
       <use xlink:href="#DejaVuSans-30" x="190.869141"/>
      </g>
     </g>
    </g>
    <g id="xtick_5">
     <g id="line2d_5">
      <g>
       <use xlink:href="#m88b44d617f" x="272.788614" y="303.64" style="stroke: #000000; stroke-width: 0.8"/>
      </g>
     </g>
     <g id="text_5">
      <!-- 2000 -->
      <g transform="translate(260.063614 318.238437) scale(0.1 -0.1)">
       <defs>
        <path id="DejaVuSans-32" d="M 1228 531 
L 3431 531 
L 3431 0 
L 469 0 
L 469 531 
Q 828 903 1448 1529 
Q 2069 2156 2228 2338 
Q 2531 2678 2651 2914 
Q 2772 3150 2772 3378 
Q 2772 3750 2511 3984 
Q 2250 4219 1831 4219 
Q 1534 4219 1204 4116 
Q 875 4013 500 3803 
L 500 4441 
Q 881 4594 1212 4672 
Q 1544 4750 1819 4750 
Q 2544 4750 2975 4387 
Q 3406 4025 3406 3419 
Q 3406 3131 3298 2873 
Q 3191 2616 2906 2266 
Q 2828 2175 2409 1742 
Q 1991 1309 1228 531 
z
" transform="scale(0.015625)"/>
       </defs>
       <use xlink:href="#DejaVuSans-32"/>
       <use xlink:href="#DejaVuSans-30" x="63.623047"/>
       <use xlink:href="#DejaVuSans-30" x="127.246094"/>
       <use xlink:href="#DejaVuSans-30" x="190.869141"/>
      </g>
     </g>
    </g>
    <g id="xtick_6">
     <g id="line2d_6">
      <g>
       <use xlink:href="#m88b44d617f" x="325.325268" y="303.64" style="stroke: #000000; stroke-width: 0.8"/>
      </g>
     </g>
     <g id="text_6">
      <!-- 2500 -->
      <g transform="translate(312.600268 318.238437) scale(0.1 -0.1)">
       <use xlink:href="#DejaVuSans-32"/>
       <use xlink:href="#DejaVuSans-35" x="63.623047"/>
       <use xlink:href="#DejaVuSans-30" x="127.246094"/>
       <use xlink:href="#DejaVuSans-30" x="190.869141"/>
      </g>
     </g>
    </g>
    <g id="xtick_7">
     <g id="line2d_7">
      <g>
       <use xlink:href="#m88b44d617f" x="377.861921" y="303.64" style="stroke: #000000; stroke-width: 0.8"/>
      </g>
     </g>
     <g id="text_7">
      <!-- 3000 -->
      <g transform="translate(365.136921 318.238437) scale(0.1 -0.1)">
       <defs>
        <path id="DejaVuSans-33" d="M 2597 2516 
Q 3050 2419 3304 2112 
Q 3559 1806 3559 1356 
Q 3559 666 3084 287 
Q 2609 -91 1734 -91 
Q 1441 -91 1130 -33 
Q 819 25 488 141 
L 488 750 
Q 750 597 1062 519 
Q 1375 441 1716 441 
Q 2309 441 2620 675 
Q 2931 909 2931 1356 
Q 2931 1769 2642 2001 
Q 2353 2234 1838 2234 
L 1294 2234 
L 1294 2753 
L 1863 2753 
Q 2328 2753 2575 2939 
Q 2822 3125 2822 3475 
Q 2822 3834 2567 4026 
Q 2313 4219 1838 4219 
Q 1578 4219 1281 4162 
Q 984 4106 628 3988 
L 628 4550 
Q 988 4650 1302 4700 
Q 1616 4750 1894 4750 
Q 2613 4750 3031 4423 
Q 3450 4097 3450 3541 
Q 3450 3153 3228 2886 
Q 3006 2619 2597 2516 
z
" transform="scale(0.015625)"/>
       </defs>
       <use xlink:href="#DejaVuSans-33"/>
       <use xlink:href="#DejaVuSans-30" x="63.623047"/>
       <use xlink:href="#DejaVuSans-30" x="127.246094"/>
       <use xlink:href="#DejaVuSans-30" x="190.869141"/>
      </g>
     </g>
    </g>
    <g id="xtick_8">
     <g id="line2d_8">
      <g>
       <use xlink:href="#m88b44d617f" x="430.398575" y="303.64" style="stroke: #000000; stroke-width: 0.8"/>
      </g>
     </g>
     <g id="text_8">
      <!-- 3500 -->
      <g transform="translate(417.673575 318.238437) scale(0.1 -0.1)">
       <use xlink:href="#DejaVuSans-33"/>
       <use xlink:href="#DejaVuSans-35" x="63.623047"/>
       <use xlink:href="#DejaVuSans-30" x="127.246094"/>
       <use xlink:href="#DejaVuSans-30" x="190.869141"/>
      </g>
     </g>
    </g>
    <g id="text_9">
     <!-- Time (s) -->
     <g transform="translate(235.992094 331.916562) scale(0.1 -0.1)">
      <defs>
       <path id="DejaVuSans-54" d="M -19 4666 
L 3928 4666 
L 3928 4134 
L 2272 4134 
L 2272 0 
L 1638 0 
L 1638 4134 
L -19 4134 
L -19 4666 
z
" transform="scale(0.015625)"/>
       <path id="DejaVuSans-69" d="M 603 3500 
L 1178 3500 
L 1178 0 
L 603 0 
L 603 3500 
z
M 603 4863 
L 1178 4863 
L 1178 4134 
L 603 4134 
L 603 4863 
z
" transform="scale(0.015625)"/>
       <path id="DejaVuSans-6d" d="M 3328 2828 
Q 3544 3216 3844 3400 
Q 4144 3584 4550 3584 
Q 5097 3584 5394 3201 
Q 5691 2819 5691 2113 
L 5691 0 
L 5113 0 
L 5113 2094 
Q 5113 2597 4934 2840 
Q 4756 3084 4391 3084 
Q 3944 3084 3684 2787 
Q 3425 2491 3425 1978 
L 3425 0 
L 2847 0 
L 2847 2094 
Q 2847 2600 2669 2842 
Q 2491 3084 2119 3084 
Q 1678 3084 1418 2786 
Q 1159 2488 1159 1978 
L 1159 0 
L 581 0 
L 581 3500 
L 1159 3500 
L 1159 2956 
Q 1356 3278 1631 3431 
Q 1906 3584 2284 3584 
Q 2666 3584 2933 3390 
Q 3200 3197 3328 2828 
z
" transform="scale(0.015625)"/>
       <path id="DejaVuSans-65" d="M 3597 1894 
L 3597 1613 
L 953 1613 
Q 991 1019 1311 708 
Q 1631 397 2203 397 
Q 2534 397 2845 478 
Q 3156 559 3463 722 
L 3463 178 
Q 3153 47 2828 -22 
Q 2503 -91 2169 -91 
Q 1331 -91 842 396 
Q 353 884 353 1716 
Q 353 2575 817 3079 
Q 1281 3584 2069 3584 
Q 2775 3584 3186 3129 
Q 3597 2675 3597 1894 
z
M 3022 2063 
Q 3016 2534 2758 2815 
Q 2500 3097 2075 3097 
Q 1594 3097 1305 2825 
Q 1016 2553 972 2059 
L 3022 2063 
z
" transform="scale(0.015625)"/>
       <path id="DejaVuSans-20" transform="scale(0.015625)"/>
       <path id="DejaVuSans-28" d="M 1984 4856 
Q 1566 4138 1362 3434 
Q 1159 2731 1159 2009 
Q 1159 1288 1364 580 
Q 1569 -128 1984 -844 
L 1484 -844 
Q 1016 -109 783 600 
Q 550 1309 550 2009 
Q 550 2706 781 3412 
Q 1013 4119 1484 4856 
L 1984 4856 
z
" transform="scale(0.015625)"/>
       <path id="DejaVuSans-73" d="M 2834 3397 
L 2834 2853 
Q 2591 2978 2328 3040 
Q 2066 3103 1784 3103 
Q 1356 3103 1142 2972 
Q 928 2841 928 2578 
Q 928 2378 1081 2264 
Q 1234 2150 1697 2047 
L 1894 2003 
Q 2506 1872 2764 1633 
Q 3022 1394 3022 966 
Q 3022 478 2636 193 
Q 2250 -91 1575 -91 
Q 1294 -91 989 -36 
Q 684 19 347 128 
L 347 722 
Q 666 556 975 473 
Q 1284 391 1588 391 
Q 1994 391 2212 530 
Q 2431 669 2431 922 
Q 2431 1156 2273 1281 
Q 2116 1406 1581 1522 
L 1381 1569 
Q 847 1681 609 1914 
Q 372 2147 372 2553 
Q 372 3047 722 3315 
Q 1072 3584 1716 3584 
Q 2034 3584 2315 3537 
Q 2597 3491 2834 3397 
z
" transform="scale(0.015625)"/>
       <path id="DejaVuSans-29" d="M 513 4856 
L 1013 4856 
Q 1481 4119 1714 3412 
Q 1947 2706 1947 2009 
Q 1947 1309 1714 600 
Q 1481 -109 1013 -844 
L 513 -844 
Q 928 -128 1133 580 
Q 1338 1288 1338 2009 
Q 1338 2731 1133 3434 
Q 928 4138 513 4856 
z
" transform="scale(0.015625)"/>
      </defs>
      <use xlink:href="#DejaVuSans-54"/>
      <use xlink:href="#DejaVuSans-69" x="57.958984"/>
      <use xlink:href="#DejaVuSans-6d" x="85.742188"/>
      <use xlink:href="#DejaVuSans-65" x="183.154297"/>
      <use xlink:href="#DejaVuSans-20" x="244.677734"/>
      <use xlink:href="#DejaVuSans-28" x="276.464844"/>
      <use xlink:href="#DejaVuSans-73" x="315.478516"/>
      <use xlink:href="#DejaVuSans-29" x="367.578125"/>
     </g>
    </g>
   </g>
   <g id="matplotlib.axis_2">
    <g id="ytick_1">
     <g id="line2d_9">
      <defs>
       <path id="m44a16d980b" d="M 0 0 
L -3.5 0 
" style="stroke: #000000; stroke-width: 0.8"/>
      </defs>
      <g>
       <use xlink:href="#m44a16d980b" x="62.642" y="278.590314" style="stroke: #000000; stroke-width: 0.8"/>
      </g>
     </g>
     <g id="text_10">
      <!-- 400 -->
      <g transform="translate(36.5545 282.389533) scale(0.1 -0.1)">
       <defs>
        <path id="DejaVuSans-34" d="M 2419 4116 
L 825 1625 
L 2419 1625 
L 2419 4116 
z
M 2253 4666 
L 3047 4666 
L 3047 1625 
L 3713 1625 
L 3713 1100 
L 3047 1100 
L 3047 0 
L 2419 0 
L 2419 1100 
L 313 1100 
L 313 1709 
L 2253 4666 
z
" transform="scale(0.015625)"/>
       </defs>
       <use xlink:href="#DejaVuSans-34"/>
       <use xlink:href="#DejaVuSans-30" x="63.623047"/>
       <use xlink:href="#DejaVuSans-30" x="127.246094"/>
      </g>
     </g>
    </g>
    <g id="ytick_2">
     <g id="line2d_10">
      <g>
       <use xlink:href="#m44a16d980b" x="62.642" y="229.574778" style="stroke: #000000; stroke-width: 0.8"/>
      </g>
     </g>
     <g id="text_11">
      <!-- 600 -->
      <g transform="translate(36.5545 233.373996) scale(0.1 -0.1)">
       <defs>
        <path id="DejaVuSans-36" d="M 2113 2584 
Q 1688 2584 1439 2293 
Q 1191 2003 1191 1497 
Q 1191 994 1439 701 
Q 1688 409 2113 409 
Q 2538 409 2786 701 
Q 3034 994 3034 1497 
Q 3034 2003 2786 2293 
Q 2538 2584 2113 2584 
z
M 3366 4563 
L 3366 3988 
Q 3128 4100 2886 4159 
Q 2644 4219 2406 4219 
Q 1781 4219 1451 3797 
Q 1122 3375 1075 2522 
Q 1259 2794 1537 2939 
Q 1816 3084 2150 3084 
Q 2853 3084 3261 2657 
Q 3669 2231 3669 1497 
Q 3669 778 3244 343 
Q 2819 -91 2113 -91 
Q 1303 -91 875 529 
Q 447 1150 447 2328 
Q 447 3434 972 4092 
Q 1497 4750 2381 4750 
Q 2619 4750 2861 4703 
Q 3103 4656 3366 4563 
z
" transform="scale(0.015625)"/>
       </defs>
       <use xlink:href="#DejaVuSans-36"/>
       <use xlink:href="#DejaVuSans-30" x="63.623047"/>
       <use xlink:href="#DejaVuSans-30" x="127.246094"/>
      </g>
     </g>
    </g>
    <g id="ytick_3">
     <g id="line2d_11">
      <g>
       <use xlink:href="#m44a16d980b" x="62.642" y="180.559241" style="stroke: #000000; stroke-width: 0.8"/>
      </g>
     </g>
     <g id="text_12">
      <!-- 800 -->
      <g transform="translate(36.5545 184.358459) scale(0.1 -0.1)">
       <defs>
        <path id="DejaVuSans-38" d="M 2034 2216 
Q 1584 2216 1326 1975 
Q 1069 1734 1069 1313 
Q 1069 891 1326 650 
Q 1584 409 2034 409 
Q 2484 409 2743 651 
Q 3003 894 3003 1313 
Q 3003 1734 2745 1975 
Q 2488 2216 2034 2216 
z
M 1403 2484 
Q 997 2584 770 2862 
Q 544 3141 544 3541 
Q 544 4100 942 4425 
Q 1341 4750 2034 4750 
Q 2731 4750 3128 4425 
Q 3525 4100 3525 3541 
Q 3525 3141 3298 2862 
Q 3072 2584 2669 2484 
Q 3125 2378 3379 2068 
Q 3634 1759 3634 1313 
Q 3634 634 3220 271 
Q 2806 -91 2034 -91 
Q 1263 -91 848 271 
Q 434 634 434 1313 
Q 434 1759 690 2068 
Q 947 2378 1403 2484 
z
M 1172 3481 
Q 1172 3119 1398 2916 
Q 1625 2713 2034 2713 
Q 2441 2713 2670 2916 
Q 2900 3119 2900 3481 
Q 2900 3844 2670 4047 
Q 2441 4250 2034 4250 
Q 1625 4250 1398 4047 
Q 1172 3844 1172 3481 
z
" transform="scale(0.015625)"/>
       </defs>
       <use xlink:href="#DejaVuSans-38"/>
       <use xlink:href="#DejaVuSans-30" x="63.623047"/>
       <use xlink:href="#DejaVuSans-30" x="127.246094"/>
      </g>
     </g>
    </g>
    <g id="ytick_4">
     <g id="line2d_12">
      <g>
       <use xlink:href="#m44a16d980b" x="62.642" y="131.543704" style="stroke: #000000; stroke-width: 0.8"/>
      </g>
     </g>
     <g id="text_13">
      <!-- 1000 -->
      <g transform="translate(30.192 135.342923) scale(0.1 -0.1)">
       <use xlink:href="#DejaVuSans-31"/>
       <use xlink:href="#DejaVuSans-30" x="63.623047"/>
       <use xlink:href="#DejaVuSans-30" x="127.246094"/>
       <use xlink:href="#DejaVuSans-30" x="190.869141"/>
      </g>
     </g>
    </g>
    <g id="ytick_5">
     <g id="line2d_13">
      <g>
       <use xlink:href="#m44a16d980b" x="62.642" y="82.528167" style="stroke: #000000; stroke-width: 0.8"/>
      </g>
     </g>
     <g id="text_14">
      <!-- 1200 -->
      <g transform="translate(30.192 86.327386) scale(0.1 -0.1)">
       <use xlink:href="#DejaVuSans-31"/>
       <use xlink:href="#DejaVuSans-32" x="63.623047"/>
       <use xlink:href="#DejaVuSans-30" x="127.246094"/>
       <use xlink:href="#DejaVuSans-30" x="190.869141"/>
      </g>
     </g>
    </g>
    <g id="ytick_6">
     <g id="line2d_14">
      <g>
       <use xlink:href="#m44a16d980b" x="62.642" y="33.51263" style="stroke: #000000; stroke-width: 0.8"/>
      </g>
     </g>
     <g id="text_15">
      <!-- 1400 -->
      <g transform="translate(30.192 37.311849) scale(0.1 -0.1)">
       <use xlink:href="#DejaVuSans-31"/>
       <use xlink:href="#DejaVuSans-34" x="63.623047"/>
       <use xlink:href="#DejaVuSans-30" x="127.246094"/>
       <use xlink:href="#DejaVuSans-30" x="190.869141"/>
      </g>
     </g>
    </g>
    <g id="text_16">
     <!-- Electrolyte concentration (mol/m$^3$) -->
     <g transform="translate(24.092 252.11) rotate(-90) scale(0.1 -0.1)">
      <defs>
       <path id="DejaVuSans-45" d="M 628 4666 
L 3578 4666 
L 3578 4134 
L 1259 4134 
L 1259 2753 
L 3481 2753 
L 3481 2222 
L 1259 2222 
L 1259 531 
L 3634 531 
L 3634 0 
L 628 0 
L 628 4666 
z
" transform="scale(0.015625)"/>
       <path id="DejaVuSans-6c" d="M 603 4863 
L 1178 4863 
L 1178 0 
L 603 0 
L 603 4863 
z
" transform="scale(0.015625)"/>
       <path id="DejaVuSans-63" d="M 3122 3366 
L 3122 2828 
Q 2878 2963 2633 3030 
Q 2388 3097 2138 3097 
Q 1578 3097 1268 2742 
Q 959 2388 959 1747 
Q 959 1106 1268 751 
Q 1578 397 2138 397 
Q 2388 397 2633 464 
Q 2878 531 3122 666 
L 3122 134 
Q 2881 22 2623 -34 
Q 2366 -91 2075 -91 
Q 1284 -91 818 406 
Q 353 903 353 1747 
Q 353 2603 823 3093 
Q 1294 3584 2113 3584 
Q 2378 3584 2631 3529 
Q 2884 3475 3122 3366 
z
" transform="scale(0.015625)"/>
       <path id="DejaVuSans-74" d="M 1172 4494 
L 1172 3500 
L 2356 3500 
L 2356 3053 
L 1172 3053 
L 1172 1153 
Q 1172 725 1289 603 
Q 1406 481 1766 481 
L 2356 481 
L 2356 0 
L 1766 0 
Q 1100 0 847 248 
Q 594 497 594 1153 
L 594 3053 
L 172 3053 
L 172 3500 
L 594 3500 
L 594 4494 
L 1172 4494 
z
" transform="scale(0.015625)"/>
       <path id="DejaVuSans-72" d="M 2631 2963 
Q 2534 3019 2420 3045 
Q 2306 3072 2169 3072 
Q 1681 3072 1420 2755 
Q 1159 2438 1159 1844 
L 1159 0 
L 581 0 
L 581 3500 
L 1159 3500 
L 1159 2956 
Q 1341 3275 1631 3429 
Q 1922 3584 2338 3584 
Q 2397 3584 2469 3576 
Q 2541 3569 2628 3553 
L 2631 2963 
z
" transform="scale(0.015625)"/>
       <path id="DejaVuSans-6f" d="M 1959 3097 
Q 1497 3097 1228 2736 
Q 959 2375 959 1747 
Q 959 1119 1226 758 
Q 1494 397 1959 397 
Q 2419 397 2687 759 
Q 2956 1122 2956 1747 
Q 2956 2369 2687 2733 
Q 2419 3097 1959 3097 
z
M 1959 3584 
Q 2709 3584 3137 3096 
Q 3566 2609 3566 1747 
Q 3566 888 3137 398 
Q 2709 -91 1959 -91 
Q 1206 -91 779 398 
Q 353 888 353 1747 
Q 353 2609 779 3096 
Q 1206 3584 1959 3584 
z
" transform="scale(0.015625)"/>
       <path id="DejaVuSans-79" d="M 2059 -325 
Q 1816 -950 1584 -1140 
Q 1353 -1331 966 -1331 
L 506 -1331 
L 506 -850 
L 844 -850 
Q 1081 -850 1212 -737 
Q 1344 -625 1503 -206 
L 1606 56 
L 191 3500 
L 800 3500 
L 1894 763 
L 2988 3500 
L 3597 3500 
L 2059 -325 
z
" transform="scale(0.015625)"/>
       <path id="DejaVuSans-6e" d="M 3513 2113 
L 3513 0 
L 2938 0 
L 2938 2094 
Q 2938 2591 2744 2837 
Q 2550 3084 2163 3084 
Q 1697 3084 1428 2787 
Q 1159 2491 1159 1978 
L 1159 0 
L 581 0 
L 581 3500 
L 1159 3500 
L 1159 2956 
Q 1366 3272 1645 3428 
Q 1925 3584 2291 3584 
Q 2894 3584 3203 3211 
Q 3513 2838 3513 2113 
z
" transform="scale(0.015625)"/>
       <path id="DejaVuSans-61" d="M 2194 1759 
Q 1497 1759 1228 1600 
Q 959 1441 959 1056 
Q 959 750 1161 570 
Q 1363 391 1709 391 
Q 2188 391 2477 730 
Q 2766 1069 2766 1631 
L 2766 1759 
L 2194 1759 
z
M 3341 1997 
L 3341 0 
L 2766 0 
L 2766 531 
Q 2569 213 2275 61 
Q 1981 -91 1556 -91 
Q 1019 -91 701 211 
Q 384 513 384 1019 
Q 384 1609 779 1909 
Q 1175 2209 1959 2209 
L 2766 2209 
L 2766 2266 
Q 2766 2663 2505 2880 
Q 2244 3097 1772 3097 
Q 1472 3097 1187 3025 
Q 903 2953 641 2809 
L 641 3341 
Q 956 3463 1253 3523 
Q 1550 3584 1831 3584 
Q 2591 3584 2966 3190 
Q 3341 2797 3341 1997 
z
" transform="scale(0.015625)"/>
       <path id="DejaVuSans-2f" d="M 1625 4666 
L 2156 4666 
L 531 -594 
L 0 -594 
L 1625 4666 
z
" transform="scale(0.015625)"/>
      </defs>
      <use xlink:href="#DejaVuSans-45" transform="translate(0 0.765625)"/>
      <use xlink:href="#DejaVuSans-6c" transform="translate(63.183594 0.765625)"/>
      <use xlink:href="#DejaVuSans-65" transform="translate(90.966797 0.765625)"/>
      <use xlink:href="#DejaVuSans-63" transform="translate(152.490234 0.765625)"/>
      <use xlink:href="#DejaVuSans-74" transform="translate(207.470703 0.765625)"/>
      <use xlink:href="#DejaVuSans-72" transform="translate(246.679688 0.765625)"/>
      <use xlink:href="#DejaVuSans-6f" transform="translate(287.792969 0.765625)"/>
      <use xlink:href="#DejaVuSans-6c" transform="translate(348.974609 0.765625)"/>
      <use xlink:href="#DejaVuSans-79" transform="translate(376.757812 0.765625)"/>
      <use xlink:href="#DejaVuSans-74" transform="translate(435.9375 0.765625)"/>
      <use xlink:href="#DejaVuSans-65" transform="translate(475.146484 0.765625)"/>
      <use xlink:href="#DejaVuSans-20" transform="translate(536.669922 0.765625)"/>
      <use xlink:href="#DejaVuSans-63" transform="translate(568.457031 0.765625)"/>
      <use xlink:href="#DejaVuSans-6f" transform="translate(623.4375 0.765625)"/>
      <use xlink:href="#DejaVuSans-6e" transform="translate(684.619141 0.765625)"/>
      <use xlink:href="#DejaVuSans-63" transform="translate(747.998047 0.765625)"/>
      <use xlink:href="#DejaVuSans-65" transform="translate(802.978516 0.765625)"/>
      <use xlink:href="#DejaVuSans-6e" transform="translate(864.501953 0.765625)"/>
      <use xlink:href="#DejaVuSans-74" transform="translate(927.880859 0.765625)"/>
      <use xlink:href="#DejaVuSans-72" transform="translate(967.089844 0.765625)"/>
      <use xlink:href="#DejaVuSans-61" transform="translate(1008.203125 0.765625)"/>
      <use xlink:href="#DejaVuSans-74" transform="translate(1069.482422 0.765625)"/>
      <use xlink:href="#DejaVuSans-69" transform="translate(1108.691406 0.765625)"/>
      <use xlink:href="#DejaVuSans-6f" transform="translate(1136.474609 0.765625)"/>
      <use xlink:href="#DejaVuSans-6e" transform="translate(1197.65625 0.765625)"/>
      <use xlink:href="#DejaVuSans-20" transform="translate(1261.035156 0.765625)"/>
      <use xlink:href="#DejaVuSans-28" transform="translate(1292.822266 0.765625)"/>
      <use xlink:href="#DejaVuSans-6d" transform="translate(1331.835938 0.765625)"/>
      <use xlink:href="#DejaVuSans-6f" transform="translate(1429.248047 0.765625)"/>
      <use xlink:href="#DejaVuSans-6c" transform="translate(1490.429688 0.765625)"/>
      <use xlink:href="#DejaVuSans-2f" transform="translate(1518.212891 0.765625)"/>
      <use xlink:href="#DejaVuSans-6d" transform="translate(1551.904297 0.765625)"/>
      <use xlink:href="#DejaVuSans-33" transform="translate(1650.273438 39.046875) scale(0.7)"/>
      <use xlink:href="#DejaVuSans-29" transform="translate(1697.543945 0.765625)"/>
     </g>
    </g>
   </g>
   <g id="line2d_15">
    <path d="M 62.642 131.543704 
L 63.009757 131.820102 
L 63.324976 132.360203 
L 63.74527 133.654589 
L 64.37571 136.527721 
L 68.473569 157.321007 
L 69.892058 162.954821 
L 71.363084 167.982107 
L 72.729037 172.039681 
L 74.2526 175.990525 
L 75.776163 179.435399 
L 77.352263 182.56454 
L 78.928363 185.323047 
L 81.187439 188.763084 
L 83.551588 191.850181 
L 85.915738 194.529517 
L 88.279887 196.884204 
L 90.644036 198.974291 
L 93.796236 201.426062 
L 96.685751 203.40228 
L 100.258244 205.550291 
L 103.830736 207.432844 
L 107.403229 209.092382 
L 111.711234 210.847942 
L 115.651483 212.25455 
L 120.800075 213.849929 
L 125.475838 215.103848 
L 130.78204 216.341888 
L 136.666145 217.518765 
L 144.651716 218.891887 
L 155.159047 220.47831 
L 168.1356 222.250121 
L 176.804148 223.229192 
L 187.364015 224.18192 
L 226.819042 227.535571 
L 237.168763 228.66161 
L 247.203264 230.00377 
L 258.235961 231.711057 
L 269.058512 233.614348 
L 279.670916 235.73691 
L 289.49527 237.912796 
L 300.212747 240.512554 
L 310.720078 243.322928 
L 320.596969 246.186516 
L 331.051763 249.444323 
L 340.035531 252.457478 
L 350.437788 256.179265 
L 360.104532 259.85775 
L 370.086496 263.893155 
L 380.85651 268.480292 
L 405.758884 279.209852 
L 419.260804 284.690164 
L 423.831493 286.862255 
L 428.192035 289.191816 
L 431.554381 291.06 
L 431.554381 291.06 
" clip-path="url(#p7573e8fc2d)" style="fill: none; stroke: #1f77b4; stroke-width: 1.5; stroke-linecap: square"/>
   </g>
   <g id="line2d_16">
    <path d="M 62.642 131.543704 
L 62.904683 132.581691 
L 63.219903 132.811655 
L 63.692733 132.841002 
L 64.480783 132.656786 
L 65.584053 132.181265 
L 67.632982 131.019203 
L 70.522498 129.455035 
L 72.834111 128.448149 
L 75.19826 127.626929 
L 78.560606 126.737578 
L 82.080562 126.04701 
L 86.598714 125.399422 
L 92.167599 124.835671 
L 99.627804 124.323573 
L 109.399622 123.888797 
L 122.901542 123.523144 
L 135.878095 123.371635 
L 146.017669 123.488841 
L 154.843827 123.834003 
L 217.047225 126.831091 
L 241.581842 127.580519 
L 253.822882 127.740189 
L 278.620183 127.767432 
L 294.013422 127.561294 
L 318.495503 127.00393 
L 344.501146 126.068761 
L 365.515807 125.061452 
L 379.543094 124.190439 
L 388.106568 123.464484 
L 393.72799 122.781282 
L 398.508826 121.988483 
L 404.340394 120.774374 
L 412.483576 119.087449 
L 416.423825 118.513508 
L 419.943781 118.234374 
L 423.358663 118.201865 
L 429.610525 118.235067 
L 430.976478 117.897148 
L 431.554381 117.669443 
L 431.554381 117.669443 
" clip-path="url(#p7573e8fc2d)" style="fill: none; stroke: #ff7f0e; stroke-width: 1.5; stroke-linecap: square"/>
   </g>
   <g id="line2d_17">
    <path d="M 62.642 131.543704 
L 62.904683 130.262214 
L 63.27244 129.741188 
L 64.007953 129.165412 
L 71.625768 124.238896 
L 74.200064 123.112169 
L 76.669286 122.272921 
L 80.084169 121.398081 
L 83.604125 120.730088 
L 88.122277 120.101253 
L 93.743699 119.546543 
L 101.046294 119.052362 
L 110.818111 118.617337 
L 124.477641 118.246738 
L 137.244048 118.115659 
L 145.860059 118.228293 
L 154.79129 118.579001 
L 214.683075 121.482872 
L 237.746666 122.234368 
L 250.145316 122.462989 
L 270.214318 122.541006 
L 285.922777 122.453181 
L 309.616808 122.010891 
L 327.32166 121.473698 
L 349.807348 120.594102 
L 371.347376 119.485821 
L 383.37827 118.647238 
L 390.260571 117.967691 
L 395.30409 117.266909 
L 399.927316 116.418691 
L 408.280643 114.598644 
L 413.271626 113.649799 
L 416.844118 113.178316 
L 420.311537 112.951814 
L 423.936566 112.974662 
L 429.032622 113.048477 
L 430.346038 112.797577 
L 431.554381 112.333711 
L 431.554381 112.333711 
" clip-path="url(#p7573e8fc2d)" style="fill: none; stroke: #2ca02c; stroke-width: 1.5; stroke-linecap: square"/>
   </g>
   <g id="line2d_18">
    <path d="M 62.642 131.543704 
L 62.95722 131.256396 
L 63.27244 130.589638 
L 63.797806 128.769606 
L 65.794199 121.36803 
L 66.897469 118.203017 
L 68.210885 115.10115 
L 69.629375 112.351031 
L 70.942791 110.210584 
L 72.781574 107.690889 
L 74.357674 105.871426 
L 75.98631 104.250557 
L 78.350459 102.260557 
L 80.819682 100.520674 
L 83.341441 99.008052 
L 86.651251 97.324191 
L 90.013596 95.867219 
L 94.216529 94.310853 
L 98.839754 92.852048 
L 104.09342 91.439354 
L 109.977525 90.098909 
L 116.597143 88.832962 
L 125.213154 87.484987 
L 134.249459 86.312688 
L 152.532214 83.985773 
L 182.635717 79.722799 
L 195.244513 78.045263 
L 236.012957 72.042652 
L 260.127281 67.865274 
L 273.313981 65.289522 
L 294.118495 61.007392 
L 308.776222 57.710779 
L 325.010048 53.883747 
L 343.608023 49.213497 
L 375.812992 41.040195 
L 380.803974 40.083016 
L 384.166319 39.638981 
L 387.003299 39.466281 
L 389.682668 39.546444 
L 391.941744 39.854077 
L 394.253357 40.43369 
L 396.40736 41.223625 
L 398.771509 42.343767 
L 401.450878 43.850695 
L 410.38211 49.033684 
L 412.798796 50.111599 
L 415.162945 50.921046 
L 417.422021 51.422057 
L 419.418414 51.599367 
L 421.152124 51.525741 
L 422.833296 51.230327 
L 424.514469 50.711687 
L 426.563399 49.858105 
L 428.244572 49.255454 
L 429.190232 49.182541 
L 429.768135 49.309591 
L 430.451111 49.664338 
L 431.134088 50.238767 
L 431.554381 50.693602 
L 431.554381 50.693602 
" clip-path="url(#p7573e8fc2d)" style="fill: none; stroke: #d62728; stroke-width: 1.5; stroke-linecap: square"/>
   </g>
   <g id="line2d_19">
    <defs>
     <path id="m23400cd23d" d="M 0 1.5 
C 0.397805 1.5 0.77937 1.341951 1.06066 1.06066 
C 1.341951 0.77937 1.5 0.397805 1.5 0 
C 1.5 -0.397805 1.341951 -0.77937 1.06066 -1.06066 
C 0.77937 -1.341951 0.397805 -1.5 0 -1.5 
C -0.397805 -1.5 -0.77937 -1.341951 -1.06066 -1.06066 
C -1.341951 -0.77937 -1.5 -0.397805 -1.5 0 
C -1.5 0.397805 -1.341951 0.77937 -1.06066 1.06066 
C -0.77937 1.341951 -0.397805 1.5 0 1.5 
z
" style="stroke: #000000"/>
    </defs>
    <g clip-path="url(#p7573e8fc2d)">
     <use xlink:href="#m23400cd23d" x="62.642" y="131.543704" style="stroke: #000000"/>
     <use xlink:href="#m23400cd23d" x="73.592799" y="106.727375" style="stroke: #000000"/>
     <use xlink:href="#m23400cd23d" x="84.543599" y="98.309769" style="stroke: #000000"/>
     <use xlink:href="#m23400cd23d" x="95.494398" y="93.847748" style="stroke: #000000"/>
     <use xlink:href="#m23400cd23d" x="106.445197" y="90.851762" style="stroke: #000000"/>
     <use xlink:href="#m23400cd23d" x="117.395996" y="88.677352" style="stroke: #000000"/>
     <use xlink:href="#m23400cd23d" x="128.346796" y="87.04115" style="stroke: #000000"/>
     <use xlink:href="#m23400cd23d" x="139.297595" y="85.693528" style="stroke: #000000"/>
     <use xlink:href="#m23400cd23d" x="150.248394" y="84.29678" style="stroke: #000000"/>
     <use xlink:href="#m23400cd23d" x="161.199193" y="82.646876" style="stroke: #000000"/>
     <use xlink:href="#m23400cd23d" x="172.149993" y="81.035289" style="stroke: #000000"/>
     <use xlink:href="#m23400cd23d" x="183.100792" y="79.648136" style="stroke: #000000"/>
     <use xlink:href="#m23400cd23d" x="194.051591" y="78.195455" style="stroke: #000000"/>
     <use xlink:href="#m23400cd23d" x="205.00239" y="76.594381" style="stroke: #000000"/>
     <use xlink:href="#m23400cd23d" x="215.95319" y="75.064745" style="stroke: #000000"/>
     <use xlink:href="#m23400cd23d" x="226.903989" y="73.492796" style="stroke: #000000"/>
     <use xlink:href="#m23400cd23d" x="237.854788" y="71.700495" style="stroke: #000000"/>
     <use xlink:href="#m23400cd23d" x="248.805587" y="69.836693" style="stroke: #000000"/>
     <use xlink:href="#m23400cd23d" x="259.756387" y="67.899256" style="stroke: #000000"/>
     <use xlink:href="#m23400cd23d" x="270.707186" y="65.771863" style="stroke: #000000"/>
     <use xlink:href="#m23400cd23d" x="281.657985" y="63.571559" style="stroke: #000000"/>
     <use xlink:href="#m23400cd23d" x="292.608784" y="61.290413" style="stroke: #000000"/>
     <use xlink:href="#m23400cd23d" x="303.559584" y="58.851109" style="stroke: #000000"/>
     <use xlink:href="#m23400cd23d" x="314.510383" y="56.337305" style="stroke: #000000"/>
     <use xlink:href="#m23400cd23d" x="325.461182" y="53.717947" style="stroke: #000000"/>
     <use xlink:href="#m23400cd23d" x="336.411981" y="50.986195" style="stroke: #000000"/>
     <use xlink:href="#m23400cd23d" x="347.362781" y="48.181455" style="stroke: #000000"/>
     <use xlink:href="#m23400cd23d" x="358.31358" y="45.315176" style="stroke: #000000"/>
     <use xlink:href="#m23400cd23d" x="369.264379" y="42.507732" style="stroke: #000000"/>
     <use xlink:href="#m23400cd23d" x="380.215178" y="40.132228" style="stroke: #000000"/>
     <use xlink:href="#m23400cd23d" x="391.165978" y="39.75285" style="stroke: #000000"/>
     <use xlink:href="#m23400cd23d" x="402.116777" y="44.398526" style="stroke: #000000"/>
     <use xlink:href="#m23400cd23d" x="413.067576" y="50.302127" style="stroke: #000000"/>
     <use xlink:href="#m23400cd23d" x="424.018375" y="50.772008" style="stroke: #000000"/>
     <use xlink:href="#m23400cd23d" x="431.124442" y="50.597569" style="stroke: #000000"/>
    </g>
   </g>
   <g id="line2d_20">
    <g clip-path="url(#p7573e8fc2d)">
     <use xlink:href="#m23400cd23d" x="62.642" y="131.543704" style="stroke: #000000"/>
     <use xlink:href="#m23400cd23d" x="73.592799" y="123.294123" style="stroke: #000000"/>
     <use xlink:href="#m23400cd23d" x="84.543599" y="120.541335" style="stroke: #000000"/>
     <use xlink:href="#m23400cd23d" x="95.494398" y="119.388604" style="stroke: #000000"/>
     <use xlink:href="#m23400cd23d" x="106.445197" y="118.777288" style="stroke: #000000"/>
     <use xlink:href="#m23400cd23d" x="117.395996" y="118.404795" style="stroke: #000000"/>
     <use xlink:href="#m23400cd23d" x="128.346796" y="118.175958" style="stroke: #000000"/>
     <use xlink:href="#m23400cd23d" x="139.297595" y="118.120413" style="stroke: #000000"/>
     <use xlink:href="#m23400cd23d" x="150.248394" y="118.372522" style="stroke: #000000"/>
     <use xlink:href="#m23400cd23d" x="161.199193" y="118.927181" style="stroke: #000000"/>
     <use xlink:href="#m23400cd23d" x="172.149993" y="119.476488" style="stroke: #000000"/>
     <use xlink:href="#m23400cd23d" x="183.100792" y="119.929407" style="stroke: #000000"/>
     <use xlink:href="#m23400cd23d" x="194.051591" y="120.467805" style="stroke: #000000"/>
     <use xlink:href="#m23400cd23d" x="205.00239" y="121.064372" style="stroke: #000000"/>
     <use xlink:href="#m23400cd23d" x="215.95319" y="121.532471" style="stroke: #000000"/>
     <use xlink:href="#m23400cd23d" x="226.903989" y="121.90084" style="stroke: #000000"/>
     <use xlink:href="#m23400cd23d" x="237.854788" y="122.239521" style="stroke: #000000"/>
     <use xlink:href="#m23400cd23d" x="248.805587" y="122.448969" style="stroke: #000000"/>
     <use xlink:href="#m23400cd23d" x="259.756387" y="122.514744" style="stroke: #000000"/>
     <use xlink:href="#m23400cd23d" x="270.707186" y="122.541559" style="stroke: #000000"/>
     <use xlink:href="#m23400cd23d" x="281.657985" y="122.501388" style="stroke: #000000"/>
     <use xlink:href="#m23400cd23d" x="292.608784" y="122.34315" style="stroke: #000000"/>
     <use xlink:href="#m23400cd23d" x="303.559584" y="122.13847" style="stroke: #000000"/>
     <use xlink:href="#m23400cd23d" x="314.510383" y="121.880746" style="stroke: #000000"/>
     <use xlink:href="#m23400cd23d" x="325.461182" y="121.531765" style="stroke: #000000"/>
     <use xlink:href="#m23400cd23d" x="336.411981" y="121.148933" style="stroke: #000000"/>
     <use xlink:href="#m23400cd23d" x="347.362781" y="120.69807" style="stroke: #000000"/>
     <use xlink:href="#m23400cd23d" x="358.31358" y="120.182671" style="stroke: #000000"/>
     <use xlink:href="#m23400cd23d" x="369.264379" y="119.599437" style="stroke: #000000"/>
     <use xlink:href="#m23400cd23d" x="380.215178" y="118.880545" style="stroke: #000000"/>
     <use xlink:href="#m23400cd23d" x="391.165978" y="117.829718" style="stroke: #000000"/>
     <use xlink:href="#m23400cd23d" x="402.116777" y="115.904289" style="stroke: #000000"/>
     <use xlink:href="#m23400cd23d" x="413.067576" y="113.644646" style="stroke: #000000"/>
     <use xlink:href="#m23400cd23d" x="424.018375" y="112.994668" style="stroke: #000000"/>
     <use xlink:href="#m23400cd23d" x="431.124442" y="112.382456" style="stroke: #000000"/>
    </g>
   </g>
   <g id="line2d_21">
    <g clip-path="url(#p7573e8fc2d)">
     <use xlink:href="#m23400cd23d" x="62.642" y="131.543704" style="stroke: #000000"/>
     <use xlink:href="#m23400cd23d" x="73.592799" y="128.101226" style="stroke: #000000"/>
     <use xlink:href="#m23400cd23d" x="84.543599" y="125.628942" style="stroke: #000000"/>
     <use xlink:href="#m23400cd23d" x="95.494398" y="124.561701" style="stroke: #000000"/>
     <use xlink:href="#m23400cd23d" x="106.445197" y="123.990371" style="stroke: #000000"/>
     <use xlink:href="#m23400cd23d" x="117.395996" y="123.641754" style="stroke: #000000"/>
     <use xlink:href="#m23400cd23d" x="128.346796" y="123.427808" style="stroke: #000000"/>
     <use xlink:href="#m23400cd23d" x="139.297595" y="123.378541" style="stroke: #000000"/>
     <use xlink:href="#m23400cd23d" x="150.248394" y="123.62765" style="stroke: #000000"/>
     <use xlink:href="#m23400cd23d" x="161.199193" y="124.179832" style="stroke: #000000"/>
     <use xlink:href="#m23400cd23d" x="172.149993" y="124.736066" style="stroke: #000000"/>
     <use xlink:href="#m23400cd23d" x="183.100792" y="125.19441" style="stroke: #000000"/>
     <use xlink:href="#m23400cd23d" x="194.051591" y="125.730322" style="stroke: #000000"/>
     <use xlink:href="#m23400cd23d" x="205.00239" y="126.325664" style="stroke: #000000"/>
     <use xlink:href="#m23400cd23d" x="215.95319" y="126.795441" style="stroke: #000000"/>
     <use xlink:href="#m23400cd23d" x="226.903989" y="127.160437" style="stroke: #000000"/>
     <use xlink:href="#m23400cd23d" x="237.854788" y="127.492903" style="stroke: #000000"/>
     <use xlink:href="#m23400cd23d" x="248.805587" y="127.69972" style="stroke: #000000"/>
     <use xlink:href="#m23400cd23d" x="259.756387" y="127.763176" style="stroke: #000000"/>
     <use xlink:href="#m23400cd23d" x="270.707186" y="127.785959" style="stroke: #000000"/>
     <use xlink:href="#m23400cd23d" x="281.657985" y="127.74405" style="stroke: #000000"/>
     <use xlink:href="#m23400cd23d" x="292.608784" y="127.584678" style="stroke: #000000"/>
     <use xlink:href="#m23400cd23d" x="303.559584" y="127.377159" style="stroke: #000000"/>
     <use xlink:href="#m23400cd23d" x="314.510383" y="127.118835" style="stroke: #000000"/>
     <use xlink:href="#m23400cd23d" x="325.461182" y="126.769711" style="stroke: #000000"/>
     <use xlink:href="#m23400cd23d" x="336.411981" y="126.385592" style="stroke: #000000"/>
     <use xlink:href="#m23400cd23d" x="347.362781" y="125.936014" style="stroke: #000000"/>
     <use xlink:href="#m23400cd23d" x="358.31358" y="125.421371" style="stroke: #000000"/>
     <use xlink:href="#m23400cd23d" x="369.264379" y="124.840954" style="stroke: #000000"/>
     <use xlink:href="#m23400cd23d" x="380.215178" y="124.1281" style="stroke: #000000"/>
     <use xlink:href="#m23400cd23d" x="391.165978" y="123.09517" style="stroke: #000000"/>
     <use xlink:href="#m23400cd23d" x="402.116777" y="121.207942" style="stroke: #000000"/>
     <use xlink:href="#m23400cd23d" x="413.067576" y="118.949337" style="stroke: #000000"/>
     <use xlink:href="#m23400cd23d" x="424.018375" y="118.235921" style="stroke: #000000"/>
     <use xlink:href="#m23400cd23d" x="431.124442" y="117.714818" style="stroke: #000000"/>
    </g>
   </g>
   <g id="line2d_22">
    <g clip-path="url(#p7573e8fc2d)">
     <use xlink:href="#m23400cd23d" x="62.642" y="131.543704" style="stroke: #000000"/>
     <use xlink:href="#m23400cd23d" x="73.592799" y="174.437354" style="stroke: #000000"/>
     <use xlink:href="#m23400cd23d" x="84.543599" y="193.202434" style="stroke: #000000"/>
     <use xlink:href="#m23400cd23d" x="95.494398" y="202.730282" style="stroke: #000000"/>
     <use xlink:href="#m23400cd23d" x="106.445197" y="208.73754" style="stroke: #000000"/>
     <use xlink:href="#m23400cd23d" x="117.395996" y="212.870949" style="stroke: #000000"/>
     <use xlink:href="#m23400cd23d" x="128.346796" y="215.830612" style="stroke: #000000"/>
     <use xlink:href="#m23400cd23d" x="139.297595" y="218.023164" style="stroke: #000000"/>
     <use xlink:href="#m23400cd23d" x="150.248394" y="219.778065" style="stroke: #000000"/>
     <use xlink:href="#m23400cd23d" x="161.199193" y="221.355702" style="stroke: #000000"/>
     <use xlink:href="#m23400cd23d" x="172.149993" y="222.748887" style="stroke: #000000"/>
     <use xlink:href="#m23400cd23d" x="183.100792" y="223.838246" style="stroke: #000000"/>
     <use xlink:href="#m23400cd23d" x="194.051591" y="224.74402" style="stroke: #000000"/>
     <use xlink:href="#m23400cd23d" x="205.00239" y="225.655367" style="stroke: #000000"/>
     <use xlink:href="#m23400cd23d" x="215.95319" y="226.584362" style="stroke: #000000"/>
     <use xlink:href="#m23400cd23d" x="226.903989" y="227.567619" style="stroke: #000000"/>
     <use xlink:href="#m23400cd23d" x="237.854788" y="228.774495" style="stroke: #000000"/>
     <use xlink:href="#m23400cd23d" x="248.805587" y="230.271611" style="stroke: #000000"/>
     <use xlink:href="#m23400cd23d" x="259.756387" y="232.000234" style="stroke: #000000"/>
     <use xlink:href="#m23400cd23d" x="270.707186" y="233.96803" style="stroke: #000000"/>
     <use xlink:href="#m23400cd23d" x="281.657985" y="236.206982" style="stroke: #000000"/>
     <use xlink:href="#m23400cd23d" x="292.608784" y="238.692196" style="stroke: #000000"/>
     <use xlink:href="#m23400cd23d" x="303.559584" y="241.435347" style="stroke: #000000"/>
     <use xlink:href="#m23400cd23d" x="314.510383" y="244.459703" style="stroke: #000000"/>
     <use xlink:href="#m23400cd23d" x="325.461182" y="247.738048" style="stroke: #000000"/>
     <use xlink:href="#m23400cd23d" x="336.411981" y="251.292519" style="stroke: #000000"/>
     <use xlink:href="#m23400cd23d" x="347.362781" y="255.135566" style="stroke: #000000"/>
     <use xlink:href="#m23400cd23d" x="358.31358" y="259.246745" style="stroke: #000000"/>
     <use xlink:href="#m23400cd23d" x="369.264379" y="263.648137" style="stroke: #000000"/>
     <use xlink:href="#m23400cd23d" x="380.215178" y="268.303491" style="stroke: #000000"/>
     <use xlink:href="#m23400cd23d" x="391.165978" y="273.137466" style="stroke: #000000"/>
     <use xlink:href="#m23400cd23d" x="402.116777" y="277.841155" style="stroke: #000000"/>
     <use xlink:href="#m23400cd23d" x="413.067576" y="282.189144" style="stroke: #000000"/>
     <use xlink:href="#m23400cd23d" x="424.018375" y="287.086094" style="stroke: #000000"/>
     <use xlink:href="#m23400cd23d" x="431.124442" y="290.962546" style="stroke: #000000"/>
    </g>
   </g>
   <g id="patch_3">
    <path d="M 62.642 303.64 
L 62.642 26.88 
" style="fill: none; stroke: #000000; stroke-width: 0.8; stroke-linejoin: miter; stroke-linecap: square"/>
   </g>
   <g id="patch_4">
    <path d="M 450 303.64 
L 450 26.88 
" style="fill: none; stroke: #000000; stroke-width: 0.8; stroke-linejoin: miter; stroke-linecap: square"/>
   </g>
   <g id="patch_5">
    <path d="M 62.642 303.64 
L 450 303.64 
" style="fill: none; stroke: #000000; stroke-width: 0.8; stroke-linejoin: miter; stroke-linecap: square"/>
   </g>
   <g id="patch_6">
    <path d="M 62.642 26.88 
L 450 26.88 
" style="fill: none; stroke: #000000; stroke-width: 0.8; stroke-linejoin: miter; stroke-linecap: square"/>
   </g>
   <g id="text_17">
    <!-- Figure 5b -->
    <g transform="translate(228.46975 20.88) scale(0.12 -0.12)">
     <defs>
      <path id="DejaVuSans-46" d="M 628 4666 
L 3309 4666 
L 3309 4134 
L 1259 4134 
L 1259 2759 
L 3109 2759 
L 3109 2228 
L 1259 2228 
L 1259 0 
L 628 0 
L 628 4666 
z
" transform="scale(0.015625)"/>
      <path id="DejaVuSans-67" d="M 2906 1791 
Q 2906 2416 2648 2759 
Q 2391 3103 1925 3103 
Q 1463 3103 1205 2759 
Q 947 2416 947 1791 
Q 947 1169 1205 825 
Q 1463 481 1925 481 
Q 2391 481 2648 825 
Q 2906 1169 2906 1791 
z
M 3481 434 
Q 3481 -459 3084 -895 
Q 2688 -1331 1869 -1331 
Q 1566 -1331 1297 -1286 
Q 1028 -1241 775 -1147 
L 775 -588 
Q 1028 -725 1275 -790 
Q 1522 -856 1778 -856 
Q 2344 -856 2625 -561 
Q 2906 -266 2906 331 
L 2906 616 
Q 2728 306 2450 153 
Q 2172 0 1784 0 
Q 1141 0 747 490 
Q 353 981 353 1791 
Q 353 2603 747 3093 
Q 1141 3584 1784 3584 
Q 2172 3584 2450 3431 
Q 2728 3278 2906 2969 
L 2906 3500 
L 3481 3500 
L 3481 434 
z
" transform="scale(0.015625)"/>
      <path id="DejaVuSans-75" d="M 544 1381 
L 544 3500 
L 1119 3500 
L 1119 1403 
Q 1119 906 1312 657 
Q 1506 409 1894 409 
Q 2359 409 2629 706 
Q 2900 1003 2900 1516 
L 2900 3500 
L 3475 3500 
L 3475 0 
L 2900 0 
L 2900 538 
Q 2691 219 2414 64 
Q 2138 -91 1772 -91 
Q 1169 -91 856 284 
Q 544 659 544 1381 
z
M 1991 3584 
L 1991 3584 
z
" transform="scale(0.015625)"/>
      <path id="DejaVuSans-62" d="M 3116 1747 
Q 3116 2381 2855 2742 
Q 2594 3103 2138 3103 
Q 1681 3103 1420 2742 
Q 1159 2381 1159 1747 
Q 1159 1113 1420 752 
Q 1681 391 2138 391 
Q 2594 391 2855 752 
Q 3116 1113 3116 1747 
z
M 1159 2969 
Q 1341 3281 1617 3432 
Q 1894 3584 2278 3584 
Q 2916 3584 3314 3078 
Q 3713 2572 3713 1747 
Q 3713 922 3314 415 
Q 2916 -91 2278 -91 
Q 1894 -91 1617 61 
Q 1341 213 1159 525 
L 1159 0 
L 581 0 
L 581 4863 
L 1159 4863 
L 1159 2969 
z
" transform="scale(0.015625)"/>
     </defs>
     <use xlink:href="#DejaVuSans-46"/>
     <use xlink:href="#DejaVuSans-69" x="50.269531"/>
     <use xlink:href="#DejaVuSans-67" x="78.052734"/>
     <use xlink:href="#DejaVuSans-75" x="141.529297"/>
     <use xlink:href="#DejaVuSans-72" x="204.908203"/>
     <use xlink:href="#DejaVuSans-65" x="243.771484"/>
     <use xlink:href="#DejaVuSans-20" x="305.294922"/>
     <use xlink:href="#DejaVuSans-35" x="337.082031"/>
     <use xlink:href="#DejaVuSans-62" x="400.705078"/>
    </g>
   </g>
   <g id="legend_1">
    <g id="patch_7">
     <path d="M 284.904687 203.455312 
L 443 203.455312 
Q 445 203.455312 445 201.455312 
L 445 129.064687 
Q 445 127.064687 443 127.064687 
L 284.904687 127.064687 
Q 282.904687 127.064687 282.904687 129.064687 
L 282.904687 201.455312 
Q 282.904687 203.455312 284.904687 203.455312 
z
" style="fill: #ffffff; opacity: 0.8; stroke: #cccccc; stroke-linejoin: miter"/>
    </g>
    <g id="line2d_23">
     <path d="M 286.904687 135.163125 
L 296.904687 135.163125 
L 306.904687 135.163125 
" style="fill: none; stroke: #1f77b4; stroke-width: 1.5; stroke-linecap: square"/>
    </g>
    <g id="text_18">
     <!-- anode/curent collector -->
     <g transform="translate(314.904687 138.663125) scale(0.1 -0.1)">
      <defs>
       <path id="DejaVuSans-64" d="M 2906 2969 
L 2906 4863 
L 3481 4863 
L 3481 0 
L 2906 0 
L 2906 525 
Q 2725 213 2448 61 
Q 2172 -91 1784 -91 
Q 1150 -91 751 415 
Q 353 922 353 1747 
Q 353 2572 751 3078 
Q 1150 3584 1784 3584 
Q 2172 3584 2448 3432 
Q 2725 3281 2906 2969 
z
M 947 1747 
Q 947 1113 1208 752 
Q 1469 391 1925 391 
Q 2381 391 2643 752 
Q 2906 1113 2906 1747 
Q 2906 2381 2643 2742 
Q 2381 3103 1925 3103 
Q 1469 3103 1208 2742 
Q 947 2381 947 1747 
z
" transform="scale(0.015625)"/>
      </defs>
      <use xlink:href="#DejaVuSans-61"/>
      <use xlink:href="#DejaVuSans-6e" x="61.279297"/>
      <use xlink:href="#DejaVuSans-6f" x="124.658203"/>
      <use xlink:href="#DejaVuSans-64" x="185.839844"/>
      <use xlink:href="#DejaVuSans-65" x="249.316406"/>
      <use xlink:href="#DejaVuSans-2f" x="310.839844"/>
      <use xlink:href="#DejaVuSans-63" x="344.53125"/>
      <use xlink:href="#DejaVuSans-75" x="399.511719"/>
      <use xlink:href="#DejaVuSans-72" x="462.890625"/>
      <use xlink:href="#DejaVuSans-65" x="501.753906"/>
      <use xlink:href="#DejaVuSans-6e" x="563.277344"/>
      <use xlink:href="#DejaVuSans-74" x="626.65625"/>
      <use xlink:href="#DejaVuSans-20" x="665.865234"/>
      <use xlink:href="#DejaVuSans-63" x="697.652344"/>
      <use xlink:href="#DejaVuSans-6f" x="752.632812"/>
      <use xlink:href="#DejaVuSans-6c" x="813.814453"/>
      <use xlink:href="#DejaVuSans-6c" x="841.597656"/>
      <use xlink:href="#DejaVuSans-65" x="869.380859"/>
      <use xlink:href="#DejaVuSans-63" x="930.904297"/>
      <use xlink:href="#DejaVuSans-74" x="985.884766"/>
      <use xlink:href="#DejaVuSans-6f" x="1025.09375"/>
      <use xlink:href="#DejaVuSans-72" x="1086.275391"/>
     </g>
    </g>
    <g id="line2d_24">
     <path d="M 286.904687 149.84125 
L 296.904687 149.84125 
L 306.904687 149.84125 
" style="fill: none; stroke: #ff7f0e; stroke-width: 1.5; stroke-linecap: square"/>
    </g>
    <g id="text_19">
     <!-- anode/separator -->
     <g transform="translate(314.904687 153.34125) scale(0.1 -0.1)">
      <defs>
       <path id="DejaVuSans-70" d="M 1159 525 
L 1159 -1331 
L 581 -1331 
L 581 3500 
L 1159 3500 
L 1159 2969 
Q 1341 3281 1617 3432 
Q 1894 3584 2278 3584 
Q 2916 3584 3314 3078 
Q 3713 2572 3713 1747 
Q 3713 922 3314 415 
Q 2916 -91 2278 -91 
Q 1894 -91 1617 61 
Q 1341 213 1159 525 
z
M 3116 1747 
Q 3116 2381 2855 2742 
Q 2594 3103 2138 3103 
Q 1681 3103 1420 2742 
Q 1159 2381 1159 1747 
Q 1159 1113 1420 752 
Q 1681 391 2138 391 
Q 2594 391 2855 752 
Q 3116 1113 3116 1747 
z
" transform="scale(0.015625)"/>
      </defs>
      <use xlink:href="#DejaVuSans-61"/>
      <use xlink:href="#DejaVuSans-6e" x="61.279297"/>
      <use xlink:href="#DejaVuSans-6f" x="124.658203"/>
      <use xlink:href="#DejaVuSans-64" x="185.839844"/>
      <use xlink:href="#DejaVuSans-65" x="249.316406"/>
      <use xlink:href="#DejaVuSans-2f" x="310.839844"/>
      <use xlink:href="#DejaVuSans-73" x="344.53125"/>
      <use xlink:href="#DejaVuSans-65" x="396.630859"/>
      <use xlink:href="#DejaVuSans-70" x="458.154297"/>
      <use xlink:href="#DejaVuSans-61" x="521.630859"/>
      <use xlink:href="#DejaVuSans-72" x="582.910156"/>
      <use xlink:href="#DejaVuSans-61" x="624.023438"/>
      <use xlink:href="#DejaVuSans-74" x="685.302734"/>
      <use xlink:href="#DejaVuSans-6f" x="724.511719"/>
      <use xlink:href="#DejaVuSans-72" x="785.693359"/>
     </g>
    </g>
    <g id="line2d_25">
     <path d="M 286.904687 164.519375 
L 296.904687 164.519375 
L 306.904687 164.519375 
" style="fill: none; stroke: #2ca02c; stroke-width: 1.5; stroke-linecap: square"/>
    </g>
    <g id="text_20">
     <!-- cathode/separator -->
     <g transform="translate(314.904687 168.019375) scale(0.1 -0.1)">
      <defs>
       <path id="DejaVuSans-68" d="M 3513 2113 
L 3513 0 
L 2938 0 
L 2938 2094 
Q 2938 2591 2744 2837 
Q 2550 3084 2163 3084 
Q 1697 3084 1428 2787 
Q 1159 2491 1159 1978 
L 1159 0 
L 581 0 
L 581 4863 
L 1159 4863 
L 1159 2956 
Q 1366 3272 1645 3428 
Q 1925 3584 2291 3584 
Q 2894 3584 3203 3211 
Q 3513 2838 3513 2113 
z
" transform="scale(0.015625)"/>
      </defs>
      <use xlink:href="#DejaVuSans-63"/>
      <use xlink:href="#DejaVuSans-61" x="54.980469"/>
      <use xlink:href="#DejaVuSans-74" x="116.259766"/>
      <use xlink:href="#DejaVuSans-68" x="155.46875"/>
      <use xlink:href="#DejaVuSans-6f" x="218.847656"/>
      <use xlink:href="#DejaVuSans-64" x="280.029297"/>
      <use xlink:href="#DejaVuSans-65" x="343.505859"/>
      <use xlink:href="#DejaVuSans-2f" x="405.029297"/>
      <use xlink:href="#DejaVuSans-73" x="438.720703"/>
      <use xlink:href="#DejaVuSans-65" x="490.820312"/>
      <use xlink:href="#DejaVuSans-70" x="552.34375"/>
      <use xlink:href="#DejaVuSans-61" x="615.820312"/>
      <use xlink:href="#DejaVuSans-72" x="677.099609"/>
      <use xlink:href="#DejaVuSans-61" x="718.212891"/>
      <use xlink:href="#DejaVuSans-74" x="779.492188"/>
      <use xlink:href="#DejaVuSans-6f" x="818.701172"/>
      <use xlink:href="#DejaVuSans-72" x="879.882812"/>
     </g>
    </g>
    <g id="line2d_26">
     <path d="M 286.904687 179.1975 
L 296.904687 179.1975 
L 306.904687 179.1975 
" style="fill: none; stroke: #d62728; stroke-width: 1.5; stroke-linecap: square"/>
    </g>
    <g id="text_21">
     <!-- cathode/current collector -->
     <g transform="translate(314.904687 182.6975) scale(0.1 -0.1)">
      <use xlink:href="#DejaVuSans-63"/>
      <use xlink:href="#DejaVuSans-61" x="54.980469"/>
      <use xlink:href="#DejaVuSans-74" x="116.259766"/>
      <use xlink:href="#DejaVuSans-68" x="155.46875"/>
      <use xlink:href="#DejaVuSans-6f" x="218.847656"/>
      <use xlink:href="#DejaVuSans-64" x="280.029297"/>
      <use xlink:href="#DejaVuSans-65" x="343.505859"/>
      <use xlink:href="#DejaVuSans-2f" x="405.029297"/>
      <use xlink:href="#DejaVuSans-63" x="438.720703"/>
      <use xlink:href="#DejaVuSans-75" x="493.701172"/>
      <use xlink:href="#DejaVuSans-72" x="557.080078"/>
      <use xlink:href="#DejaVuSans-72" x="596.443359"/>
      <use xlink:href="#DejaVuSans-65" x="635.306641"/>
      <use xlink:href="#DejaVuSans-6e" x="696.830078"/>
      <use xlink:href="#DejaVuSans-74" x="760.208984"/>
      <use xlink:href="#DejaVuSans-20" x="799.417969"/>
      <use xlink:href="#DejaVuSans-63" x="831.205078"/>
      <use xlink:href="#DejaVuSans-6f" x="886.185547"/>
      <use xlink:href="#DejaVuSans-6c" x="947.367188"/>
      <use xlink:href="#DejaVuSans-6c" x="975.150391"/>
      <use xlink:href="#DejaVuSans-65" x="1002.933594"/>
      <use xlink:href="#DejaVuSans-63" x="1064.457031"/>
      <use xlink:href="#DejaVuSans-74" x="1119.4375"/>
      <use xlink:href="#DejaVuSans-6f" x="1158.646484"/>
      <use xlink:href="#DejaVuSans-72" x="1219.828125"/>
     </g>
    </g>
    <g id="line2d_27">
     <g>
      <use xlink:href="#m23400cd23d" x="296.904687" y="193.875625" style="stroke: #000000"/>
     </g>
    </g>
    <g id="text_22">
     <!-- mpet -->
     <g transform="translate(314.904687 197.375625) scale(0.1 -0.1)">
      <use xlink:href="#DejaVuSans-6d"/>
      <use xlink:href="#DejaVuSans-70" x="97.412109"/>
      <use xlink:href="#DejaVuSans-65" x="160.888672"/>
      <use xlink:href="#DejaVuSans-74" x="222.412109"/>
     </g>
    </g>
   </g>
  </g>
 </g>
 <defs>
  <clipPath id="p7573e8fc2d">
   <rect x="62.642" y="26.88" width="387.358" height="276.76"/>
  </clipPath>
 </defs>
</svg>
