<?xml version="1.0" encoding="utf-8" standalone="no"?>
<!DOCTYPE svg PUBLIC "-//W3C//DTD SVG 1.1//EN"
  "http://www.w3.org/Graphics/SVG/1.1/DTD/svg11.dtd">
<svg xmlns:xlink="http://www.w3.org/1999/xlink" width="460.8pt" height="345.6pt" viewBox="0 0 460.8 345.6" xmlns="http://www.w3.org/2000/svg" version="1.1">
 <metadata>
  <rdf:RDF xmlns:dc="http://purl.org/dc/elements/1.1/" xmlns:cc="http://creativecommons.org/ns#" xmlns:rdf="http://www.w3.org/1999/02/22-rdf-syntax-ns#">
   <cc:Work>
    <dc:type rdf:resource="http://purl.org/dc/dcmitype/StillImage"/>
    <dc:date>2024-03-28T18:58:19.598814</dc:date>
    <dc:format>image/svg+xml</dc:format>
    <dc:creator>
     <cc:Agent>
      <dc:title>Matplotlib v3.8.2, https://matplotlib.org/</dc:title>
     </cc:Agent>
    </dc:creator>
   </cc:Work>
  </rdf:RDF>
 </metadata>
 <defs>
  <style type="text/css">*{stroke-linejoin: round; stroke-linecap: butt}</style>
 </defs>
 <g id="figure_1">
  <g id="patch_1">
   <path d="M 0 345.6 
L 460.8 345.6 
L 460.8 0 
L 0 0 
z
" style="fill: #ffffff"/>
  </g>
  <g id="axes_1">
   <g id="patch_2">
    <path d="M 56.09 303.64 
L 450 303.64 
L 450 26.88 
L 56.09 26.88 
z
" style="fill: #ffffff"/>
   </g>
   <g id="matplotlib.axis_1">
    <g id="xtick_1">
     <g id="line2d_1">
      <defs>
       <path id="m6d16c3ad4a" d="M 0 0 
L 0 3.5 
" style="stroke: #000000; stroke-width: 0.8"/>
      </defs>
      <g>
       <use xlink:href="#m6d16c3ad4a" x="56.09" y="303.64" style="stroke: #000000; stroke-width: 0.8"/>
      </g>
     </g>
     <g id="text_1">
      <!-- 0 -->
      <g transform="translate(52.90875 318.238437) scale(0.1 -0.1)">
       <defs>
        <path id="DejaVuSans-30" d="M 2034 4250 
Q 1547 4250 1301 3770 
Q 1056 3291 1056 2328 
Q 1056 1369 1301 889 
Q 1547 409 2034 409 
Q 2525 409 2770 889 
Q 3016 1369 3016 2328 
Q 3016 3291 2770 3770 
Q 2525 4250 2034 4250 
z
M 2034 4750 
Q 2819 4750 3233 4129 
Q 3647 3509 3647 2328 
Q 3647 1150 3233 529 
Q 2819 -91 2034 -91 
Q 1250 -91 836 529 
Q 422 1150 422 2328 
Q 422 3509 836 4129 
Q 1250 4750 2034 4750 
z
" transform="scale(0.015625)"/>
       </defs>
       <use xlink:href="#DejaVuSans-30"/>
      </g>
     </g>
    </g>
    <g id="xtick_2">
     <g id="line2d_2">
      <g>
       <use xlink:href="#m6d16c3ad4a" x="109.515289" y="303.64" style="stroke: #000000; stroke-width: 0.8"/>
      </g>
     </g>
     <g id="text_2">
      <!-- 500 -->
      <g transform="translate(99.971539 318.238437) scale(0.1 -0.1)">
       <defs>
        <path id="DejaVuSans-35" d="M 691 4666 
L 3169 4666 
L 3169 4134 
L 1269 4134 
L 1269 2991 
Q 1406 3038 1543 3061 
Q 1681 3084 1819 3084 
Q 2600 3084 3056 2656 
Q 3513 2228 3513 1497 
Q 3513 744 3044 326 
Q 2575 -91 1722 -91 
Q 1428 -91 1123 -41 
Q 819 9 494 109 
L 494 744 
Q 775 591 1075 516 
Q 1375 441 1709 441 
Q 2250 441 2565 725 
Q 2881 1009 2881 1497 
Q 2881 1984 2565 2268 
Q 2250 2553 1709 2553 
Q 1456 2553 1204 2497 
Q 953 2441 691 2322 
L 691 4666 
z
" transform="scale(0.015625)"/>
       </defs>
       <use xlink:href="#DejaVuSans-35"/>
       <use xlink:href="#DejaVuSans-30" x="63.623047"/>
       <use xlink:href="#DejaVuSans-30" x="127.246094"/>
      </g>
     </g>
    </g>
    <g id="xtick_3">
     <g id="line2d_3">
      <g>
       <use xlink:href="#m6d16c3ad4a" x="162.940578" y="303.64" style="stroke: #000000; stroke-width: 0.8"/>
      </g>
     </g>
     <g id="text_3">
      <!-- 1000 -->
      <g transform="translate(150.215578 318.238437) scale(0.1 -0.1)">
       <defs>
        <path id="DejaVuSans-31" d="M 794 531 
L 1825 531 
L 1825 4091 
L 703 3866 
L 703 4441 
L 1819 4666 
L 2450 4666 
L 2450 531 
L 3481 531 
L 3481 0 
L 794 0 
L 794 531 
z
" transform="scale(0.015625)"/>
       </defs>
       <use xlink:href="#DejaVuSans-31"/>
       <use xlink:href="#DejaVuSans-30" x="63.623047"/>
       <use xlink:href="#DejaVuSans-30" x="127.246094"/>
       <use xlink:href="#DejaVuSans-30" x="190.869141"/>
      </g>
     </g>
    </g>
    <g id="xtick_4">
     <g id="line2d_4">
      <g>
       <use xlink:href="#m6d16c3ad4a" x="216.365868" y="303.64" style="stroke: #000000; stroke-width: 0.8"/>
      </g>
     </g>
     <g id="text_4">
      <!-- 1500 -->
      <g transform="translate(203.640868 318.238437) scale(0.1 -0.1)">
       <use xlink:href="#DejaVuSans-31"/>
       <use xlink:href="#DejaVuSans-35" x="63.623047"/>
       <use xlink:href="#DejaVuSans-30" x="127.246094"/>
       <use xlink:href="#DejaVuSans-30" x="190.869141"/>
      </g>
     </g>
    </g>
    <g id="xtick_5">
     <g id="line2d_5">
      <g>
       <use xlink:href="#m6d16c3ad4a" x="269.791157" y="303.64" style="stroke: #000000; stroke-width: 0.8"/>
      </g>
     </g>
     <g id="text_5">
      <!-- 2000 -->
      <g transform="translate(257.066157 318.238437) scale(0.1 -0.1)">
       <defs>
        <path id="DejaVuSans-32" d="M 1228 531 
L 3431 531 
L 3431 0 
L 469 0 
L 469 531 
Q 828 903 1448 1529 
Q 2069 2156 2228 2338 
Q 2531 2678 2651 2914 
Q 2772 3150 2772 3378 
Q 2772 3750 2511 3984 
Q 2250 4219 1831 4219 
Q 1534 4219 1204 4116 
Q 875 4013 500 3803 
L 500 4441 
Q 881 4594 1212 4672 
Q 1544 4750 1819 4750 
Q 2544 4750 2975 4387 
Q 3406 4025 3406 3419 
Q 3406 3131 3298 2873 
Q 3191 2616 2906 2266 
Q 2828 2175 2409 1742 
Q 1991 1309 1228 531 
z
" transform="scale(0.015625)"/>
       </defs>
       <use xlink:href="#DejaVuSans-32"/>
       <use xlink:href="#DejaVuSans-30" x="63.623047"/>
       <use xlink:href="#DejaVuSans-30" x="127.246094"/>
       <use xlink:href="#DejaVuSans-30" x="190.869141"/>
      </g>
     </g>
    </g>
    <g id="xtick_6">
     <g id="line2d_6">
      <g>
       <use xlink:href="#m6d16c3ad4a" x="323.216446" y="303.64" style="stroke: #000000; stroke-width: 0.8"/>
      </g>
     </g>
     <g id="text_6">
      <!-- 2500 -->
      <g transform="translate(310.491446 318.238437) scale(0.1 -0.1)">
       <use xlink:href="#DejaVuSans-32"/>
       <use xlink:href="#DejaVuSans-35" x="63.623047"/>
       <use xlink:href="#DejaVuSans-30" x="127.246094"/>
       <use xlink:href="#DejaVuSans-30" x="190.869141"/>
      </g>
     </g>
    </g>
    <g id="xtick_7">
     <g id="line2d_7">
      <g>
       <use xlink:href="#m6d16c3ad4a" x="376.641735" y="303.64" style="stroke: #000000; stroke-width: 0.8"/>
      </g>
     </g>
     <g id="text_7">
      <!-- 3000 -->
      <g transform="translate(363.916735 318.238437) scale(0.1 -0.1)">
       <defs>
        <path id="DejaVuSans-33" d="M 2597 2516 
Q 3050 2419 3304 2112 
Q 3559 1806 3559 1356 
Q 3559 666 3084 287 
Q 2609 -91 1734 -91 
Q 1441 -91 1130 -33 
Q 819 25 488 141 
L 488 750 
Q 750 597 1062 519 
Q 1375 441 1716 441 
Q 2309 441 2620 675 
Q 2931 909 2931 1356 
Q 2931 1769 2642 2001 
Q 2353 2234 1838 2234 
L 1294 2234 
L 1294 2753 
L 1863 2753 
Q 2328 2753 2575 2939 
Q 2822 3125 2822 3475 
Q 2822 3834 2567 4026 
Q 2313 4219 1838 4219 
Q 1578 4219 1281 4162 
Q 984 4106 628 3988 
L 628 4550 
Q 988 4650 1302 4700 
Q 1616 4750 1894 4750 
Q 2613 4750 3031 4423 
Q 3450 4097 3450 3541 
Q 3450 3153 3228 2886 
Q 3006 2619 2597 2516 
z
" transform="scale(0.015625)"/>
       </defs>
       <use xlink:href="#DejaVuSans-33"/>
       <use xlink:href="#DejaVuSans-30" x="63.623047"/>
       <use xlink:href="#DejaVuSans-30" x="127.246094"/>
       <use xlink:href="#DejaVuSans-30" x="190.869141"/>
      </g>
     </g>
    </g>
    <g id="xtick_8">
     <g id="line2d_8">
      <g>
       <use xlink:href="#m6d16c3ad4a" x="430.067025" y="303.64" style="stroke: #000000; stroke-width: 0.8"/>
      </g>
     </g>
     <g id="text_8">
      <!-- 3500 -->
      <g transform="translate(417.342025 318.238437) scale(0.1 -0.1)">
       <use xlink:href="#DejaVuSans-33"/>
       <use xlink:href="#DejaVuSans-35" x="63.623047"/>
       <use xlink:href="#DejaVuSans-30" x="127.246094"/>
       <use xlink:href="#DejaVuSans-30" x="190.869141"/>
      </g>
     </g>
    </g>
    <g id="text_9">
     <!-- Time (s) -->
     <g transform="translate(232.716094 331.916562) scale(0.1 -0.1)">
      <defs>
       <path id="DejaVuSans-54" d="M -19 4666 
L 3928 4666 
L 3928 4134 
L 2272 4134 
L 2272 0 
L 1638 0 
L 1638 4134 
L -19 4134 
L -19 4666 
z
" transform="scale(0.015625)"/>
       <path id="DejaVuSans-69" d="M 603 3500 
L 1178 3500 
L 1178 0 
L 603 0 
L 603 3500 
z
M 603 4863 
L 1178 4863 
L 1178 4134 
L 603 4134 
L 603 4863 
z
" transform="scale(0.015625)"/>
       <path id="DejaVuSans-6d" d="M 3328 2828 
Q 3544 3216 3844 3400 
Q 4144 3584 4550 3584 
Q 5097 3584 5394 3201 
Q 5691 2819 5691 2113 
L 5691 0 
L 5113 0 
L 5113 2094 
Q 5113 2597 4934 2840 
Q 4756 3084 4391 3084 
Q 3944 3084 3684 2787 
Q 3425 2491 3425 1978 
L 3425 0 
L 2847 0 
L 2847 2094 
Q 2847 2600 2669 2842 
Q 2491 3084 2119 3084 
Q 1678 3084 1418 2786 
Q 1159 2488 1159 1978 
L 1159 0 
L 581 0 
L 581 3500 
L 1159 3500 
L 1159 2956 
Q 1356 3278 1631 3431 
Q 1906 3584 2284 3584 
Q 2666 3584 2933 3390 
Q 3200 3197 3328 2828 
z
" transform="scale(0.015625)"/>
       <path id="DejaVuSans-65" d="M 3597 1894 
L 3597 1613 
L 953 1613 
Q 991 1019 1311 708 
Q 1631 397 2203 397 
Q 2534 397 2845 478 
Q 3156 559 3463 722 
L 3463 178 
Q 3153 47 2828 -22 
Q 2503 -91 2169 -91 
Q 1331 -91 842 396 
Q 353 884 353 1716 
Q 353 2575 817 3079 
Q 1281 3584 2069 3584 
Q 2775 3584 3186 3129 
Q 3597 2675 3597 1894 
z
M 3022 2063 
Q 3016 2534 2758 2815 
Q 2500 3097 2075 3097 
Q 1594 3097 1305 2825 
Q 1016 2553 972 2059 
L 3022 2063 
z
" transform="scale(0.015625)"/>
       <path id="DejaVuSans-20" transform="scale(0.015625)"/>
       <path id="DejaVuSans-28" d="M 1984 4856 
Q 1566 4138 1362 3434 
Q 1159 2731 1159 2009 
Q 1159 1288 1364 580 
Q 1569 -128 1984 -844 
L 1484 -844 
Q 1016 -109 783 600 
Q 550 1309 550 2009 
Q 550 2706 781 3412 
Q 1013 4119 1484 4856 
L 1984 4856 
z
" transform="scale(0.015625)"/>
       <path id="DejaVuSans-73" d="M 2834 3397 
L 2834 2853 
Q 2591 2978 2328 3040 
Q 2066 3103 1784 3103 
Q 1356 3103 1142 2972 
Q 928 2841 928 2578 
Q 928 2378 1081 2264 
Q 1234 2150 1697 2047 
L 1894 2003 
Q 2506 1872 2764 1633 
Q 3022 1394 3022 966 
Q 3022 478 2636 193 
Q 2250 -91 1575 -91 
Q 1294 -91 989 -36 
Q 684 19 347 128 
L 347 722 
Q 666 556 975 473 
Q 1284 391 1588 391 
Q 1994 391 2212 530 
Q 2431 669 2431 922 
Q 2431 1156 2273 1281 
Q 2116 1406 1581 1522 
L 1381 1569 
Q 847 1681 609 1914 
Q 372 2147 372 2553 
Q 372 3047 722 3315 
Q 1072 3584 1716 3584 
Q 2034 3584 2315 3537 
Q 2597 3491 2834 3397 
z
" transform="scale(0.015625)"/>
       <path id="DejaVuSans-29" d="M 513 4856 
L 1013 4856 
Q 1481 4119 1714 3412 
Q 1947 2706 1947 2009 
Q 1947 1309 1714 600 
Q 1481 -109 1013 -844 
L 513 -844 
Q 928 -128 1133 580 
Q 1338 1288 1338 2009 
Q 1338 2731 1133 3434 
Q 928 4138 513 4856 
z
" transform="scale(0.015625)"/>
      </defs>
      <use xlink:href="#DejaVuSans-54"/>
      <use xlink:href="#DejaVuSans-69" x="57.958984"/>
      <use xlink:href="#DejaVuSans-6d" x="85.742188"/>
      <use xlink:href="#DejaVuSans-65" x="183.154297"/>
      <use xlink:href="#DejaVuSans-20" x="244.677734"/>
      <use xlink:href="#DejaVuSans-28" x="276.464844"/>
      <use xlink:href="#DejaVuSans-73" x="315.478516"/>
      <use xlink:href="#DejaVuSans-29" x="367.578125"/>
     </g>
    </g>
   </g>
   <g id="matplotlib.axis_2">
    <g id="ytick_1">
     <g id="line2d_9">
      <defs>
       <path id="m24812e46b4" d="M 0 0 
L -3.5 0 
" style="stroke: #000000; stroke-width: 0.8"/>
      </defs>
      <g>
       <use xlink:href="#m24812e46b4" x="56.09" y="284.213507" style="stroke: #000000; stroke-width: 0.8"/>
      </g>
     </g>
     <g id="text_10">
      <!-- −0.6 -->
      <g transform="translate(24.807188 288.012725) scale(0.1 -0.1)">
       <defs>
        <path id="DejaVuSans-2212" d="M 678 2272 
L 4684 2272 
L 4684 1741 
L 678 1741 
L 678 2272 
z
" transform="scale(0.015625)"/>
        <path id="DejaVuSans-2e" d="M 684 794 
L 1344 794 
L 1344 0 
L 684 0 
L 684 794 
z
" transform="scale(0.015625)"/>
        <path id="DejaVuSans-36" d="M 2113 2584 
Q 1688 2584 1439 2293 
Q 1191 2003 1191 1497 
Q 1191 994 1439 701 
Q 1688 409 2113 409 
Q 2538 409 2786 701 
Q 3034 994 3034 1497 
Q 3034 2003 2786 2293 
Q 2538 2584 2113 2584 
z
M 3366 4563 
L 3366 3988 
Q 3128 4100 2886 4159 
Q 2644 4219 2406 4219 
Q 1781 4219 1451 3797 
Q 1122 3375 1075 2522 
Q 1259 2794 1537 2939 
Q 1816 3084 2150 3084 
Q 2853 3084 3261 2657 
Q 3669 2231 3669 1497 
Q 3669 778 3244 343 
Q 2819 -91 2113 -91 
Q 1303 -91 875 529 
Q 447 1150 447 2328 
Q 447 3434 972 4092 
Q 1497 4750 2381 4750 
Q 2619 4750 2861 4703 
Q 3103 4656 3366 4563 
z
" transform="scale(0.015625)"/>
       </defs>
       <use xlink:href="#DejaVuSans-2212"/>
       <use xlink:href="#DejaVuSans-30" x="83.789062"/>
       <use xlink:href="#DejaVuSans-2e" x="147.412109"/>
       <use xlink:href="#DejaVuSans-36" x="179.199219"/>
      </g>
     </g>
    </g>
    <g id="ytick_2">
     <g id="line2d_10">
      <g>
       <use xlink:href="#m24812e46b4" x="56.09" y="243.421256" style="stroke: #000000; stroke-width: 0.8"/>
      </g>
     </g>
     <g id="text_11">
      <!-- −0.5 -->
      <g transform="translate(24.807188 247.220474) scale(0.1 -0.1)">
       <use xlink:href="#DejaVuSans-2212"/>
       <use xlink:href="#DejaVuSans-30" x="83.789062"/>
       <use xlink:href="#DejaVuSans-2e" x="147.412109"/>
       <use xlink:href="#DejaVuSans-35" x="179.199219"/>
      </g>
     </g>
    </g>
    <g id="ytick_3">
     <g id="line2d_11">
      <g>
       <use xlink:href="#m24812e46b4" x="56.09" y="202.629004" style="stroke: #000000; stroke-width: 0.8"/>
      </g>
     </g>
     <g id="text_12">
      <!-- −0.4 -->
      <g transform="translate(24.807188 206.428223) scale(0.1 -0.1)">
       <defs>
        <path id="DejaVuSans-34" d="M 2419 4116 
L 825 1625 
L 2419 1625 
L 2419 4116 
z
M 2253 4666 
L 3047 4666 
L 3047 1625 
L 3713 1625 
L 3713 1100 
L 3047 1100 
L 3047 0 
L 2419 0 
L 2419 1100 
L 313 1100 
L 313 1709 
L 2253 4666 
z
" transform="scale(0.015625)"/>
       </defs>
       <use xlink:href="#DejaVuSans-2212"/>
       <use xlink:href="#DejaVuSans-30" x="83.789062"/>
       <use xlink:href="#DejaVuSans-2e" x="147.412109"/>
       <use xlink:href="#DejaVuSans-34" x="179.199219"/>
      </g>
     </g>
    </g>
    <g id="ytick_4">
     <g id="line2d_12">
      <g>
       <use xlink:href="#m24812e46b4" x="56.09" y="161.836753" style="stroke: #000000; stroke-width: 0.8"/>
      </g>
     </g>
     <g id="text_13">
      <!-- −0.3 -->
      <g transform="translate(24.807188 165.635972) scale(0.1 -0.1)">
       <use xlink:href="#DejaVuSans-2212"/>
       <use xlink:href="#DejaVuSans-30" x="83.789062"/>
       <use xlink:href="#DejaVuSans-2e" x="147.412109"/>
       <use xlink:href="#DejaVuSans-33" x="179.199219"/>
      </g>
     </g>
    </g>
    <g id="ytick_5">
     <g id="line2d_13">
      <g>
       <use xlink:href="#m24812e46b4" x="56.09" y="121.044502" style="stroke: #000000; stroke-width: 0.8"/>
      </g>
     </g>
     <g id="text_14">
      <!-- −0.2 -->
      <g transform="translate(24.807188 124.843721) scale(0.1 -0.1)">
       <use xlink:href="#DejaVuSans-2212"/>
       <use xlink:href="#DejaVuSans-30" x="83.789062"/>
       <use xlink:href="#DejaVuSans-2e" x="147.412109"/>
       <use xlink:href="#DejaVuSans-32" x="179.199219"/>
      </g>
     </g>
    </g>
    <g id="ytick_6">
     <g id="line2d_14">
      <g>
       <use xlink:href="#m24812e46b4" x="56.09" y="80.252251" style="stroke: #000000; stroke-width: 0.8"/>
      </g>
     </g>
     <g id="text_15">
      <!-- −0.1 -->
      <g transform="translate(24.807188 84.05147) scale(0.1 -0.1)">
       <use xlink:href="#DejaVuSans-2212"/>
       <use xlink:href="#DejaVuSans-30" x="83.789062"/>
       <use xlink:href="#DejaVuSans-2e" x="147.412109"/>
       <use xlink:href="#DejaVuSans-31" x="179.199219"/>
      </g>
     </g>
    </g>
    <g id="ytick_7">
     <g id="line2d_15">
      <g>
       <use xlink:href="#m24812e46b4" x="56.09" y="39.46" style="stroke: #000000; stroke-width: 0.8"/>
      </g>
     </g>
     <g id="text_16">
      <!-- 0.0 -->
      <g transform="translate(33.186875 43.259219) scale(0.1 -0.1)">
       <use xlink:href="#DejaVuSans-30"/>
       <use xlink:href="#DejaVuSans-2e" x="63.623047"/>
       <use xlink:href="#DejaVuSans-30" x="95.410156"/>
      </g>
     </g>
    </g>
    <g id="text_17">
     <!-- Electrolyte potential (V) -->
     <g transform="translate(18.7275 224.723281) rotate(-90) scale(0.1 -0.1)">
      <defs>
       <path id="DejaVuSans-45" d="M 628 4666 
L 3578 4666 
L 3578 4134 
L 1259 4134 
L 1259 2753 
L 3481 2753 
L 3481 2222 
L 1259 2222 
L 1259 531 
L 3634 531 
L 3634 0 
L 628 0 
L 628 4666 
z
" transform="scale(0.015625)"/>
       <path id="DejaVuSans-6c" d="M 603 4863 
L 1178 4863 
L 1178 0 
L 603 0 
L 603 4863 
z
" transform="scale(0.015625)"/>
       <path id="DejaVuSans-63" d="M 3122 3366 
L 3122 2828 
Q 2878 2963 2633 3030 
Q 2388 3097 2138 3097 
Q 1578 3097 1268 2742 
Q 959 2388 959 1747 
Q 959 1106 1268 751 
Q 1578 397 2138 397 
Q 2388 397 2633 464 
Q 2878 531 3122 666 
L 3122 134 
Q 2881 22 2623 -34 
Q 2366 -91 2075 -91 
Q 1284 -91 818 406 
Q 353 903 353 1747 
Q 353 2603 823 3093 
Q 1294 3584 2113 3584 
Q 2378 3584 2631 3529 
Q 2884 3475 3122 3366 
z
" transform="scale(0.015625)"/>
       <path id="DejaVuSans-74" d="M 1172 4494 
L 1172 3500 
L 2356 3500 
L 2356 3053 
L 1172 3053 
L 1172 1153 
Q 1172 725 1289 603 
Q 1406 481 1766 481 
L 2356 481 
L 2356 0 
L 1766 0 
Q 1100 0 847 248 
Q 594 497 594 1153 
L 594 3053 
L 172 3053 
L 172 3500 
L 594 3500 
L 594 4494 
L 1172 4494 
z
" transform="scale(0.015625)"/>
       <path id="DejaVuSans-72" d="M 2631 2963 
Q 2534 3019 2420 3045 
Q 2306 3072 2169 3072 
Q 1681 3072 1420 2755 
Q 1159 2438 1159 1844 
L 1159 0 
L 581 0 
L 581 3500 
L 1159 3500 
L 1159 2956 
Q 1341 3275 1631 3429 
Q 1922 3584 2338 3584 
Q 2397 3584 2469 3576 
Q 2541 3569 2628 3553 
L 2631 2963 
z
" transform="scale(0.015625)"/>
       <path id="DejaVuSans-6f" d="M 1959 3097 
Q 1497 3097 1228 2736 
Q 959 2375 959 1747 
Q 959 1119 1226 758 
Q 1494 397 1959 397 
Q 2419 397 2687 759 
Q 2956 1122 2956 1747 
Q 2956 2369 2687 2733 
Q 2419 3097 1959 3097 
z
M 1959 3584 
Q 2709 3584 3137 3096 
Q 3566 2609 3566 1747 
Q 3566 888 3137 398 
Q 2709 -91 1959 -91 
Q 1206 -91 779 398 
Q 353 888 353 1747 
Q 353 2609 779 3096 
Q 1206 3584 1959 3584 
z
" transform="scale(0.015625)"/>
       <path id="DejaVuSans-79" d="M 2059 -325 
Q 1816 -950 1584 -1140 
Q 1353 -1331 966 -1331 
L 506 -1331 
L 506 -850 
L 844 -850 
Q 1081 -850 1212 -737 
Q 1344 -625 1503 -206 
L 1606 56 
L 191 3500 
L 800 3500 
L 1894 763 
L 2988 3500 
L 3597 3500 
L 2059 -325 
z
" transform="scale(0.015625)"/>
       <path id="DejaVuSans-70" d="M 1159 525 
L 1159 -1331 
L 581 -1331 
L 581 3500 
L 1159 3500 
L 1159 2969 
Q 1341 3281 1617 3432 
Q 1894 3584 2278 3584 
Q 2916 3584 3314 3078 
Q 3713 2572 3713 1747 
Q 3713 922 3314 415 
Q 2916 -91 2278 -91 
Q 1894 -91 1617 61 
Q 1341 213 1159 525 
z
M 3116 1747 
Q 3116 2381 2855 2742 
Q 2594 3103 2138 3103 
Q 1681 3103 1420 2742 
Q 1159 2381 1159 1747 
Q 1159 1113 1420 752 
Q 1681 391 2138 391 
Q 2594 391 2855 752 
Q 3116 1113 3116 1747 
z
" transform="scale(0.015625)"/>
       <path id="DejaVuSans-6e" d="M 3513 2113 
L 3513 0 
L 2938 0 
L 2938 2094 
Q 2938 2591 2744 2837 
Q 2550 3084 2163 3084 
Q 1697 3084 1428 2787 
Q 1159 2491 1159 1978 
L 1159 0 
L 581 0 
L 581 3500 
L 1159 3500 
L 1159 2956 
Q 1366 3272 1645 3428 
Q 1925 3584 2291 3584 
Q 2894 3584 3203 3211 
Q 3513 2838 3513 2113 
z
" transform="scale(0.015625)"/>
       <path id="DejaVuSans-61" d="M 2194 1759 
Q 1497 1759 1228 1600 
Q 959 1441 959 1056 
Q 959 750 1161 570 
Q 1363 391 1709 391 
Q 2188 391 2477 730 
Q 2766 1069 2766 1631 
L 2766 1759 
L 2194 1759 
z
M 3341 1997 
L 3341 0 
L 2766 0 
L 2766 531 
Q 2569 213 2275 61 
Q 1981 -91 1556 -91 
Q 1019 -91 701 211 
Q 384 513 384 1019 
Q 384 1609 779 1909 
Q 1175 2209 1959 2209 
L 2766 2209 
L 2766 2266 
Q 2766 2663 2505 2880 
Q 2244 3097 1772 3097 
Q 1472 3097 1187 3025 
Q 903 2953 641 2809 
L 641 3341 
Q 956 3463 1253 3523 
Q 1550 3584 1831 3584 
Q 2591 3584 2966 3190 
Q 3341 2797 3341 1997 
z
" transform="scale(0.015625)"/>
       <path id="DejaVuSans-56" d="M 1831 0 
L 50 4666 
L 709 4666 
L 2188 738 
L 3669 4666 
L 4325 4666 
L 2547 0 
L 1831 0 
z
" transform="scale(0.015625)"/>
      </defs>
      <use xlink:href="#DejaVuSans-45"/>
      <use xlink:href="#DejaVuSans-6c" x="63.183594"/>
      <use xlink:href="#DejaVuSans-65" x="90.966797"/>
      <use xlink:href="#DejaVuSans-63" x="152.490234"/>
      <use xlink:href="#DejaVuSans-74" x="207.470703"/>
      <use xlink:href="#DejaVuSans-72" x="246.679688"/>
      <use xlink:href="#DejaVuSans-6f" x="285.542969"/>
      <use xlink:href="#DejaVuSans-6c" x="346.724609"/>
      <use xlink:href="#DejaVuSans-79" x="374.507812"/>
      <use xlink:href="#DejaVuSans-74" x="433.6875"/>
      <use xlink:href="#DejaVuSans-65" x="472.896484"/>
      <use xlink:href="#DejaVuSans-20" x="534.419922"/>
      <use xlink:href="#DejaVuSans-70" x="566.207031"/>
      <use xlink:href="#DejaVuSans-6f" x="629.683594"/>
      <use xlink:href="#DejaVuSans-74" x="690.865234"/>
      <use xlink:href="#DejaVuSans-65" x="730.074219"/>
      <use xlink:href="#DejaVuSans-6e" x="791.597656"/>
      <use xlink:href="#DejaVuSans-74" x="854.976562"/>
      <use xlink:href="#DejaVuSans-69" x="894.185547"/>
      <use xlink:href="#DejaVuSans-61" x="921.96875"/>
      <use xlink:href="#DejaVuSans-6c" x="983.248047"/>
      <use xlink:href="#DejaVuSans-20" x="1011.03125"/>
      <use xlink:href="#DejaVuSans-28" x="1042.818359"/>
      <use xlink:href="#DejaVuSans-56" x="1081.832031"/>
      <use xlink:href="#DejaVuSans-29" x="1150.240234"/>
     </g>
    </g>
   </g>
   <g id="line2d_16">
    <path d="M 56.09 97.683708 
L 56.517402 99.567216 
L 57.585908 103.022219 
L 59.402368 108.129241 
L 61.432529 113.166338 
L 63.729816 118.214023 
L 66.29423 123.200222 
L 68.644943 127.28413 
L 70.995656 130.975618 
L 73.346368 134.330591 
L 76.445035 138.309871 
L 79.543702 141.863118 
L 82.695794 145.104948 
L 85.794461 147.976831 
L 88.893128 150.574998 
L 92.419197 153.2418 
L 95.945266 155.640027 
L 99.471335 157.801446 
L 103.745358 160.144195 
L 107.965956 162.197758 
L 112.293404 164.068201 
L 116.99483 165.880844 
L 122.444209 167.743585 
L 128.267566 169.526116 
L 164.222785 179.856015 
L 171.328349 181.459043 
L 190.294327 185.621697 
L 209.794557 190.169187 
L 218.823431 192.325304 
L 225.18104 194.065399 
L 232.286604 196.227836 
L 244.681271 200.274333 
L 253.336168 203.310999 
L 260.762283 206.165482 
L 269.791157 209.909696 
L 281.224169 214.910378 
L 289.291387 218.687176 
L 296.610652 222.359589 
L 306.013503 227.335087 
L 315.256078 232.452552 
L 323.05617 237.023072 
L 331.924768 242.52783 
L 341.167343 248.524715 
L 349.394838 254.102934 
L 358.744263 260.739784 
L 378.992448 275.214144 
L 382.839069 277.58892 
L 385.670609 279.075908 
L 387.70077 279.941348 
L 389.677506 280.582733 
L 391.654242 280.989316 
L 393.791253 281.137857 
L 396.035115 280.976351 
L 398.492679 280.497575 
L 401.858472 279.571088 
L 405.651667 278.595473 
L 407.948955 278.234134 
L 410.192817 278.15213 
L 411.902426 278.3045 
L 413.55861 278.657245 
L 415.268219 279.258749 
L 416.977829 280.126674 
L 418.740863 281.328603 
L 420.557323 282.915006 
L 422.427208 284.914617 
L 424.56422 287.553558 
L 426.647806 290.035003 
L 427.609461 290.813054 
L 428.250565 291.050378 
L 428.891668 290.969406 
L 429.319071 290.706672 
L 429.960174 290.009047 
L 430.868404 288.512594 
L 431.242381 287.803659 
L 431.242381 287.803659 
" clip-path="url(#pae679463d8)" style="fill: none; stroke: #1f77b4; stroke-width: 1.5; stroke-linecap: square"/>
   </g>
   <g id="line2d_17">
    <path d="M 56.09 61.865208 
L 56.410552 62.19119 
L 57.318782 62.586485 
L 61.058552 63.880784 
L 69.339472 66.505931 
L 76.39161 68.519644 
L 83.657449 70.352933 
L 90.495886 71.859303 
L 97.60145 73.21419 
L 105.454967 74.48637 
L 113.949588 75.635775 
L 127.733313 77.213022 
L 136.281359 78.282973 
L 142.638969 79.293076 
L 149.958233 80.729577 
L 165.398142 83.859911 
L 177.899659 85.950505 
L 186.821683 87.596753 
L 212.732948 92.628417 
L 223.898833 94.726807 
L 270.539111 104.18663 
L 306.334055 111.88973 
L 328.398699 116.925023 
L 367.132034 126.046946 
L 373.810195 127.335848 
L 378.244494 127.966322 
L 381.610287 128.214328 
L 383.907575 128.203495 
L 386.151437 128.005485 
L 388.235023 127.607322 
L 390.211759 126.999689 
L 392.34877 126.049242 
L 394.539207 124.741907 
L 396.943345 122.946857 
L 399.668035 120.580573 
L 407.254426 113.767897 
L 409.444863 112.145183 
L 411.581875 110.829898 
L 413.505185 109.922506 
L 415.321645 109.335853 
L 416.977829 109.055594 
L 418.634013 109.042464 
L 420.290197 109.320416 
L 421.572404 109.730607 
L 423.442289 110.615757 
L 426.754657 112.293975 
L 427.502611 112.379064 
L 428.197139 112.178726 
L 428.945094 111.542561 
L 429.693048 110.393907 
L 430.547852 108.524947 
L 431.242381 106.731576 
L 431.242381 106.731576 
" clip-path="url(#pae679463d8)" style="fill: none; stroke: #ff7f0e; stroke-width: 1.5; stroke-linecap: square"/>
   </g>
   <g id="line2d_18">
    <path d="M 56.09 56.970885 
L 56.517402 57.205762 
L 58.81469 58.004993 
L 66.988759 60.604507 
L 74.735426 62.862583 
L 81.573863 64.637797 
L 89.053403 66.338073 
L 96.372668 67.770055 
L 104.012484 69.042317 
L 112.026278 70.162988 
L 122.764761 71.427715 
L 136.067658 73.020849 
L 142.638969 74.062002 
L 149.904808 75.489053 
L 165.398142 78.634596 
L 177.846234 80.718541 
L 185.592901 82.132763 
L 195.957407 84.259257 
L 205.947936 86.203502 
L 227.79888 90.313299 
L 245.642926 93.894608 
L 260.174605 96.766746 
L 303.235388 105.986129 
L 330.268584 112.156805 
L 366.597781 120.710956 
L 373.115666 121.991097 
L 377.443115 122.646281 
L 380.755483 122.949493 
L 383.693874 122.982686 
L 386.151437 122.774522 
L 388.235023 122.374997 
L 390.211759 121.765892 
L 392.34877 120.813617 
L 394.539207 119.504124 
L 396.943345 117.706369 
L 399.668035 115.336664 
L 407.254426 108.513971 
L 409.444863 106.888739 
L 411.581875 105.571353 
L 413.505185 104.662458 
L 415.321645 104.074774 
L 416.977829 103.793939 
L 418.634013 103.780604 
L 420.290197 104.058733 
L 421.572404 104.469293 
L 423.442289 105.355269 
L 426.754657 107.034715 
L 427.502611 107.11966 
L 428.197139 106.918837 
L 428.945094 106.28161 
L 429.693048 105.131181 
L 430.547852 103.25927 
L 431.242381 101.462857 
L 431.242381 101.462857 
" clip-path="url(#pae679463d8)" style="fill: none; stroke: #2ca02c; stroke-width: 1.5; stroke-linecap: square"/>
   </g>
   <g id="line2d_19">
    <path d="M 56.09 39.46 
L 431.242381 39.46 
L 431.242381 39.46 
" clip-path="url(#pae679463d8)" style="fill: none; stroke: #d62728; stroke-width: 1.5; stroke-linecap: square"/>
   </g>
   <g id="line2d_20">
    <defs>
     <path id="m32052daaca" d="M 0 1.5 
C 0.397805 1.5 0.77937 1.341951 1.06066 1.06066 
C 1.341951 0.77937 1.5 0.397805 1.5 0 
C 1.5 -0.397805 1.341951 -0.77937 1.06066 -1.06066 
C 0.77937 -1.341951 0.397805 -1.5 0 -1.5 
C -0.397805 -1.5 -0.77937 -1.341951 -1.06066 -1.06066 
C -1.341951 -0.77937 -1.5 -0.397805 -1.5 0 
C -1.5 0.397805 -1.341951 0.77937 -1.06066 1.06066 
C -0.77937 1.341951 -0.397805 1.5 0 1.5 
z
" style="stroke: #000000"/>
    </defs>
    <g clip-path="url(#pae679463d8)">
     <use xlink:href="#m32052daaca" x="56.09" y="39.46" style="stroke: #000000"/>
     <use xlink:href="#m32052daaca" x="67.226027" y="39.46" style="stroke: #000000"/>
     <use xlink:href="#m32052daaca" x="78.362055" y="39.46" style="stroke: #000000"/>
     <use xlink:href="#m32052daaca" x="89.498082" y="39.46" style="stroke: #000000"/>
     <use xlink:href="#m32052daaca" x="100.63411" y="39.46" style="stroke: #000000"/>
     <use xlink:href="#m32052daaca" x="111.770137" y="39.46" style="stroke: #000000"/>
     <use xlink:href="#m32052daaca" x="122.906165" y="39.46" style="stroke: #000000"/>
     <use xlink:href="#m32052daaca" x="134.042192" y="39.46" style="stroke: #000000"/>
     <use xlink:href="#m32052daaca" x="145.17822" y="39.46" style="stroke: #000000"/>
     <use xlink:href="#m32052daaca" x="156.314247" y="39.46" style="stroke: #000000"/>
     <use xlink:href="#m32052daaca" x="167.450275" y="39.46" style="stroke: #000000"/>
     <use xlink:href="#m32052daaca" x="178.586302" y="39.46" style="stroke: #000000"/>
     <use xlink:href="#m32052daaca" x="189.72233" y="39.46" style="stroke: #000000"/>
     <use xlink:href="#m32052daaca" x="200.858357" y="39.46" style="stroke: #000000"/>
     <use xlink:href="#m32052daaca" x="211.994385" y="39.46" style="stroke: #000000"/>
     <use xlink:href="#m32052daaca" x="223.130412" y="39.46" style="stroke: #000000"/>
     <use xlink:href="#m32052daaca" x="234.26644" y="39.46" style="stroke: #000000"/>
     <use xlink:href="#m32052daaca" x="245.402467" y="39.46" style="stroke: #000000"/>
     <use xlink:href="#m32052daaca" x="256.538495" y="39.46" style="stroke: #000000"/>
     <use xlink:href="#m32052daaca" x="267.674522" y="39.46" style="stroke: #000000"/>
     <use xlink:href="#m32052daaca" x="278.81055" y="39.46" style="stroke: #000000"/>
     <use xlink:href="#m32052daaca" x="289.946577" y="39.46" style="stroke: #000000"/>
     <use xlink:href="#m32052daaca" x="301.082605" y="39.46" style="stroke: #000000"/>
     <use xlink:href="#m32052daaca" x="312.218632" y="39.46" style="stroke: #000000"/>
     <use xlink:href="#m32052daaca" x="323.35466" y="39.46" style="stroke: #000000"/>
     <use xlink:href="#m32052daaca" x="334.490687" y="39.46" style="stroke: #000000"/>
     <use xlink:href="#m32052daaca" x="345.626715" y="39.46" style="stroke: #000000"/>
     <use xlink:href="#m32052daaca" x="356.762742" y="39.46" style="stroke: #000000"/>
     <use xlink:href="#m32052daaca" x="367.898769" y="39.46" style="stroke: #000000"/>
     <use xlink:href="#m32052daaca" x="379.034797" y="39.46" style="stroke: #000000"/>
     <use xlink:href="#m32052daaca" x="390.170824" y="39.46" style="stroke: #000000"/>
     <use xlink:href="#m32052daaca" x="401.306852" y="39.46" style="stroke: #000000"/>
     <use xlink:href="#m32052daaca" x="412.442879" y="39.46" style="stroke: #000000"/>
     <use xlink:href="#m32052daaca" x="423.578907" y="39.46" style="stroke: #000000"/>
     <use xlink:href="#m32052daaca" x="430.805169" y="39.46" style="stroke: #000000"/>
    </g>
   </g>
   <g id="line2d_21">
    <g clip-path="url(#pae679463d8)">
     <use xlink:href="#m32052daaca" x="56.09" y="56.780279" style="stroke: #000000"/>
     <use xlink:href="#m32052daaca" x="67.226027" y="60.681557" style="stroke: #000000"/>
     <use xlink:href="#m32052daaca" x="78.362055" y="63.837774" style="stroke: #000000"/>
     <use xlink:href="#m32052daaca" x="89.498082" y="66.439043" style="stroke: #000000"/>
     <use xlink:href="#m32052daaca" x="100.63411" y="68.513748" style="stroke: #000000"/>
     <use xlink:href="#m32052daaca" x="111.770137" y="70.138894" style="stroke: #000000"/>
     <use xlink:href="#m32052daaca" x="122.906165" y="71.450512" style="stroke: #000000"/>
     <use xlink:href="#m32052daaca" x="134.042192" y="72.751969" style="stroke: #000000"/>
     <use xlink:href="#m32052daaca" x="145.17822" y="74.544738" style="stroke: #000000"/>
     <use xlink:href="#m32052daaca" x="156.314247" y="76.874334" style="stroke: #000000"/>
     <use xlink:href="#m32052daaca" x="167.450275" y="79.009307" style="stroke: #000000"/>
     <use xlink:href="#m32052daaca" x="178.586302" y="80.861437" style="stroke: #000000"/>
     <use xlink:href="#m32052daaca" x="189.72233" y="82.986933" style="stroke: #000000"/>
     <use xlink:href="#m32052daaca" x="200.858357" y="85.267262" style="stroke: #000000"/>
     <use xlink:href="#m32052daaca" x="211.994385" y="87.304579" style="stroke: #000000"/>
     <use xlink:href="#m32052daaca" x="223.130412" y="89.386401" style="stroke: #000000"/>
     <use xlink:href="#m32052daaca" x="234.26644" y="91.685953" style="stroke: #000000"/>
     <use xlink:href="#m32052daaca" x="245.402467" y="93.876696" style="stroke: #000000"/>
     <use xlink:href="#m32052daaca" x="256.538495" y="96.044781" style="stroke: #000000"/>
     <use xlink:href="#m32052daaca" x="267.674522" y="98.403697" style="stroke: #000000"/>
     <use xlink:href="#m32052daaca" x="278.81055" y="100.73285" style="stroke: #000000"/>
     <use xlink:href="#m32052daaca" x="289.946577" y="103.059994" style="stroke: #000000"/>
     <use xlink:href="#m32052daaca" x="301.082605" y="105.544519" style="stroke: #000000"/>
     <use xlink:href="#m32052daaca" x="312.218632" y="108.028415" style="stroke: #000000"/>
     <use xlink:href="#m32052daaca" x="323.35466" y="110.564441" style="stroke: #000000"/>
     <use xlink:href="#m32052daaca" x="334.490687" y="113.21311" style="stroke: #000000"/>
     <use xlink:href="#m32052daaca" x="345.626715" y="115.852525" style="stroke: #000000"/>
     <use xlink:href="#m32052daaca" x="356.762742" y="118.529676" style="stroke: #000000"/>
     <use xlink:href="#m32052daaca" x="367.898769" y="121.032754" style="stroke: #000000"/>
     <use xlink:href="#m32052daaca" x="379.034797" y="122.84348" style="stroke: #000000"/>
     <use xlink:href="#m32052daaca" x="390.170824" y="121.68647" style="stroke: #000000"/>
     <use xlink:href="#m32052daaca" x="401.306852" y="113.57249" style="stroke: #000000"/>
     <use xlink:href="#m32052daaca" x="412.442879" y="105.016938" style="stroke: #000000"/>
     <use xlink:href="#m32052daaca" x="423.578907" y="105.604011" style="stroke: #000000"/>
     <use xlink:href="#m32052daaca" x="430.805169" y="101.732368" style="stroke: #000000"/>
    </g>
   </g>
   <g id="line2d_22">
    <g clip-path="url(#pae679463d8)">
     <use xlink:href="#m32052daaca" x="56.09" y="61.674602" style="stroke: #000000"/>
     <use xlink:href="#m32052daaca" x="67.226027" y="65.864319" style="stroke: #000000"/>
     <use xlink:href="#m32052daaca" x="78.362055" y="69.04857" style="stroke: #000000"/>
     <use xlink:href="#m32052daaca" x="89.498082" y="71.660119" style="stroke: #000000"/>
     <use xlink:href="#m32052daaca" x="100.63411" y="73.740048" style="stroke: #000000"/>
     <use xlink:href="#m32052daaca" x="111.770137" y="75.368368" style="stroke: #000000"/>
     <use xlink:href="#m32052daaca" x="122.906165" y="76.681951" style="stroke: #000000"/>
     <use xlink:href="#m32052daaca" x="134.042192" y="77.98402" style="stroke: #000000"/>
     <use xlink:href="#m32052daaca" x="145.17822" y="79.77529" style="stroke: #000000"/>
     <use xlink:href="#m32052daaca" x="156.314247" y="82.101812" style="stroke: #000000"/>
     <use xlink:href="#m32052daaca" x="167.450275" y="84.234238" style="stroke: #000000"/>
     <use xlink:href="#m32052daaca" x="178.586302" y="86.084281" style="stroke: #000000"/>
     <use xlink:href="#m32052daaca" x="189.72233" y="88.206882" style="stroke: #000000"/>
     <use xlink:href="#m32052daaca" x="200.858357" y="90.484113" style="stroke: #000000"/>
     <use xlink:href="#m32052daaca" x="211.994385" y="92.519159" style="stroke: #000000"/>
     <use xlink:href="#m32052daaca" x="223.130412" y="94.598976" style="stroke: #000000"/>
     <use xlink:href="#m32052daaca" x="234.26644" y="96.89654" style="stroke: #000000"/>
     <use xlink:href="#m32052daaca" x="245.402467" y="99.086118" style="stroke: #000000"/>
     <use xlink:href="#m32052daaca" x="256.538495" y="101.253763" style="stroke: #000000"/>
     <use xlink:href="#m32052daaca" x="267.674522" y="103.612343" style="stroke: #000000"/>
     <use xlink:href="#m32052daaca" x="278.81055" y="105.941604" style="stroke: #000000"/>
     <use xlink:href="#m32052daaca" x="289.946577" y="108.269467" style="stroke: #000000"/>
     <use xlink:href="#m32052daaca" x="301.082605" y="110.754857" style="stroke: #000000"/>
     <use xlink:href="#m32052daaca" x="312.218632" y="113.239999" style="stroke: #000000"/>
     <use xlink:href="#m32052daaca" x="323.35466" y="115.777758" style="stroke: #000000"/>
     <use xlink:href="#m32052daaca" x="334.490687" y="118.428288" style="stroke: #000000"/>
     <use xlink:href="#m32052daaca" x="345.626715" y="121.070056" style="stroke: #000000"/>
     <use xlink:href="#m32052daaca" x="356.762742" y="123.749888" style="stroke: #000000"/>
     <use xlink:href="#m32052daaca" x="367.898769" y="126.256133" style="stroke: #000000"/>
     <use xlink:href="#m32052daaca" x="379.034797" y="128.070939" style="stroke: #000000"/>
     <use xlink:href="#m32052daaca" x="390.170824" y="126.920438" style="stroke: #000000"/>
     <use xlink:href="#m32052daaca" x="401.306852" y="118.818938" style="stroke: #000000"/>
     <use xlink:href="#m32052daaca" x="412.442879" y="110.276404" style="stroke: #000000"/>
     <use xlink:href="#m32052daaca" x="423.578907" y="110.864276" style="stroke: #000000"/>
     <use xlink:href="#m32052daaca" x="430.805169" y="107.000616" style="stroke: #000000"/>
    </g>
   </g>
   <g id="line2d_23">
    <g clip-path="url(#pae679463d8)">
     <use xlink:href="#m32052daaca" x="56.09" y="86.710833" style="stroke: #000000"/>
     <use xlink:href="#m32052daaca" x="67.226027" y="125.20173" style="stroke: #000000"/>
     <use xlink:href="#m32052daaca" x="78.362055" y="140.723645" style="stroke: #000000"/>
     <use xlink:href="#m32052daaca" x="89.498082" y="151.143993" style="stroke: #000000"/>
     <use xlink:href="#m32052daaca" x="100.63411" y="158.516874" style="stroke: #000000"/>
     <use xlink:href="#m32052daaca" x="111.770137" y="163.886388" style="stroke: #000000"/>
     <use xlink:href="#m32052daaca" x="122.906165" y="167.908397" style="stroke: #000000"/>
     <use xlink:href="#m32052daaca" x="134.042192" y="171.187132" style="stroke: #000000"/>
     <use xlink:href="#m32052daaca" x="145.17822" y="174.411535" style="stroke: #000000"/>
     <use xlink:href="#m32052daaca" x="156.314247" y="177.761559" style="stroke: #000000"/>
     <use xlink:href="#m32052daaca" x="167.450275" y="180.616946" style="stroke: #000000"/>
     <use xlink:href="#m32052daaca" x="178.586302" y="182.979806" style="stroke: #000000"/>
     <use xlink:href="#m32052daaca" x="189.72233" y="185.494594" style="stroke: #000000"/>
     <use xlink:href="#m32052daaca" x="200.858357" y="188.152487" style="stroke: #000000"/>
     <use xlink:href="#m32052daaca" x="211.994385" y="190.683743" style="stroke: #000000"/>
     <use xlink:href="#m32052daaca" x="223.130412" y="193.503529" style="stroke: #000000"/>
     <use xlink:href="#m32052daaca" x="234.26644" y="196.888488" style="stroke: #000000"/>
     <use xlink:href="#m32052daaca" x="245.402467" y="200.552959" style="stroke: #000000"/>
     <use xlink:href="#m32052daaca" x="256.538495" y="204.551828" style="stroke: #000000"/>
     <use xlink:href="#m32052daaca" x="267.674522" y="209.062094" style="stroke: #000000"/>
     <use xlink:href="#m32052daaca" x="278.81055" y="213.882155" style="stroke: #000000"/>
     <use xlink:href="#m32052daaca" x="289.946577" y="219.069238" style="stroke: #000000"/>
     <use xlink:href="#m32052daaca" x="301.082605" y="224.770394" style="stroke: #000000"/>
     <use xlink:href="#m32052daaca" x="312.218632" y="230.8188" style="stroke: #000000"/>
     <use xlink:href="#m32052daaca" x="323.35466" y="237.293598" style="stroke: #000000"/>
     <use xlink:href="#m32052daaca" x="334.490687" y="244.268175" style="stroke: #000000"/>
     <use xlink:href="#m32052daaca" x="345.626715" y="251.623597" style="stroke: #000000"/>
     <use xlink:href="#m32052daaca" x="356.762742" y="259.433129" style="stroke: #000000"/>
     <use xlink:href="#m32052daaca" x="367.898769" y="267.508629" style="stroke: #000000"/>
     <use xlink:href="#m32052daaca" x="379.034797" y="275.347688" style="stroke: #000000"/>
     <use xlink:href="#m32052daaca" x="390.170824" y="280.70741" style="stroke: #000000"/>
     <use xlink:href="#m32052daaca" x="401.306852" y="279.587025" style="stroke: #000000"/>
     <use xlink:href="#m32052daaca" x="412.442879" y="278.387371" style="stroke: #000000"/>
     <use xlink:href="#m32052daaca" x="423.578907" y="286.585668" style="stroke: #000000"/>
     <use xlink:href="#m32052daaca" x="430.805169" y="287.864783" style="stroke: #000000"/>
    </g>
   </g>
   <g id="patch_3">
    <path d="M 56.09 303.64 
L 56.09 26.88 
" style="fill: none; stroke: #000000; stroke-width: 0.8; stroke-linejoin: miter; stroke-linecap: square"/>
   </g>
   <g id="patch_4">
    <path d="M 450 303.64 
L 450 26.88 
" style="fill: none; stroke: #000000; stroke-width: 0.8; stroke-linejoin: miter; stroke-linecap: square"/>
   </g>
   <g id="patch_5">
    <path d="M 56.09 303.64 
L 450 303.64 
" style="fill: none; stroke: #000000; stroke-width: 0.8; stroke-linejoin: miter; stroke-linecap: square"/>
   </g>
   <g id="patch_6">
    <path d="M 56.09 26.88 
L 450 26.88 
" style="fill: none; stroke: #000000; stroke-width: 0.8; stroke-linejoin: miter; stroke-linecap: square"/>
   </g>
   <g id="text_18">
    <!-- Figure 5d -->
    <g transform="translate(225.19375 20.88) scale(0.12 -0.12)">
     <defs>
      <path id="DejaVuSans-46" d="M 628 4666 
L 3309 4666 
L 3309 4134 
L 1259 4134 
L 1259 2759 
L 3109 2759 
L 3109 2228 
L 1259 2228 
L 1259 0 
L 628 0 
L 628 4666 
z
" transform="scale(0.015625)"/>
      <path id="DejaVuSans-67" d="M 2906 1791 
Q 2906 2416 2648 2759 
Q 2391 3103 1925 3103 
Q 1463 3103 1205 2759 
Q 947 2416 947 1791 
Q 947 1169 1205 825 
Q 1463 481 1925 481 
Q 2391 481 2648 825 
Q 2906 1169 2906 1791 
z
M 3481 434 
Q 3481 -459 3084 -895 
Q 2688 -1331 1869 -1331 
Q 1566 -1331 1297 -1286 
Q 1028 -1241 775 -1147 
L 775 -588 
Q 1028 -725 1275 -790 
Q 1522 -856 1778 -856 
Q 2344 -856 2625 -561 
Q 2906 -266 2906 331 
L 2906 616 
Q 2728 306 2450 153 
Q 2172 0 1784 0 
Q 1141 0 747 490 
Q 353 981 353 1791 
Q 353 2603 747 3093 
Q 1141 3584 1784 3584 
Q 2172 3584 2450 3431 
Q 2728 3278 2906 2969 
L 2906 3500 
L 3481 3500 
L 3481 434 
z
" transform="scale(0.015625)"/>
      <path id="DejaVuSans-75" d="M 544 1381 
L 544 3500 
L 1119 3500 
L 1119 1403 
Q 1119 906 1312 657 
Q 1506 409 1894 409 
Q 2359 409 2629 706 
Q 2900 1003 2900 1516 
L 2900 3500 
L 3475 3500 
L 3475 0 
L 2900 0 
L 2900 538 
Q 2691 219 2414 64 
Q 2138 -91 1772 -91 
Q 1169 -91 856 284 
Q 544 659 544 1381 
z
M 1991 3584 
L 1991 3584 
z
" transform="scale(0.015625)"/>
      <path id="DejaVuSans-64" d="M 2906 2969 
L 2906 4863 
L 3481 4863 
L 3481 0 
L 2906 0 
L 2906 525 
Q 2725 213 2448 61 
Q 2172 -91 1784 -91 
Q 1150 -91 751 415 
Q 353 922 353 1747 
Q 353 2572 751 3078 
Q 1150 3584 1784 3584 
Q 2172 3584 2448 3432 
Q 2725 3281 2906 2969 
z
M 947 1747 
Q 947 1113 1208 752 
Q 1469 391 1925 391 
Q 2381 391 2643 752 
Q 2906 1113 2906 1747 
Q 2906 2381 2643 2742 
Q 2381 3103 1925 3103 
Q 1469 3103 1208 2742 
Q 947 2381 947 1747 
z
" transform="scale(0.015625)"/>
     </defs>
     <use xlink:href="#DejaVuSans-46"/>
     <use xlink:href="#DejaVuSans-69" x="50.269531"/>
     <use xlink:href="#DejaVuSans-67" x="78.052734"/>
     <use xlink:href="#DejaVuSans-75" x="141.529297"/>
     <use xlink:href="#DejaVuSans-72" x="204.908203"/>
     <use xlink:href="#DejaVuSans-65" x="243.771484"/>
     <use xlink:href="#DejaVuSans-20" x="305.294922"/>
     <use xlink:href="#DejaVuSans-35" x="337.082031"/>
     <use xlink:href="#DejaVuSans-64" x="400.705078"/>
    </g>
   </g>
   <g id="legend_1">
    <g id="patch_7">
     <path d="M 63.09 298.64 
L 221.185313 298.64 
Q 223.185313 298.64 223.185313 296.64 
L 223.185313 224.249375 
Q 223.185313 222.249375 221.185313 222.249375 
L 63.09 222.249375 
Q 61.09 222.249375 61.09 224.249375 
L 61.09 296.64 
Q 61.09 298.64 63.09 298.64 
z
" style="fill: #ffffff; opacity: 0.8; stroke: #cccccc; stroke-linejoin: miter"/>
    </g>
    <g id="line2d_24">
     <path d="M 65.09 230.347812 
L 75.09 230.347812 
L 85.09 230.347812 
" style="fill: none; stroke: #1f77b4; stroke-width: 1.5; stroke-linecap: square"/>
    </g>
    <g id="text_19">
     <!-- anode/curent collector -->
     <g transform="translate(93.09 233.847812) scale(0.1 -0.1)">
      <defs>
       <path id="DejaVuSans-2f" d="M 1625 4666 
L 2156 4666 
L 531 -594 
L 0 -594 
L 1625 4666 
z
" transform="scale(0.015625)"/>
      </defs>
      <use xlink:href="#DejaVuSans-61"/>
      <use xlink:href="#DejaVuSans-6e" x="61.279297"/>
      <use xlink:href="#DejaVuSans-6f" x="124.658203"/>
      <use xlink:href="#DejaVuSans-64" x="185.839844"/>
      <use xlink:href="#DejaVuSans-65" x="249.316406"/>
      <use xlink:href="#DejaVuSans-2f" x="310.839844"/>
      <use xlink:href="#DejaVuSans-63" x="344.53125"/>
      <use xlink:href="#DejaVuSans-75" x="399.511719"/>
      <use xlink:href="#DejaVuSans-72" x="462.890625"/>
      <use xlink:href="#DejaVuSans-65" x="501.753906"/>
      <use xlink:href="#DejaVuSans-6e" x="563.277344"/>
      <use xlink:href="#DejaVuSans-74" x="626.65625"/>
      <use xlink:href="#DejaVuSans-20" x="665.865234"/>
      <use xlink:href="#DejaVuSans-63" x="697.652344"/>
      <use xlink:href="#DejaVuSans-6f" x="752.632812"/>
      <use xlink:href="#DejaVuSans-6c" x="813.814453"/>
      <use xlink:href="#DejaVuSans-6c" x="841.597656"/>
      <use xlink:href="#DejaVuSans-65" x="869.380859"/>
      <use xlink:href="#DejaVuSans-63" x="930.904297"/>
      <use xlink:href="#DejaVuSans-74" x="985.884766"/>
      <use xlink:href="#DejaVuSans-6f" x="1025.09375"/>
      <use xlink:href="#DejaVuSans-72" x="1086.275391"/>
     </g>
    </g>
    <g id="line2d_25">
     <path d="M 65.09 245.025937 
L 75.09 245.025937 
L 85.09 245.025937 
" style="fill: none; stroke: #ff7f0e; stroke-width: 1.5; stroke-linecap: square"/>
    </g>
    <g id="text_20">
     <!-- anode/separator -->
     <g transform="translate(93.09 248.525937) scale(0.1 -0.1)">
      <use xlink:href="#DejaVuSans-61"/>
      <use xlink:href="#DejaVuSans-6e" x="61.279297"/>
      <use xlink:href="#DejaVuSans-6f" x="124.658203"/>
      <use xlink:href="#DejaVuSans-64" x="185.839844"/>
      <use xlink:href="#DejaVuSans-65" x="249.316406"/>
      <use xlink:href="#DejaVuSans-2f" x="310.839844"/>
      <use xlink:href="#DejaVuSans-73" x="344.53125"/>
      <use xlink:href="#DejaVuSans-65" x="396.630859"/>
      <use xlink:href="#DejaVuSans-70" x="458.154297"/>
      <use xlink:href="#DejaVuSans-61" x="521.630859"/>
      <use xlink:href="#DejaVuSans-72" x="582.910156"/>
      <use xlink:href="#DejaVuSans-61" x="624.023438"/>
      <use xlink:href="#DejaVuSans-74" x="685.302734"/>
      <use xlink:href="#DejaVuSans-6f" x="724.511719"/>
      <use xlink:href="#DejaVuSans-72" x="785.693359"/>
     </g>
    </g>
    <g id="line2d_26">
     <path d="M 65.09 259.704062 
L 75.09 259.704062 
L 85.09 259.704062 
" style="fill: none; stroke: #2ca02c; stroke-width: 1.5; stroke-linecap: square"/>
    </g>
    <g id="text_21">
     <!-- cathode/separator -->
     <g transform="translate(93.09 263.204062) scale(0.1 -0.1)">
      <defs>
       <path id="DejaVuSans-68" d="M 3513 2113 
L 3513 0 
L 2938 0 
L 2938 2094 
Q 2938 2591 2744 2837 
Q 2550 3084 2163 3084 
Q 1697 3084 1428 2787 
Q 1159 2491 1159 1978 
L 1159 0 
L 581 0 
L 581 4863 
L 1159 4863 
L 1159 2956 
Q 1366 3272 1645 3428 
Q 1925 3584 2291 3584 
Q 2894 3584 3203 3211 
Q 3513 2838 3513 2113 
z
" transform="scale(0.015625)"/>
      </defs>
      <use xlink:href="#DejaVuSans-63"/>
      <use xlink:href="#DejaVuSans-61" x="54.980469"/>
      <use xlink:href="#DejaVuSans-74" x="116.259766"/>
      <use xlink:href="#DejaVuSans-68" x="155.46875"/>
      <use xlink:href="#DejaVuSans-6f" x="218.847656"/>
      <use xlink:href="#DejaVuSans-64" x="280.029297"/>
      <use xlink:href="#DejaVuSans-65" x="343.505859"/>
      <use xlink:href="#DejaVuSans-2f" x="405.029297"/>
      <use xlink:href="#DejaVuSans-73" x="438.720703"/>
      <use xlink:href="#DejaVuSans-65" x="490.820312"/>
      <use xlink:href="#DejaVuSans-70" x="552.34375"/>
      <use xlink:href="#DejaVuSans-61" x="615.820312"/>
      <use xlink:href="#DejaVuSans-72" x="677.099609"/>
      <use xlink:href="#DejaVuSans-61" x="718.212891"/>
      <use xlink:href="#DejaVuSans-74" x="779.492188"/>
      <use xlink:href="#DejaVuSans-6f" x="818.701172"/>
      <use xlink:href="#DejaVuSans-72" x="879.882812"/>
     </g>
    </g>
    <g id="line2d_27">
     <path d="M 65.09 274.382187 
L 75.09 274.382187 
L 85.09 274.382187 
" style="fill: none; stroke: #d62728; stroke-width: 1.5; stroke-linecap: square"/>
    </g>
    <g id="text_22">
     <!-- cathode/current collector -->
     <g transform="translate(93.09 277.882187) scale(0.1 -0.1)">
      <use xlink:href="#DejaVuSans-63"/>
      <use xlink:href="#DejaVuSans-61" x="54.980469"/>
      <use xlink:href="#DejaVuSans-74" x="116.259766"/>
      <use xlink:href="#DejaVuSans-68" x="155.46875"/>
      <use xlink:href="#DejaVuSans-6f" x="218.847656"/>
      <use xlink:href="#DejaVuSans-64" x="280.029297"/>
      <use xlink:href="#DejaVuSans-65" x="343.505859"/>
      <use xlink:href="#DejaVuSans-2f" x="405.029297"/>
      <use xlink:href="#DejaVuSans-63" x="438.720703"/>
      <use xlink:href="#DejaVuSans-75" x="493.701172"/>
      <use xlink:href="#DejaVuSans-72" x="557.080078"/>
      <use xlink:href="#DejaVuSans-72" x="596.443359"/>
      <use xlink:href="#DejaVuSans-65" x="635.306641"/>
      <use xlink:href="#DejaVuSans-6e" x="696.830078"/>
      <use xlink:href="#DejaVuSans-74" x="760.208984"/>
      <use xlink:href="#DejaVuSans-20" x="799.417969"/>
      <use xlink:href="#DejaVuSans-63" x="831.205078"/>
      <use xlink:href="#DejaVuSans-6f" x="886.185547"/>
      <use xlink:href="#DejaVuSans-6c" x="947.367188"/>
      <use xlink:href="#DejaVuSans-6c" x="975.150391"/>
      <use xlink:href="#DejaVuSans-65" x="1002.933594"/>
      <use xlink:href="#DejaVuSans-63" x="1064.457031"/>
      <use xlink:href="#DejaVuSans-74" x="1119.4375"/>
      <use xlink:href="#DejaVuSans-6f" x="1158.646484"/>
      <use xlink:href="#DejaVuSans-72" x="1219.828125"/>
     </g>
    </g>
    <g id="line2d_28">
     <g>
      <use xlink:href="#m32052daaca" x="75.09" y="289.060312" style="stroke: #000000"/>
     </g>
    </g>
    <g id="text_23">
     <!-- mpet -->
     <g transform="translate(93.09 292.560312) scale(0.1 -0.1)">
      <use xlink:href="#DejaVuSans-6d"/>
      <use xlink:href="#DejaVuSans-70" x="97.412109"/>
      <use xlink:href="#DejaVuSans-65" x="160.888672"/>
      <use xlink:href="#DejaVuSans-74" x="222.412109"/>
     </g>
    </g>
   </g>
  </g>
 </g>
 <defs>
  <clipPath id="pae679463d8">
   <rect x="56.09" y="26.88" width="393.91" height="276.76"/>
  </clipPath>
 </defs>
</svg>
